<svg xmlns="http://www.w3.org/2000/svg" xmlns:xlink="http://www.w3.org/1999/xlink" xmlns:lucid="lucid" width="689.95" height="252"><g transform="translate(281 1281)" lucid:page-tab-id="0_0"><path d="M-252-1141.33c-4.42 0-8 3.58-8 8v24c0 4.4 3.58 8 8 8h104c4.42 0 8-3.6 8-8v-24c0-4.42-3.58-8-8-8z" stroke="#000" stroke-width="2" fill="#fff"/><use xlink:href="#a" transform="matrix(1,0,0,1,-252,-1133.333332765166) translate(18.574999999999996 15.6)"/><path d="M-120.52-1120.36H-138v-1.95h17.48zm61.02 0h-15.02v-1.95h15.02z" stroke="#333" stroke-width=".05" fill="#333"/><path d="M-137.97-1120.36H-139v-1.95h1.03z" fill="#333"/><path stroke="#333" stroke-width=".05" fill="#333"/><path d="M-44.24-1121.33l-14.26 4.63v-9.27z" fill="#333"/><path d="M-41.08-1121.33l-18.4 5.97v-11.95zm-16.45 3.3l10.14-3.3-10.13-3.3z" stroke="#333" stroke-width=".05" fill="#333"/><use xlink:href="#b" transform="matrix(1,0,0,1,-120.51504881944162,-1132.133332765166) translate(0.004999999999999005 14.4)"/><path d="M3.16-1079.03H-18v-1.94H3.16zm156.34 0h-27.54v-1.94h27.54z" stroke="#333" stroke-width=".05" fill="#333"/><path d="M-17.97-1079.03H-19v-1.94h1.03z" fill="#333"/><path stroke="#333" stroke-width=".05" fill="#333"/><path d="M174.76-1080l-14.26 4.63v-9.27z" fill="#333"/><path d="M177.92-1080l-18.4 5.98v-11.96zm-16.45 3.3l10.14-3.3-10.13-3.3z" stroke="#333" stroke-width=".05" fill="#333"/><use xlink:href="#c" transform="matrix(1,0,0,1,3.155965113274391,-1090.8) translate(0.0049999999999954525 14.4)"/><path d="M187-1100c-4.42 0-8 3.58-8 8v24c0 4.42 3.58 8 8 8h104c4.42 0 8-3.58 8-8v-24c0-4.42-3.58-8-8-8z" stroke="#333" stroke-width="2" fill="#fff"/><use xlink:href="#d" transform="matrix(1,0,0,1,187.00005092592528,-1092) translate(-2.450000000000003 15.6)"/><path d="M6.28-1169.3H-18v-1.93H6.28zm153.3-29.73l-1.42.1-1.3.33-1.23.5-1.14.7-1.03.87-.87 1.02-.7 1.13-.5 1.23-.32 1.3-.1 1.38v8.24l-.16 2-.48 1.97-.78 1.88-1.06 1.74-1.32 1.55-1.55 1.32-1.74 1.06-1.9.78-1.97.48-2 .15h-21.9v-1.93h21.83l1.76-.14 1.7-.4 1.58-.67 1.48-.9 1.3-1.13 1.14-1.3.9-1.5.66-1.58.4-1.7.15-1.75v-8.24l.12-1.6.38-1.6.63-1.52.86-1.4 1.07-1.25 1.24-1.08 1.4-.86 1.52-.63 1.6-.38 1.56-.12z" stroke="#333" stroke-width=".05" fill="#333"/><path d="M-17.97-1169.3H-19v-1.93h1.03z" fill="#333"/><path stroke="#333" stroke-width=".05" fill="#333"/><path d="M174.76-1200l-14.26 4.63v-9.27z" fill="#333"/><path d="M177.92-1200l-18.4 5.98v-11.96zm-16.45 3.3l10.14-3.3-10.13-3.3z" stroke="#333" stroke-width=".05" fill="#333"/><use xlink:href="#e" transform="matrix(1,0,0,1,6.283763692179946,-1181.0598990249614) translate(0.005000000000002558 14.4)"/><path d="M187-1220c-4.42 0-8 3.58-8 8v24c0 4.42 3.58 8 8 8h104c4.42 0 8-3.58 8-8v-24c0-4.42-3.58-8-8-8z" stroke="#333" stroke-width="2" fill="#fff"/><use xlink:href="#f" transform="matrix(1,0,0,1,187.00005092592528,-1212) translate(20.075 15.6)"/><path d="M187-1161.33c-4.42 0-8 3.58-8 8v24c0 4.4 3.58 8 8 8h104c4.42 0 8-3.6 8-8v-24c0-4.42-3.58-8-8-8z" stroke="#333" stroke-width="2" fill="#fff"/><use xlink:href="#g" transform="matrix(1,0,0,1,187.00005092592528,-1153.333332765166) translate(26.5 15.6)"/><path d="M138.03-1171.08l1.98.48 1.9.78 1.73 1.06 1.55 1.32 1.32 1.55 1.06 1.75.78 1.88.48 1.98.16 2v5.43l.13 1.68.4 1.62.63 1.52.86 1.4 1.06 1.27 1.25 1.08 1.42.86 1.53.63 1.6.4 1.72.13-.15 1.94-1.87-.15-1.9-.47-1.82-.74-1.67-1.04-1.48-1.27-1.28-1.5-1.02-1.67-.75-1.8-.45-1.9-.16-1.92v-5.42l-.13-1.76-.42-1.7-.66-1.58-.9-1.48-1.13-1.3-1.32-1.14-1.48-.9-1.6-.66-1.68-.4-1.76-.14h-19.83v-1.95h19.9zm-156.03 1.8v-1.95H6.28v1.94z" stroke="#333" stroke-width=".05" fill="#333"/><path d="M-17.97-1169.3H-19v-1.93h1.03z" fill="#333"/><path stroke="#333" stroke-width=".05" fill="#333"/><path d="M174.76-1141.33l-14.26 4.63v-9.27z" fill="#333"/><path d="M177.92-1141.33l-18.4 5.97v-11.95zm-16.45 3.3l10.14-3.3-10.13-3.3z" stroke="#333" stroke-width=".05" fill="#333"/><path d="M380.98-1091.96l-.16 2-.48 1.97-.78 1.9-1.06 1.73-1.32 1.55-1.55 1.32-1.74 1.06-1.9.78-1.97.48-2 .15H301v-1.94h66.96l1.76-.14 1.7-.42 1.58-.66 1.48-.9 1.3-1.13 1.14-1.32.9-1.48.66-1.6.4-1.68.14-1.76v-5.88h1.96zm-10.95-107.56l1.98.47 1.9.78 1.73 1.07 1.55 1.32 1.32 1.55 1.06 1.73.78 1.9.48 1.97.16 2v67.2h-1.96v-67.13l-.13-1.77-.42-1.68-.66-1.6-.9-1.48-1.13-1.32-1.32-1.12-1.48-.9-1.6-.67-1.68-.4-1.76-.13H318.5v-1.95h49.54z" stroke="#fc9432" stroke-width=".05" fill="#fc9432"/><path d="M301.03-1079.03H300v-1.94h1.03z" fill="#fc9432"/><path stroke="#fc9432" stroke-width=".05" fill="#fc9432"/><path d="M317.5-1194.07l-14.26-4.63 14.26-4.64z" fill="#fc9432"/><path d="M318.48-1192.73l-18.4-5.97 18.4-5.98zm-12.1-5.97l10.15 3.3v-6.6z" stroke="#fc9432" stroke-width=".05" fill="#fc9432"/><use xlink:href="#h" transform="matrix(1,0,0,1,354.05,-1119.5200160314387) translate(0.004999999999999005 14.4)"/><path d="M-252-1260c-4.42 0-8 3.58-8 8v24c0 4.42 3.58 8 8 8h104c4.42 0 8-3.58 8-8v-24c0-4.42-3.58-8-8-8z" fill="#fff"/><path d="M-251-1260c0 .55-.45 1-1 1s-1-.45-1-1 .45-1 1-1 1 .45 1 1zm-3.93 1.18c0 .55-.45 1-1 1s-1-.45-1-1 .45-1 1-1 1 .45 1 1zm-2.9 2.9c0 .54-.44 1-1 1-.54 0-1-.46-1-1 0-.56.46-1 1-1 .56 0 1 .44 1 1zM-259-1252c0 .55-.45 1-1 1s-1-.45-1-1 .45-1 1-1 1 .45 1 1zm0 4c0 .55-.45 1-1 1s-1-.45-1-1 .45-1 1-1 1 .45 1 1zm0 4c0 .55-.45 1-1 1s-1-.45-1-1 .45-1 1-1 1 .45 1 1zm0 4c0 .55-.45 1-1 1s-1-.45-1-1 .45-1 1-1 1 .45 1 1zm0 4c0 .55-.45 1-1 1s-1-.45-1-1 .45-1 1-1 1 .45 1 1zm0 4c0 .55-.45 1-1 1s-1-.45-1-1 .45-1 1-1 1 .45 1 1zm0 4c0 .55-.45 1-1 1s-1-.45-1-1 .45-1 1-1 1 .45 1 1zm1.18 3.93c0 .55-.45 1-1 1s-1-.45-1-1 .45-1 1-1 1 .45 1 1zm2.9 2.9c0 .54-.46 1-1 1-.56 0-1-.46-1-1 0-.56.44-1 1-1 .54 0 1 .44 1 1zm3.92 1.17c0 .55-.45 1-1 1s-1-.45-1-1 .45-1 1-1 1 .45 1 1zm4 0c0 .55-.45 1-1 1s-1-.45-1-1 .45-1 1-1 1 .45 1 1zm4 0c0 .55-.45 1-1 1s-1-.45-1-1 .45-1 1-1 1 .45 1 1zm4 0c0 .55-.45 1-1 1s-1-.45-1-1 .45-1 1-1 1 .45 1 1zm4 0c0 .55-.45 1-1 1s-1-.45-1-1 .45-1 1-1 1 .45 1 1zm4 0c0 .55-.45 1-1 1s-1-.45-1-1 .45-1 1-1 1 .45 1 1zm4 0c0 .55-.45 1-1 1s-1-.45-1-1 .45-1 1-1 1 .45 1 1zm4 0c0 .55-.45 1-1 1s-1-.45-1-1 .45-1 1-1 1 .45 1 1zm4 0c0 .55-.45 1-1 1s-1-.45-1-1 .45-1 1-1 1 .45 1 1zm4 0c0 .55-.45 1-1 1s-1-.45-1-1 .45-1 1-1 1 .45 1 1zm4 0c0 .55-.45 1-1 1s-1-.45-1-1 .45-1 1-1 1 .45 1 1zm4 0c0 .55-.45 1-1 1s-1-.45-1-1 .45-1 1-1 1 .45 1 1zm4 0c0 .55-.45 1-1 1s-1-.45-1-1 .45-1 1-1 1 .45 1 1zm4 0c0 .55-.45 1-1 1s-1-.45-1-1 .45-1 1-1 1 .45 1 1zm4 0c0 .55-.45 1-1 1s-1-.45-1-1 .45-1 1-1 1 .45 1 1zm4 0c0 .55-.45 1-1 1s-1-.45-1-1 .45-1 1-1 1 .45 1 1zm4 0c0 .55-.45 1-1 1s-1-.45-1-1 .45-1 1-1 1 .45 1 1zm4 0c0 .55-.45 1-1 1s-1-.45-1-1 .45-1 1-1 1 .45 1 1zm4 0c0 .55-.45 1-1 1s-1-.45-1-1 .45-1 1-1 1 .45 1 1zm4 0c0 .55-.45 1-1 1s-1-.45-1-1 .45-1 1-1 1 .45 1 1zm4 0c0 .55-.45 1-1 1s-1-.45-1-1 .45-1 1-1 1 .45 1 1zm4 0c0 .55-.45 1-1 1s-1-.45-1-1 .45-1 1-1 1 .45 1 1zm4 0c0 .55-.45 1-1 1s-1-.45-1-1 .45-1 1-1 1 .45 1 1zm4 0c0 .55-.45 1-1 1s-1-.45-1-1 .45-1 1-1 1 .45 1 1zm4 0c0 .55-.45 1-1 1s-1-.45-1-1 .45-1 1-1 1 .45 1 1zm4 0c0 .55-.45 1-1 1s-1-.45-1-1 .45-1 1-1 1 .45 1 1zm4 0c0 .55-.45 1-1 1s-1-.45-1-1 .45-1 1-1 1 .45 1 1zm3.93-1.18c0 .55-.45 1-1 1s-1-.45-1-1 .45-1 1-1 1 .45 1 1zm2.9-2.9c0 .56-.46 1-1 1-.56 0-1-.44-1-1 0-.54.44-1 1-1 .54 0 1 .46 1 1zm1.17-3.92c0 .55-.45 1-1 1s-1-.45-1-1 .45-1 1-1 1 .45 1 1zm0-4c0 .55-.45 1-1 1s-1-.45-1-1 .45-1 1-1 1 .45 1 1zm0-4c0 .55-.45 1-1 1s-1-.45-1-1 .45-1 1-1 1 .45 1 1zm0-4c0 .55-.45 1-1 1s-1-.45-1-1 .45-1 1-1 1 .45 1 1zm0-4c0 .55-.45 1-1 1s-1-.45-1-1 .45-1 1-1 1 .45 1 1zm0-4c0 .55-.45 1-1 1s-1-.45-1-1 .45-1 1-1 1 .45 1 1zm0-4c0 .55-.45 1-1 1s-1-.45-1-1 .45-1 1-1 1 .45 1 1zm-1.18-3.93c0 .55-.45 1-1 1s-1-.45-1-1 .45-1 1-1 1 .45 1 1zm-2.9-2.9c0 .56-.44 1-1 1-.54 0-1-.44-1-1 0-.54.46-1 1-1 .56 0 1 .46 1 1zM-147-1260c0 .55-.45 1-1 1s-1-.45-1-1 .45-1 1-1 1 .45 1 1zm-4 0c0 .55-.45 1-1 1s-1-.45-1-1 .45-1 1-1 1 .45 1 1zm-4 0c0 .55-.45 1-1 1s-1-.45-1-1 .45-1 1-1 1 .45 1 1zm-4 0c0 .55-.45 1-1 1s-1-.45-1-1 .45-1 1-1 1 .45 1 1zm-4 0c0 .55-.45 1-1 1s-1-.45-1-1 .45-1 1-1 1 .45 1 1zm-4 0c0 .55-.45 1-1 1s-1-.45-1-1 .45-1 1-1 1 .45 1 1zm-4 0c0 .55-.45 1-1 1s-1-.45-1-1 .45-1 1-1 1 .45 1 1zm-4 0c0 .55-.45 1-1 1s-1-.45-1-1 .45-1 1-1 1 .45 1 1zm-4 0c0 .55-.45 1-1 1s-1-.45-1-1 .45-1 1-1 1 .45 1 1zm-4 0c0 .55-.45 1-1 1s-1-.45-1-1 .45-1 1-1 1 .45 1 1zm-4 0c0 .55-.45 1-1 1s-1-.45-1-1 .45-1 1-1 1 .45 1 1zm-4 0c0 .55-.45 1-1 1s-1-.45-1-1 .45-1 1-1 1 .45 1 1zm-4 0c0 .55-.45 1-1 1s-1-.45-1-1 .45-1 1-1 1 .45 1 1zm-4 0c0 .55-.45 1-1 1s-1-.45-1-1 .45-1 1-1 1 .45 1 1zm-4 0c0 .55-.45 1-1 1s-1-.45-1-1 .45-1 1-1 1 .45 1 1zm-4 0c0 .55-.45 1-1 1s-1-.45-1-1 .45-1 1-1 1 .45 1 1zm-4 0c0 .55-.45 1-1 1s-1-.45-1-1 .45-1 1-1 1 .45 1 1zm-4 0c0 .55-.45 1-1 1s-1-.45-1-1 .45-1 1-1 1 .45 1 1zm-4 0c0 .55-.45 1-1 1s-1-.45-1-1 .45-1 1-1 1 .45 1 1zm-4 0c0 .55-.45 1-1 1s-1-.45-1-1 .45-1 1-1 1 .45 1 1zm-4 0c0 .55-.45 1-1 1s-1-.45-1-1 .45-1 1-1 1 .45 1 1zm-4 0c0 .55-.45 1-1 1s-1-.45-1-1 .45-1 1-1 1 .45 1 1zm-4 0c0 .55-.45 1-1 1s-1-.45-1-1 .45-1 1-1 1 .45 1 1zm-4 0c0 .55-.45 1-1 1s-1-.45-1-1 .45-1 1-1 1 .45 1 1zm-4 0c0 .55-.45 1-1 1s-1-.45-1-1 .45-1 1-1 1 .45 1 1zm-4 0c0 .55-.45 1-1 1s-1-.45-1-1 .45-1 1-1 1 .45 1 1z"/><use xlink:href="#i" transform="matrix(1,0,0,1,-252,-1252) translate(34.075 15.6)"/><path d="M-199.3-1161.54l.3.7-.3.7-.7.3-.7-.3-.3-.7.3-.7.7-.3zm0-4.1l.3.72-.3.7-.7.3-.7-.3-.3-.7.3-.7.7-.3zm0-4.07l.3.7-.3.7-.7.3-.7-.3-.3-.7.3-.7.7-.3zm0-4.1l.3.7-.3.72-.7.3-.7-.3-.3-.7.3-.7.7-.3zm0-2.66l-.7.3-.7-.3-.17-.4h1.74zm-.37-22h-.66l.33-.12zm.38-3.9l.3.7-.3.7-.7.3-.7-.3-.3-.7.3-.7.7-.3zm0-4.1l.3.7-.3.72-.7.3-.7-.3-.3-.7.3-.72.7-.3zm0-4.08l.3.7-.3.7-.7.3-.7-.3-.3-.7.3-.7.7-.3zm0-4.08l.3.7-.3.7-.7.3-.7-.3-.3-.7.3-.7.7-.3zm0-4.1l.3.72-.3.7-.7.3-.7-.3-.3-.7.3-.7.7-.3z"/><path d="M-199.03-1217.97h-1.94v-1.03h1.94z"/><path stroke="#000" stroke-width=".05"/><path d="M-200-1145.57l-4.63-14.27h9.26z"/><path d="M-200-1142.4l-5.98-18.4h11.96zm-3.3-16.46l3.3 10.13 3.3-10.13z" stroke="#000" stroke-width=".05"/><use xlink:href="#b" transform="matrix(1,0,0,1,-223,-1198.4456606766992) translate(0.004999999999999005 14.4)"/><path d="M239.7-1222.7l.3.7-.3.7-.7.3-.7-.3-.3-.7.3-.7.7-.3zm0-3l.3.7-.3.7-.7.3-.7-.3-.3-.7.3-.7.7-.3zm0-3l.3.7-.3.7-.7.3-.7-.3-.3-.7.3-.7.7-.3zm-.58-3.7l.3.7-.3.7-.7.3-.7-.3-.3-.7.3-.7.7-.3zm-1.7-3.36l.3.7-.3.7-.7.3-.72-.3-.3-.7.3-.7.7-.3zm-2.66-2.65l.3.7-.3.7-.7.3-.7-.3-.3-.7.3-.7.7-.3zm-3.34-1.72l.3.7-.3.7-.7.3-.72-.3-.3-.7.3-.7.7-.3zm-351.2-.6l.28.72-.3.7-.7.3-.7-.3-.3-.7.3-.7.7-.3zm3.98 0l.3.72-.3.7-.7.3-.7-.3-.3-.7.3-.7.7-.3zm4 0l.3.72-.3.7-.7.3-.72-.3-.3-.7.3-.7.7-.3zm4 0l.28.72-.3.7-.7.3-.7-.3-.3-.7.3-.7.7-.3zm4 0l.28.72-.3.7-.7.3-.7-.3-.3-.7.3-.7.7-.3zm3.98 0l.3.72-.3.7-.7.3-.7-.3-.3-.7.3-.7.7-.3zm4 0l.3.72-.3.7-.7.3-.72-.3-.3-.7.3-.7.7-.3zm4 0l.28.72-.3.7-.7.3-.7-.3-.3-.7.3-.7.7-.3zm3.98 0l.3.72-.3.7-.7.3-.7-.3-.3-.7.3-.7.7-.3zm4 0l.3.72-.3.7-.7.3-.72-.3-.3-.7.3-.7.7-.3zm4 0l.28.72-.3.7-.7.3-.7-.3-.3-.7.3-.7.7-.3zm4 0l.28.72-.3.7-.7.3-.7-.3-.3-.7.3-.7.7-.3zm3.98 0l.3.72-.3.7-.7.3-.7-.3-.3-.7.3-.7.7-.3zm4 0l.3.72-.3.7-.7.3-.72-.3-.3-.7.3-.7.7-.3zm4 0l.28.72-.3.7-.7.3-.7-.3-.3-.7.3-.7.7-.3zm3.98 0l.3.72-.3.7-.7.3-.7-.3-.3-.7.3-.7.7-.3zm4 0l.3.72-.3.7-.7.3-.72-.3-.3-.7.3-.7.7-.3zm4 0l.28.72-.3.7-.7.3-.7-.3-.3-.7.3-.7.7-.3zm3.98 0l.3.72-.3.7-.7.3-.7-.3-.3-.7.3-.7.7-.3zm4 0l.3.72-.3.7-.7.3-.7-.3-.3-.7.3-.7.7-.3zm4 0l.3.72-.3.7-.7.3-.72-.3-.3-.7.3-.7.7-.3zm4 0l.28.72-.3.7-.7.3-.7-.3-.3-.7.3-.7.7-.3zm3.98 0l.3.72-.3.7-.7.3-.7-.3-.3-.7.3-.7.7-.3zm4 0l.3.72-.3.7-.7.3-.72-.3-.3-.7.3-.7.7-.3zm4 0l.28.72-.3.7-.7.3-.7-.3-.3-.7.3-.7.7-.3zm4 0l.28.72-.3.7-.7.3-.7-.3-.3-.7.3-.7.7-.3zm3.98 0l.3.72-.3.7-.7.3-.7-.3-.3-.7.3-.7.7-.3zm4 0l.3.72-.3.7-.7.3-.72-.3-.3-.7.3-.7.7-.3zm4 0l.28.72-.3.7-.7.3-.7-.3-.3-.7.3-.7.7-.3zm3.98 0l.3.72-.3.7-.7.3-.7-.3-.3-.7.3-.7.7-.3zm4 0l.3.72-.3.7-.7.3-.72-.3-.3-.7.3-.7.7-.3zm4 0l.28.72-.3.7-.7.3-.7-.3-.3-.7.3-.7.7-.3zm3.98 0l.3.72-.3.7-.7.3-.7-.3-.3-.7.3-.7.7-.3zm4 0l.3.72-.3.7-.7.3-.72-.3-.3-.7.3-.7.7-.3zm4 0l.3.72-.3.7-.7.3-.72-.3-.3-.7.3-.7.7-.3zm4 0l.28.72-.3.7-.7.3-.7-.3-.3-.7.3-.7.7-.3zm3.98 0l.3.72-.3.7-.7.3-.7-.3-.3-.7.3-.7.7-.3zm4 0l.3.72-.3.7-.7.3-.72-.3-.3-.7.3-.7.7-.3zm4 0l.28.72-.3.7-.7.3-.7-.3-.3-.7.3-.7.7-.3zm3.98 0l.3.72-.3.7-.7.3-.7-.3-.3-.7.3-.7.7-.3zm47.94 0l.3.72-.3.7-.7.3-.72-.3v-1.4l.7-.3zm4 0l.28.72-.3.7-.7.3-.7-.3-.3-.7.3-.7.7-.3zm3.98 0l.3.72-.3.7-.7.3-.7-.3-.3-.7.3-.7.7-.3zm4 0l.3.72-.3.7-.7.3-.72-.3-.3-.7.3-.7.7-.3zm4 0l.28.72-.3.7-.7.3-.7-.3-.3-.7.3-.7.7-.3zm4 0l.28.72-.3.7-.7.3-.7-.3-.3-.7.3-.7.7-.3zm3.98 0l.3.72-.3.7-.7.3-.7-.3-.3-.7.3-.7.7-.3zm4 0l.3.72-.3.7-.7.3-.72-.3-.3-.7.3-.7.7-.3zm4 0l.28.72-.3.7-.7.3-.7-.3-.3-.7.3-.7.7-.3zm3.98 0l.3.72-.3.7-.7.3-.7-.3-.3-.7.3-.7.7-.3zm4 0l.3.72-.3.7-.7.3-.72-.3-.3-.7.3-.7.7-.3zm4 0l.28.72-.3.7-.7.3-.7-.3-.3-.7.3-.7.7-.3zm4 0l.28.72-.3.7-.7.3-.7-.3-.3-.7.3-.7.7-.3zm3.98 0l.3.72-.3.7-.7.3-.7-.3-.3-.7.3-.7.7-.3zm4 0l.3.72-.3.7-.7.3-.72-.3-.3-.7.3-.7.7-.3zm4 0l.28.72-.3.7-.7.3-.7-.3-.3-.7.3-.7.7-.3zm3.98 0l.3.72-.3.7-.7.3-.7-.3-.3-.7.3-.7.7-.3zm4 0l.3.72-.3.7-.7.3-.72-.3-.3-.7.3-.7.7-.3zm4 0l.28.72-.3.7-.7.3-.7-.3-.3-.7.3-.7.7-.3zm4 0l.28.72-.3.7-.7.3-.7-.3-.3-.7.3-.7.7-.3zm3.98 0l.3.72-.3.7-.7.3-.72-.3-.3-.7.3-.7.7-.3zm4 0l.3.72-.3.7-.7.3-.72-.3-.3-.7.3-.7.7-.3zm4 0l.28.72-.3.7-.7.3-.7-.3-.3-.7.3-.7.7-.3zm3.98 0l.3.72-.3.7-.7.3-.7-.3-.3-.7.3-.7.7-.3zm4 0l.3.72-.3.7-.7.3-.72-.3-.3-.7.3-.7.7-.3zm4 0l.28.72-.3.7-.7.3-.7-.3-.3-.7.3-.7.7-.3zm3.98 0l.3.72-.3.7-.7.3-.7-.3-.3-.7.3-.7.7-.3zm4 0l.3.72-.3.7-.7.3-.72-.3-.3-.7.3-.7.7-.3zm4 0l.3.72-.3.7-.7.3-.72-.3-.3-.7.3-.7.7-.3zm4 0l.28.72-.3.7-.7.3-.7-.3-.3-.7.3-.7.7-.3zm3.98 0l.3.72-.3.7-.7.3-.7-.3-.3-.7.3-.7.7-.3zm4 0l.3.72-.3.7-.7.3-.72-.3-.3-.7.3-.7.7-.3zm4 0l.28.72-.3.7-.7.3-.7-.3-.3-.7.3-.7.7-.3zm3.98 0l.3.72-.3.7-.7.3-.7-.3-.3-.7.3-.7.7-.3zm4 0l.3.72-.3.7-.7.3-.72-.3-.3-.7.3-.7.7-.3zm4 0l.3.72-.3.7-.7.3-.72-.3-.3-.7.3-.7.7-.3zm4 0l.28.72-.3.7-.7.3-.7-.3-.3-.7.3-.7.7-.3z"/><path d="M239.97-1221h-1.94v-1.03h1.94z"/><path stroke="#000" stroke-width=".05"/><path d="M-121.5-1235.37l-14.26-4.63 14.26-4.63z"/><path d="M-120.52-1234.02l-18.4-5.98 18.4-5.98zm-12.1-5.98l10.15 3.3v-6.6z" stroke="#000" stroke-width=".05"/><use xlink:href="#j" transform="matrix(1,0,0,1,36.50002546296264,-1250.8) translate(0.004999999999999005 14.4)"/><path d="M304.95-1140.36H301v-1.95h3.95zm15.8 0h-7.9v-1.95h7.9zm15.8 0h-7.9v-1.95h7.9zm15.8 0h-7.9v-1.95h7.9zm15.8 0h-7.9v-1.95h7.9zm11.85 0h-3.95v-1.95H380z" stroke="#fc9432" stroke-width=".05" fill="#fc9432"/><path d="M301.03-1140.36H300v-1.95h1.03z" fill="#fc9432"/><path stroke="#fc9432" stroke-width=".05" fill="#fc9432"/><path d="M379.98-1126.33h-1.96v-30h1.96z" stroke="#fc9432" stroke-width=".05" fill="#fc9432"/><path d="M-40-1184.67a8 8 0 0 1 8-8h4a8 8 0 0 1 8 8V-1058a8 8 0 0 1-8 8h-4a8 8 0 0 1-8-8z" stroke="#000" stroke-width="2"/><defs><path fill="#666" d="M233-177c-1 41-23 64-60 70L243 0h-38l-65-103H63V0H30v-248c88 3 205-21 203 71zM63-129c60-2 137 13 137-47 0-61-80-42-137-45v92" id="k"/><path fill="#666" d="M84 4C-5 8 30-112 23-190h32v120c0 31 7 50 39 49 72-2 45-101 50-169h31l1 190h-30c-1-10 1-25-2-33-11 22-28 36-60 37" id="l"/><path fill="#666" d="M117-194c89-4 53 116 60 194h-32v-121c0-31-8-49-39-48C34-167 62-67 57 0H25l-1-190h30c1 10-1 24 2 32 11-22 29-35 61-36" id="m"/><path fill="#666" d="M59-47c-2 24 18 29 38 22v24C64 9 27 4 27-40v-127H5v-23h24l9-43h21v43h35v23H59v120" id="n"/><path fill="#666" d="M24-231v-30h32v30H24zM24 0v-190h32V0H24" id="o"/><path fill="#666" d="M210-169c-67 3-38 105-44 169h-31v-121c0-29-5-50-35-48C34-165 62-65 56 0H25l-1-190h30c1 10-1 24 2 32 10-44 99-50 107 0 11-21 27-35 58-36 85-2 47 119 55 194h-31v-121c0-29-5-49-35-48" id="p"/><path fill="#666" d="M100-194c63 0 86 42 84 106H49c0 40 14 67 53 68 26 1 43-12 49-29l28 8c-11 28-37 45-77 45C44 4 14-33 15-96c1-61 26-98 85-98zm52 81c6-60-76-77-97-28-3 7-6 17-6 28h103" id="q"/><g id="a"><use transform="matrix(0.05,0,0,0.05,0,0)" xlink:href="#k"/><use transform="matrix(0.05,0,0,0.05,12.950000000000001,0)" xlink:href="#l"/><use transform="matrix(0.05,0,0,0.05,22.950000000000003,0)" xlink:href="#m"/><use transform="matrix(0.05,0,0,0.05,32.95,0)" xlink:href="#n"/><use transform="matrix(0.05,0,0,0.05,37.95,0)" xlink:href="#o"/><use transform="matrix(0.05,0,0,0.05,41.900000000000006,0)" xlink:href="#p"/><use transform="matrix(0.05,0,0,0.05,56.85,0)" xlink:href="#q"/></g><path fill="#666" d="M30 0v-248h187v28H63v79h144v27H63v87h162V0H30" id="r"/><path fill="#666" d="M108 0H70L1-190h34L89-25l56-165h34" id="s"/><g id="b"><use transform="matrix(0.05,0,0,0.05,0,0)" xlink:href="#r"/><use transform="matrix(0.05,0,0,0.05,12,0)" xlink:href="#s"/><use transform="matrix(0.05,0,0,0.05,21,0)" xlink:href="#q"/><use transform="matrix(0.05,0,0,0.05,31,0)" xlink:href="#m"/><use transform="matrix(0.05,0,0,0.05,41,0)" xlink:href="#n"/></g><path fill="#666" d="M85-194c31 0 48 13 60 33l-1-100h32l1 261h-30c-2-10 0-23-3-31C134-8 116 4 85 4 32 4 16-35 15-94c0-66 23-100 70-100zm9 24c-40 0-46 34-46 75 0 40 6 74 45 74 42 0 51-32 51-76 0-42-9-74-50-73" id="t"/><path fill="#666" d="M114-163C36-179 61-72 57 0H25l-1-190h30c1 12-1 29 2 39 6-27 23-49 58-41v29" id="u"/><path fill="#666" d="M141-36C126-15 110 5 73 4 37 3 15-17 15-53c-1-64 63-63 125-63 3-35-9-54-41-54-24 1-41 7-42 31l-33-3c5-37 33-52 76-52 45 0 72 20 72 64v82c-1 20 7 32 28 27v20c-31 9-61-2-59-35zM48-53c0 20 12 33 32 33 41-3 63-29 60-74-43 2-92-5-92 41" id="v"/><path fill="#666" d="M206 0h-36l-40-164L89 0H53L-1-190h32L70-26l43-164h34l41 164 42-164h31" id="w"/><path fill="#666" d="M145-31C134-9 116 4 85 4 32 4 16-35 15-94c0-59 17-99 70-100 32-1 48 14 60 33 0-11-1-24 2-32h30l-1 268h-32zM93-21c41 0 51-33 51-76s-8-73-50-73c-40 0-46 35-46 75s5 74 45 74" id="x"/><path fill="#666" d="M135-143c-3-34-86-38-87 0 15 53 115 12 119 90S17 21 10-45l28-5c4 36 97 45 98 0-10-56-113-15-118-90-4-57 82-63 122-42 12 7 21 19 24 35" id="y"/><g id="c"><use transform="matrix(0.05,0,0,0.05,0,0)" xlink:href="#k"/><use transform="matrix(0.05,0,0,0.05,12.950000000000001,0)" xlink:href="#q"/><use transform="matrix(0.05,0,0,0.05,22.950000000000003,0)" xlink:href="#t"/><use transform="matrix(0.05,0,0,0.05,32.95,0)" xlink:href="#u"/><use transform="matrix(0.05,0,0,0.05,38.900000000000006,0)" xlink:href="#v"/><use transform="matrix(0.05,0,0,0.05,48.900000000000006,0)" xlink:href="#w"/><use transform="matrix(0.05,0,0,0.05,61.85,0)" xlink:href="#k"/><use transform="matrix(0.05,0,0,0.05,74.80000000000001,0)" xlink:href="#q"/><use transform="matrix(0.05,0,0,0.05,84.80000000000001,0)" xlink:href="#x"/><use transform="matrix(0.05,0,0,0.05,94.80000000000001,0)" xlink:href="#l"/><use transform="matrix(0.05,0,0,0.05,104.80000000000001,0)" xlink:href="#q"/><use transform="matrix(0.05,0,0,0.05,114.80000000000001,0)" xlink:href="#y"/><use transform="matrix(0.05,0,0,0.05,123.80000000000001,0)" xlink:href="#n"/></g><path fill="#666" d="M266 0h-40l-56-210L115 0H75L2-248h35L96-30l15-64 43-154h32l59 218 59-218h35" id="z"/><path fill="#666" d="M177-190C167-65 218 103 67 71c-23-6-38-20-44-43l32-5c15 47 100 32 89-28v-30C133-14 115 1 83 1 29 1 15-40 15-95c0-56 16-97 71-98 29-1 48 16 59 35 1-10 0-23 2-32h30zM94-22c36 0 50-32 50-73 0-42-14-75-50-75-39 0-46 34-46 75s6 73 46 73" id="A"/><path fill="#666" d="M115-194c55 1 70 41 70 98S169 2 115 4C84 4 66-9 55-30l1 105H24l-1-265h31l2 30c10-21 28-34 59-34zm-8 174c40 0 45-34 45-75s-6-73-45-74c-42 0-51 32-51 76 0 43 10 73 51 73" id="B"/><path fill="#666" d="M212-179c-10-28-35-45-73-45-59 0-87 40-87 99 0 60 29 101 89 101 43 0 62-24 78-52l27 14C228-24 195 4 139 4 59 4 22-46 18-125c-6-104 99-153 187-111 19 9 31 26 39 46" id="C"/><path fill="#666" d="M100-194c62-1 85 37 85 99 1 63-27 99-86 99S16-35 15-95c0-66 28-99 85-99zM99-20c44 1 53-31 53-75 0-43-8-75-51-75s-53 32-53 75 10 74 51 75" id="D"/><path fill="#666" d="M141 0L90-78 38 0H4l68-98-65-92h35l48 74 47-74h35l-64 92 68 98h-35" id="E"/><g id="d"><use transform="matrix(0.05,0,0,0.05,0,0)" xlink:href="#z"/><use transform="matrix(0.05,0,0,0.05,16.95,0)" xlink:href="#A"/><use transform="matrix(0.05,0,0,0.05,26.950000000000003,0)" xlink:href="#B"/><use transform="matrix(0.05,0,0,0.05,36.95,0)" xlink:href="#l"/><use transform="matrix(0.05,0,0,0.05,46.95,0)" xlink:href="#C"/><use transform="matrix(0.05,0,0,0.05,59.900000000000006,0)" xlink:href="#D"/><use transform="matrix(0.05,0,0,0.05,69.9,0)" xlink:href="#m"/><use transform="matrix(0.05,0,0,0.05,79.9,0)" xlink:href="#n"/><use transform="matrix(0.05,0,0,0.05,84.9,0)" xlink:href="#q"/><use transform="matrix(0.05,0,0,0.05,94.9,0)" xlink:href="#E"/><use transform="matrix(0.05,0,0,0.05,103.9,0)" xlink:href="#n"/></g><g id="e"><use transform="matrix(0.05,0,0,0.05,0,0)" xlink:href="#z"/><use transform="matrix(0.05,0,0,0.05,16.95,0)" xlink:href="#o"/><use transform="matrix(0.05,0,0,0.05,20.9,0)" xlink:href="#m"/><use transform="matrix(0.05,0,0,0.05,30.899999999999995,0)" xlink:href="#t"/><use transform="matrix(0.05,0,0,0.05,40.9,0)" xlink:href="#D"/><use transform="matrix(0.05,0,0,0.05,50.9,0)" xlink:href="#w"/><use transform="matrix(0.05,0,0,0.05,63.85,0)" xlink:href="#r"/><use transform="matrix(0.05,0,0,0.05,75.85,0)" xlink:href="#s"/><use transform="matrix(0.05,0,0,0.05,84.85,0)" xlink:href="#q"/><use transform="matrix(0.05,0,0,0.05,94.85,0)" xlink:href="#m"/><use transform="matrix(0.05,0,0,0.05,104.84999999999998,0)" xlink:href="#n"/></g><g id="f"><use transform="matrix(0.05,0,0,0.05,0,0)" xlink:href="#z"/><use transform="matrix(0.05,0,0,0.05,16.95,0)" xlink:href="#o"/><use transform="matrix(0.05,0,0,0.05,20.9,0)" xlink:href="#m"/><use transform="matrix(0.05,0,0,0.05,30.899999999999995,0)" xlink:href="#t"/><use transform="matrix(0.05,0,0,0.05,40.9,0)" xlink:href="#D"/><use transform="matrix(0.05,0,0,0.05,50.9,0)" xlink:href="#w"/></g><path fill="#666" d="M185-189c-5-48-123-54-124 2 14 75 158 14 163 119 3 78-121 87-175 55-17-10-28-26-33-46l33-7c5 56 141 63 141-1 0-78-155-14-162-118-5-82 145-84 179-34 5 7 8 16 11 25" id="F"/><path fill="#666" d="M96-169c-40 0-48 33-48 73s9 75 48 75c24 0 41-14 43-38l32 2c-6 37-31 61-74 61-59 0-76-41-82-99-10-93 101-131 147-64 4 7 5 14 7 22l-32 3c-4-21-16-35-41-35" id="G"/><g id="g"><use transform="matrix(0.05,0,0,0.05,0,0)" xlink:href="#F"/><use transform="matrix(0.05,0,0,0.05,12,0)" xlink:href="#G"/><use transform="matrix(0.05,0,0,0.05,21,0)" xlink:href="#q"/><use transform="matrix(0.05,0,0,0.05,31,0)" xlink:href="#m"/><use transform="matrix(0.05,0,0,0.05,41,0)" xlink:href="#q"/></g><g id="h"><use transform="matrix(0.05,0,0,0.05,0,0)" xlink:href="#u"/><use transform="matrix(0.05,0,0,0.05,5.95,0)" xlink:href="#q"/><use transform="matrix(0.05,0,0,0.05,15.949999999999998,0)" xlink:href="#m"/><use transform="matrix(0.05,0,0,0.05,25.950000000000003,0)" xlink:href="#t"/><use transform="matrix(0.05,0,0,0.05,35.95,0)" xlink:href="#q"/><use transform="matrix(0.05,0,0,0.05,45.95,0)" xlink:href="#u"/></g><g id="i"><use transform="matrix(0.05,0,0,0.05,0,0)" xlink:href="#w"/><use transform="matrix(0.05,0,0,0.05,12.950000000000001,0)" xlink:href="#o"/><use transform="matrix(0.05,0,0,0.05,16.900000000000002,0)" xlink:href="#m"/><use transform="matrix(0.05,0,0,0.05,26.900000000000002,0)" xlink:href="#o"/><use transform="matrix(0.05,0,0,0.05,30.85,0)" xlink:href="#n"/></g><g id="j"><use transform="matrix(0.05,0,0,0.05,0,0)" xlink:href="#r"/><use transform="matrix(0.05,0,0,0.05,12,0)" xlink:href="#s"/><use transform="matrix(0.05,0,0,0.05,21,0)" xlink:href="#q"/><use transform="matrix(0.05,0,0,0.05,31,0)" xlink:href="#m"/><use transform="matrix(0.05,0,0,0.05,41,0)" xlink:href="#n"/></g></defs></g></svg>