<svg width="1405" height="1097" viewBox="0 0 1405 1097" fill="none" xmlns="http://www.w3.org/2000/svg">
<path d="M928.502 906.999V506.999" stroke="#A4A4A4" stroke-width="5"/>
<path d="M729 707H1129" stroke="#A4A4A4" stroke-width="5"/>
<path d="M414.502 512V112" stroke="#A4A4A4" stroke-width="5"/>
<path d="M215 312.001H615" stroke="#A4A4A4" stroke-width="5"/>
<path d="M512 512V312" stroke="#A4A4A4" stroke-width="5"/>
<path d="M415 415H615" stroke="#A4A4A4" stroke-width="5"/>
<path d="M832 708V508" stroke="#A4A4A4" stroke-width="5"/>
<path d="M729 610H929" stroke="#A4A4A4" stroke-width="5"/>
<path d="M482.817 510.093L456.89 522.787L480.847 538.893L482.817 510.093ZM318.075 759.627L472.338 530.16L468.189 527.371L313.925 756.838L318.075 759.627Z" fill="#2660A4"/>
<path d="M615 940L590 925.566V954.434L615 940ZM310 942.5L592.5 942.5V937.5L310 937.5V942.5Z" fill="black"/>
<path d="M252.85 877.25V864.95L251.05 864.5V864.2H255.25V866C255.45 865.6 255.72 865.23 256.06 864.89C256.34 864.61 256.7 864.35 257.14 864.11C257.58 863.87 258.1 863.75 258.7 863.75C259.46 863.75 260.08 863.89 260.56 864.17C261.06 864.45 261.46 864.76 261.76 865.1C262.12 865.5 262.4 865.95 262.6 866.45C262.86 865.95 263.17 865.5 263.53 865.1C263.85 864.76 264.24 864.45 264.7 864.17C265.16 863.89 265.71 863.75 266.35 863.75C266.95 863.75 267.5 863.86 268 864.08C268.52 864.3 268.97 864.61 269.35 865.01C269.73 865.39 270.02 865.86 270.22 866.42C270.44 866.96 270.55 867.57 270.55 868.25V877.25L272.35 877.7V878H266.5V877.7L268.15 877.25V868.25C268.15 866.83 267.92 865.83 267.46 865.25C267.02 864.65 266.5 864.35 265.9 864.35C265.4 864.35 264.97 864.49 264.61 864.77C264.25 865.05 263.94 865.36 263.68 865.7C263.38 866.1 263.12 866.55 262.9 867.05V877.25L264.55 877.7V878H258.85V877.7L260.5 877.25V868.25C260.5 866.83 260.27 865.83 259.81 865.25C259.37 864.65 258.85 864.35 258.25 864.35C257.75 864.35 257.32 864.49 256.96 864.77C256.6 865.05 256.29 865.36 256.03 865.7C255.73 866.1 255.47 866.55 255.25 867.05V877.25L256.9 877.7V878H251.05V877.7L252.85 877.25ZM280.136 864.2C279.796 864.2 279.446 864.32 279.086 864.56C278.746 864.78 278.426 865.16 278.126 865.7C277.846 866.22 277.606 866.92 277.406 867.8C277.226 868.68 277.136 869.78 277.136 871.1C277.136 872.42 277.226 873.52 277.406 874.4C277.606 875.28 277.846 875.99 278.126 876.53C278.426 877.05 278.746 877.43 279.086 877.67C279.446 877.89 279.796 878 280.136 878C280.476 878 280.816 877.89 281.156 877.67C281.516 877.43 281.836 877.05 282.116 876.53C282.416 875.99 282.656 875.28 282.836 874.4C283.036 873.52 283.136 872.42 283.136 871.1C283.136 869.78 283.036 868.68 282.836 867.8C282.656 866.92 282.416 866.22 282.116 865.7C281.836 865.16 281.516 864.78 281.156 864.56C280.816 864.32 280.476 864.2 280.136 864.2ZM280.136 863.75C280.876 863.75 281.586 863.92 282.266 864.26C282.966 864.58 283.576 865.06 284.096 865.7C284.636 866.32 285.056 867.09 285.356 868.01C285.676 868.91 285.836 869.94 285.836 871.1C285.836 872.26 285.676 873.3 285.356 874.22C285.056 875.12 284.636 875.89 284.096 876.53C283.576 877.15 282.966 877.63 282.266 877.97C281.586 878.29 280.876 878.45 280.136 878.45C279.376 878.45 278.656 878.29 277.976 877.97C277.296 877.63 276.686 877.15 276.146 876.53C275.626 875.89 275.206 875.12 274.886 874.22C274.586 873.3 274.436 872.26 274.436 871.1C274.436 869.94 274.586 868.91 274.886 868.01C275.206 867.09 275.626 866.32 276.146 865.7C276.686 865.06 277.296 864.58 277.976 864.26C278.656 863.92 279.376 863.75 280.136 863.75ZM294.378 864.35C293.958 864.35 293.548 864.47 293.148 864.71C292.768 864.93 292.418 865.3 292.098 865.82C291.798 866.34 291.548 867.03 291.348 867.89C291.168 868.75 291.078 869.82 291.078 871.1C291.078 872.38 291.168 873.45 291.348 874.31C291.548 875.17 291.788 875.87 292.068 876.41C292.368 876.93 292.688 877.3 293.028 877.52C293.388 877.74 293.738 877.85 294.078 877.85C294.558 877.85 294.978 877.71 295.338 877.43C295.718 877.15 296.038 876.84 296.298 876.5C296.598 876.12 296.858 875.67 297.078 875.15V866.15C296.878 865.81 296.648 865.51 296.388 865.25C296.168 865.03 295.888 864.83 295.548 864.65C295.228 864.45 294.838 864.35 294.378 864.35ZM299.478 877.25L301.278 877.7V878H297.078V876.2C296.858 876.62 296.578 877 296.238 877.34C295.958 877.62 295.598 877.87 295.158 878.09C294.738 878.33 294.228 878.45 293.628 878.45C292.988 878.45 292.348 878.29 291.708 877.97C291.088 877.63 290.528 877.15 290.028 876.53C289.548 875.89 289.148 875.12 288.828 874.22C288.528 873.3 288.378 872.26 288.378 871.1C288.378 869.94 288.528 868.91 288.828 868.01C289.148 867.09 289.568 866.32 290.088 865.7C290.608 865.06 291.198 864.58 291.858 864.26C292.518 863.92 293.208 863.75 293.928 863.75C294.488 863.75 294.968 863.83 295.368 863.99C295.768 864.15 296.098 864.32 296.358 864.5C296.658 864.72 296.898 864.97 297.078 865.25V857.75L295.278 857.3V857H299.478V877.25Z" fill="black"/>
<line x1="309.5" y1="768" x2="309.5" y2="903" stroke="black" stroke-dasharray="10 10"/>
<line x1="220" y1="767.5" x2="298" y2="767.5" stroke="black" stroke-dasharray="10 10"/>
<path d="M338.25 758.25L335.25 757.5V757H342.25V760C342.583 759.333 343.033 758.717 343.6 758.15C344.067 757.683 344.667 757.25 345.4 756.85C346.133 756.45 347 756.25 348 756.25C349.067 756.25 350.117 756.533 351.15 757.1C352.217 757.633 353.15 758.433 353.95 759.5C354.783 760.533 355.45 761.817 355.95 763.35C356.483 764.85 356.75 766.567 356.75 768.5C356.75 770.433 356.483 772.167 355.95 773.7C355.45 775.2 354.767 776.483 353.9 777.55C353.033 778.583 352.05 779.383 350.95 779.95C349.85 780.483 348.7 780.75 347.5 780.75C346.533 780.75 345.717 780.617 345.05 780.35C344.417 780.117 343.883 779.833 343.45 779.5C342.95 779.133 342.55 778.717 342.25 778.25V790.75L345.25 791.5V792H335.25V791.5L338.25 790.75V758.25ZM346.75 779.75C347.45 779.75 348.117 779.567 348.75 779.2C349.417 778.833 350 778.217 350.5 777.35C351.033 776.45 351.45 775.283 351.75 773.85C352.083 772.417 352.25 770.633 352.25 768.5C352.25 766.367 352.083 764.583 351.75 763.15C351.45 761.717 351.05 760.567 350.55 759.7C350.083 758.833 349.55 758.217 348.95 757.85C348.383 757.45 347.817 757.25 347.25 757.25C346.417 757.25 345.7 757.483 345.1 757.95C344.5 758.417 343.983 758.933 343.55 759.5C343.05 760.167 342.617 760.917 342.25 761.75V776.75C342.55 777.317 342.917 777.817 343.35 778.25C343.717 778.617 344.183 778.967 344.75 779.3C345.317 779.6 345.983 779.75 346.75 779.75Z" fill="#D02A2A"/>
<path d="M140 1019.68L219.782 901" stroke="#727272" stroke-width="5" stroke-dasharray="10 10"/>
<path d="M303.129 777.562L277.203 790.257L301.16 806.362L303.129 777.562ZM222.075 902.612L292.651 797.629L288.501 794.84L217.925 899.822L222.075 902.612Z" fill="black"/>
<path d="M178 511L163.566 536H192.434L178 511ZM180.5 768L180.5 533.5H175.5L175.5 768H180.5Z" fill="black"/>
<rect x="217.5" y="114.5" width="395" height="395" stroke="#A4A4A4" stroke-width="5"/>
<rect x="217.5" y="509.5" width="395" height="395" stroke="#00A676" stroke-width="5"/>
<circle cx="309.5" cy="767.5" r="12.5" fill="#D30000"/>
<path d="M845.5 43.75L848.5 44.5V45H838.25V44.5L841.25 43.75V11H836C836 12.4 835.717 13.7 835.15 14.9C834.583 16.1 833.867 17.1333 833 18H832.5C832.533 17.5667 832.567 17.1167 832.6 16.65C832.633 16.25 832.667 15.8333 832.7 15.4C832.733 14.9333 832.75 14.4667 832.75 14C832.75 13.3667 832.733 12.8167 832.7 12.35C832.667 11.85 832.633 11.4167 832.6 11.05C832.567 10.65 832.533 10.3 832.5 10H854.25C854.183 10.3 854.133 10.65 854.1 11.05C854.067 11.4167 854.033 11.85 854 12.35C854 12.8167 854 13.3667 854 14C854 14.4667 854 14.9333 854 15.4C854.033 15.8333 854.067 16.25 854.1 16.65C854.133 17.1167 854.183 17.5667 854.25 18H853.75C852.883 17.1333 852.167 16.1 851.6 14.9C851.033 13.7 850.75 12.4 850.75 11H845.5V43.75ZM925.314 35.45L920.314 43.25L923.564 44.5V45H916.064V44.5L919.314 43.25L924.814 34.65L918.314 23.25L915.314 22.5V22H925.564V22.5L922.814 23.25L927.214 30.95L931.814 23.75L928.564 22.5V22H936.064V22.5L932.814 23.75L927.664 31.75L934.564 43.75L937.564 44.5V45H927.314V44.5L930.064 43.75L925.314 35.45ZM966.946 46.36C958.226 46.36 951.106 39.28 951.106 30.52C951.106 21.76 958.226 14.68 966.946 14.68C975.706 14.68 982.786 21.76 982.786 30.52C982.786 39.28 975.706 46.36 966.946 46.36ZM966.946 43.6C974.186 43.6 980.026 37.76 980.026 30.52C980.026 23.28 974.186 17.44 966.946 17.44C959.706 17.44 953.866 23.28 953.866 30.52C953.866 37.76 959.706 43.6 966.946 43.6ZM966.946 34.08C964.986 34.08 963.386 32.48 963.386 30.52C963.386 28.56 964.986 26.96 966.946 26.96C968.906 26.96 970.506 28.56 970.506 30.52C970.506 32.48 968.906 34.08 966.946 34.08ZM1006.42 26.8C1005.86 26.8 1005.31 26.96 1004.78 27.28C1004.27 27.5733 1003.81 28.0667 1003.38 28.76C1002.98 29.4533 1002.65 30.3733 1002.38 31.52C1002.14 32.6667 1002.02 34.0933 1002.02 35.8C1002.02 37.5067 1002.14 38.9333 1002.38 40.08C1002.65 41.2267 1002.97 42.16 1003.34 42.88C1003.74 43.5733 1004.17 44.0667 1004.62 44.36C1005.1 44.6533 1005.57 44.8 1006.02 44.8C1006.66 44.8 1007.22 44.6133 1007.7 44.24C1008.21 43.8667 1008.63 43.4533 1008.98 43C1009.38 42.4933 1009.73 41.8933 1010.02 41.2V29.2C1009.75 28.7467 1009.45 28.3467 1009.1 28C1008.81 27.7067 1008.43 27.44 1007.98 27.2C1007.55 26.9333 1007.03 26.8 1006.42 26.8ZM1013.22 44L1015.62 44.6V45H1010.02V42.6C1009.73 43.16 1009.35 43.6667 1008.9 44.12C1008.53 44.4933 1008.05 44.8267 1007.46 45.12C1006.9 45.44 1006.22 45.6 1005.42 45.6C1004.57 45.6 1003.71 45.3867 1002.86 44.96C1002.03 44.5067 1001.29 43.8667 1000.62 43.04C999.98 42.1867 999.447 41.16 999.02 39.96C998.62 38.7333 998.42 37.3467 998.42 35.8C998.42 34.2533 998.62 32.88 999.02 31.68C999.447 30.4533 1000.01 29.4267 1000.7 28.6C1001.39 27.7467 1002.18 27.1067 1003.06 26.68C1003.94 26.2267 1004.86 26 1005.82 26C1006.57 26 1007.21 26.1067 1007.74 26.32C1008.27 26.5333 1008.71 26.76 1009.06 27C1009.46 27.2933 1009.78 27.6267 1010.02 28V18L1007.62 17.4V17H1013.22V44ZM1020.62 44V27.6L1018.22 27V26.6H1023.82V44L1026.22 44.6V45H1018.22V44.6L1020.62 44ZM1024.02 22C1024.02 22.5067 1023.81 22.9733 1023.38 23.4C1022.98 23.8 1022.53 24 1022.02 24C1021.51 24 1021.05 23.8 1020.62 23.4C1020.22 22.9733 1020.02 22.5067 1020.02 22C1020.02 21.4933 1020.22 21.04 1020.62 20.64C1021.05 20.2133 1021.51 20 1022.02 20C1022.53 20 1022.98 20.2133 1023.38 20.64C1023.81 21.04 1024.02 21.4933 1024.02 22ZM1034.21 44L1036.61 44.6V45H1028.61V44.6L1031.01 44V27.6L1028.61 27V26.6H1034.21V31.4C1034.56 30.4133 1034.97 29.52 1035.45 28.72C1035.88 28.0267 1036.4 27.4 1037.01 26.84C1037.62 26.28 1038.36 26 1039.21 26C1039.5 26 1039.78 26.0267 1040.05 26.08C1040.32 26.1067 1040.56 26.1467 1040.77 26.2C1041.01 26.28 1041.22 26.3467 1041.41 26.4L1040.21 29.4C1040.05 29.32 1039.88 29.2267 1039.69 29.12C1039.53 29.04 1039.33 28.9733 1039.09 28.92C1038.88 28.84 1038.65 28.8 1038.41 28.8C1037.72 28.8 1037.1 28.9867 1036.57 29.36C1036.04 29.7333 1035.6 30.1467 1035.25 30.6C1034.82 31.1333 1034.48 31.7333 1034.21 32.4V44Z" fill="black"/>
<path d="M862.85 57.25V44.95L861.05 44.5V44.2H865.25V46C865.45 45.6 865.72 45.23 866.06 44.89C866.34 44.61 866.7 44.35 867.14 44.11C867.58 43.87 868.1 43.75 868.7 43.75C869.46 43.75 870.08 43.89 870.56 44.17C871.06 44.45 871.46 44.76 871.76 45.1C872.12 45.5 872.4 45.95 872.6 46.45C872.86 45.95 873.17 45.5 873.53 45.1C873.85 44.76 874.24 44.45 874.7 44.17C875.16 43.89 875.71 43.75 876.35 43.75C876.95 43.75 877.5 43.86 878 44.08C878.52 44.3 878.97 44.61 879.35 45.01C879.73 45.39 880.02 45.86 880.22 46.42C880.44 46.96 880.55 47.57 880.55 48.25V57.25L882.35 57.7V58H876.5V57.7L878.15 57.25V48.25C878.15 46.83 877.92 45.83 877.46 45.25C877.02 44.65 876.5 44.35 875.9 44.35C875.4 44.35 874.97 44.49 874.61 44.77C874.25 45.05 873.94 45.36 873.68 45.7C873.38 46.1 873.12 46.55 872.9 47.05V57.25L874.55 57.7V58H868.85V57.7L870.5 57.25V48.25C870.5 46.83 870.27 45.83 869.81 45.25C869.37 44.65 868.85 44.35 868.25 44.35C867.75 44.35 867.32 44.49 866.96 44.77C866.6 45.05 866.29 45.36 866.03 45.7C865.73 46.1 865.47 46.55 865.25 47.05V57.25L866.9 57.7V58H861.05V57.7L862.85 57.25ZM892.086 50.65C890.346 50.65 889.056 51.04 888.216 51.82C887.396 52.58 886.986 53.64 886.986 55C886.986 55.9 887.206 56.6 887.646 57.1C888.086 57.6 888.566 57.85 889.086 57.85C889.566 57.85 889.986 57.71 890.346 57.43C890.726 57.15 891.046 56.84 891.306 56.5C891.606 56.12 891.866 55.67 892.086 55.15V50.65ZM889.836 44.2C889.236 44.2 888.736 44.41 888.336 44.83C887.936 45.23 887.736 45.77 887.736 46.45C887.736 46.61 887.736 46.75 887.736 46.87C887.756 46.99 887.776 47.1 887.796 47.2C887.816 47.3 887.846 47.4 887.886 47.5L885.486 48.1C885.446 48.04 885.416 47.96 885.396 47.86C885.376 47.76 885.356 47.65 885.336 47.53C885.336 47.41 885.336 47.25 885.336 47.05C885.336 46.63 885.436 46.23 885.636 45.85C885.836 45.45 886.126 45.1 886.506 44.8C886.906 44.48 887.376 44.23 887.916 44.05C888.476 43.85 889.116 43.75 889.836 43.75C891.276 43.75 892.406 44.16 893.226 44.98C894.066 45.8 894.486 46.89 894.486 48.25V57.25L896.286 57.7V58H892.086V56.2C891.866 56.62 891.586 57 891.246 57.34C890.966 57.62 890.606 57.87 890.166 58.09C889.746 58.33 889.236 58.45 888.636 58.45C887.196 58.45 886.106 58.11 885.366 57.43C884.646 56.75 884.286 55.84 884.286 54.7C884.286 54.14 884.436 53.58 884.736 53.02C885.056 52.46 885.526 51.96 886.146 51.52C886.786 51.08 887.596 50.73 888.576 50.47C889.556 50.19 890.726 50.05 892.086 50.05V48.25C892.086 46.75 891.856 45.7 891.396 45.1C890.956 44.5 890.436 44.2 889.836 44.2ZM902.731 52.27L899.731 56.95L901.681 57.7V58H897.181V57.7L899.131 56.95L902.431 51.79L898.531 44.95L896.731 44.5V44.2H902.881V44.5L901.231 44.95L903.871 49.57L906.631 45.25L904.681 44.5V44.2H909.181V44.5L907.231 45.25L904.141 50.05L908.281 57.25L910.081 57.7V58H903.931V57.7L905.581 57.25L902.731 52.27Z" fill="black"/>
<path d="M993.85 471.25V458.95L992.05 458.5V458.2H996.25V460C996.45 459.6 996.72 459.23 997.06 458.89C997.34 458.61 997.7 458.35 998.14 458.11C998.58 457.87 999.1 457.75 999.7 457.75C1000.46 457.75 1001.08 457.89 1001.56 458.17C1002.06 458.45 1002.46 458.76 1002.76 459.1C1003.12 459.5 1003.4 459.95 1003.6 460.45C1003.86 459.95 1004.17 459.5 1004.53 459.1C1004.85 458.76 1005.24 458.45 1005.7 458.17C1006.16 457.89 1006.71 457.75 1007.35 457.75C1007.95 457.75 1008.5 457.86 1009 458.08C1009.52 458.3 1009.97 458.61 1010.35 459.01C1010.73 459.39 1011.02 459.86 1011.22 460.42C1011.44 460.96 1011.55 461.57 1011.55 462.25V471.25L1013.35 471.7V472H1007.5V471.7L1009.15 471.25V462.25C1009.15 460.83 1008.92 459.83 1008.46 459.25C1008.02 458.65 1007.5 458.35 1006.9 458.35C1006.4 458.35 1005.97 458.49 1005.61 458.77C1005.25 459.05 1004.94 459.36 1004.68 459.7C1004.38 460.1 1004.12 460.55 1003.9 461.05V471.25L1005.55 471.7V472H999.85V471.7L1001.5 471.25V462.25C1001.5 460.83 1001.27 459.83 1000.81 459.25C1000.37 458.65 999.85 458.35 999.25 458.35C998.75 458.35 998.32 458.49 997.96 458.77C997.6 459.05 997.29 459.36 997.03 459.7C996.73 460.1 996.47 460.55 996.25 461.05V471.25L997.9 471.7V472H992.05V471.7L993.85 471.25ZM1023.09 464.65C1021.35 464.65 1020.06 465.04 1019.22 465.82C1018.4 466.58 1017.99 467.64 1017.99 469C1017.99 469.9 1018.21 470.6 1018.65 471.1C1019.09 471.6 1019.57 471.85 1020.09 471.85C1020.57 471.85 1020.99 471.71 1021.35 471.43C1021.73 471.15 1022.05 470.84 1022.31 470.5C1022.61 470.12 1022.87 469.67 1023.09 469.15V464.65ZM1020.84 458.2C1020.24 458.2 1019.74 458.41 1019.34 458.83C1018.94 459.23 1018.74 459.77 1018.74 460.45C1018.74 460.61 1018.74 460.75 1018.74 460.87C1018.76 460.99 1018.78 461.1 1018.8 461.2C1018.82 461.3 1018.85 461.4 1018.89 461.5L1016.49 462.1C1016.45 462.04 1016.42 461.96 1016.4 461.86C1016.38 461.76 1016.36 461.65 1016.34 461.53C1016.34 461.41 1016.34 461.25 1016.34 461.05C1016.34 460.63 1016.44 460.23 1016.64 459.85C1016.84 459.45 1017.13 459.1 1017.51 458.8C1017.91 458.48 1018.38 458.23 1018.92 458.05C1019.48 457.85 1020.12 457.75 1020.84 457.75C1022.28 457.75 1023.41 458.16 1024.23 458.98C1025.07 459.8 1025.49 460.89 1025.49 462.25V471.25L1027.29 471.7V472H1023.09V470.2C1022.87 470.62 1022.59 471 1022.25 471.34C1021.97 471.62 1021.61 471.87 1021.17 472.09C1020.75 472.33 1020.24 472.45 1019.64 472.45C1018.2 472.45 1017.11 472.11 1016.37 471.43C1015.65 470.75 1015.29 469.84 1015.29 468.7C1015.29 468.14 1015.44 467.58 1015.74 467.02C1016.06 466.46 1016.53 465.96 1017.15 465.52C1017.79 465.08 1018.6 464.73 1019.58 464.47C1020.56 464.19 1021.73 464.05 1023.09 464.05V462.25C1023.09 460.75 1022.86 459.7 1022.4 459.1C1021.96 458.5 1021.44 458.2 1020.84 458.2ZM1033.73 466.27L1030.73 470.95L1032.68 471.7V472H1028.18V471.7L1030.13 470.95L1033.43 465.79L1029.53 458.95L1027.73 458.5V458.2H1033.88V458.5L1032.23 458.95L1034.87 463.57L1037.63 459.25L1035.68 458.5V458.2H1040.18V458.5L1038.23 459.25L1035.14 464.05L1039.28 471.25L1041.08 471.7V472H1034.93V471.7L1036.58 471.25L1033.73 466.27Z" fill="#2660A4"/>
<path d="M920.04 459.2V446.08L918.12 445.6V445.28H922.6V447.2C922.813 446.773 923.101 446.379 923.464 446.016C923.763 445.717 924.147 445.44 924.616 445.184C925.085 444.928 925.64 444.8 926.28 444.8C927.091 444.8 927.752 444.949 928.264 445.248C928.797 445.547 929.224 445.877 929.544 446.24C929.928 446.667 930.227 447.147 930.44 447.68C930.717 447.147 931.048 446.667 931.432 446.24C931.773 445.877 932.189 445.547 932.68 445.248C933.171 444.949 933.757 444.8 934.44 444.8C935.08 444.8 935.667 444.917 936.2 445.152C936.755 445.387 937.235 445.717 937.64 446.144C938.045 446.549 938.355 447.051 938.568 447.648C938.803 448.224 938.92 448.875 938.92 449.6V459.2L940.84 459.68V460H934.6V459.68L936.36 459.2V449.6C936.36 448.085 936.115 447.019 935.624 446.4C935.155 445.76 934.6 445.44 933.96 445.44C933.427 445.44 932.968 445.589 932.584 445.888C932.2 446.187 931.869 446.517 931.592 446.88C931.272 447.307 930.995 447.787 930.76 448.32V459.2L932.52 459.68V460H926.44V459.68L928.2 459.2V449.6C928.2 448.085 927.955 447.019 927.464 446.4C926.995 445.76 926.44 445.44 925.8 445.44C925.267 445.44 924.808 445.589 924.424 445.888C924.04 446.187 923.709 446.517 923.432 446.88C923.112 447.307 922.835 447.787 922.6 448.32V459.2L924.36 459.68V460H918.12V459.68L920.04 459.2ZM944.665 459.2V446.08L942.745 445.6V445.28H947.225V459.2L949.145 459.68V460H942.745V459.68L944.665 459.2ZM947.385 441.6C947.385 442.005 947.214 442.379 946.873 442.72C946.553 443.04 946.19 443.2 945.785 443.2C945.38 443.2 945.006 443.04 944.665 442.72C944.345 442.379 944.185 442.005 944.185 441.6C944.185 441.195 944.345 440.832 944.665 440.512C945.006 440.171 945.38 440 945.785 440C946.19 440 946.553 440.171 946.873 440.512C947.214 440.832 947.385 441.195 947.385 441.6ZM952.978 459.2V446.08L951.058 445.6V445.28H955.538V447.2C955.751 446.773 956.039 446.379 956.402 446.016C956.7 445.717 957.084 445.44 957.554 445.184C958.023 444.928 958.578 444.8 959.218 444.8C959.858 444.8 960.444 444.917 960.978 445.152C961.532 445.387 962.012 445.717 962.418 446.144C962.823 446.549 963.132 447.051 963.346 447.648C963.58 448.224 963.698 448.875 963.698 449.6V459.2L965.618 459.68V460H959.378V459.68L961.138 459.2V449.6C961.138 448.085 960.892 447.019 960.402 446.4C959.932 445.76 959.378 445.44 958.738 445.44C958.204 445.44 957.746 445.589 957.362 445.888C956.978 446.187 956.647 446.517 956.37 446.88C956.05 447.307 955.772 447.787 955.538 448.32V459.2L957.298 459.68V460H951.058V459.68L952.978 459.2ZM987.616 459L990.016 459.6V460H981.816V459.6L984.216 459V432.8H980.016C980.016 433.92 979.789 434.96 979.336 435.92C978.882 436.88 978.309 437.707 977.616 438.4H977.216C977.242 438.053 977.269 437.693 977.296 437.32C977.322 437 977.349 436.667 977.376 436.32C977.402 435.947 977.416 435.573 977.416 435.2C977.416 434.693 977.402 434.253 977.376 433.88C977.349 433.48 977.322 433.133 977.296 432.84C977.269 432.52 977.242 432.24 977.216 432H994.616C994.562 432.24 994.522 432.52 994.496 432.84C994.469 433.133 994.442 433.48 994.416 433.88C994.416 434.253 994.416 434.693 994.416 435.2C994.416 435.573 994.416 435.947 994.416 436.32C994.442 436.667 994.469 437 994.496 437.32C994.522 437.693 994.562 438.053 994.616 438.4H994.216C993.522 437.707 992.949 436.88 992.496 435.92C992.042 434.96 991.816 433.92 991.816 432.8H987.616V459ZM1058.17 461.088C1051.2 461.088 1045.5 455.424 1045.5 448.416C1045.5 441.408 1051.2 435.744 1058.17 435.744C1065.18 435.744 1070.84 441.408 1070.84 448.416C1070.84 455.424 1065.18 461.088 1058.17 461.088ZM1058.17 458.88C1063.96 458.88 1068.64 454.208 1068.64 448.416C1068.64 442.624 1063.96 437.952 1058.17 437.952C1052.38 437.952 1047.71 442.624 1047.71 448.416C1047.71 454.208 1052.38 458.88 1058.17 458.88ZM1058.17 451.264C1056.6 451.264 1055.32 449.984 1055.32 448.416C1055.32 446.848 1056.6 445.568 1058.17 445.568C1059.74 445.568 1061.02 446.848 1061.02 448.416C1061.02 449.984 1059.74 451.264 1058.17 451.264ZM1089.75 445.44C1089.3 445.44 1088.86 445.568 1088.44 445.824C1088.03 446.059 1087.66 446.453 1087.32 447.008C1087 447.563 1086.73 448.299 1086.52 449.216C1086.33 450.133 1086.23 451.275 1086.23 452.64C1086.23 454.005 1086.33 455.147 1086.52 456.064C1086.73 456.981 1086.99 457.728 1087.29 458.304C1087.61 458.859 1087.95 459.253 1088.31 459.488C1088.69 459.723 1089.07 459.84 1089.43 459.84C1089.94 459.84 1090.39 459.691 1090.77 459.392C1091.18 459.093 1091.52 458.763 1091.8 458.4C1092.12 457.995 1092.4 457.515 1092.63 456.96V447.36C1092.42 446.997 1092.17 446.677 1091.89 446.4C1091.66 446.165 1091.36 445.952 1091 445.76C1090.66 445.547 1090.24 445.44 1089.75 445.44ZM1095.19 459.2L1097.11 459.68V460H1092.63V458.08C1092.4 458.528 1092.1 458.933 1091.73 459.296C1091.44 459.595 1091.05 459.861 1090.58 460.096C1090.13 460.352 1089.59 460.48 1088.95 460.48C1088.27 460.48 1087.58 460.309 1086.9 459.968C1086.24 459.605 1085.64 459.093 1085.11 458.432C1084.6 457.749 1084.17 456.928 1083.83 455.968C1083.51 454.987 1083.35 453.877 1083.35 452.64C1083.35 451.403 1083.51 450.304 1083.83 449.344C1084.17 448.363 1084.62 447.541 1085.17 446.88C1085.73 446.197 1086.36 445.685 1087.06 445.344C1087.77 444.981 1088.5 444.8 1089.27 444.8C1089.87 444.8 1090.38 444.885 1090.81 445.056C1091.23 445.227 1091.58 445.408 1091.86 445.6C1092.18 445.835 1092.44 446.101 1092.63 446.4V438.4L1090.71 437.92V437.6H1095.19V459.2ZM1101.11 459.2V446.08L1099.19 445.6V445.28H1103.67V459.2L1105.59 459.68V460H1099.19V459.68L1101.11 459.2ZM1103.83 441.6C1103.83 442.005 1103.66 442.379 1103.32 442.72C1103 443.04 1102.64 443.2 1102.23 443.2C1101.82 443.2 1101.45 443.04 1101.11 442.72C1100.79 442.379 1100.63 442.005 1100.63 441.6C1100.63 441.195 1100.79 440.832 1101.11 440.512C1101.45 440.171 1101.82 440 1102.23 440C1102.64 440 1103 440.171 1103.32 440.512C1103.66 440.832 1103.83 441.195 1103.83 441.6ZM1111.98 459.2L1113.9 459.68V460H1107.5V459.68L1109.42 459.2V446.08L1107.5 445.6V445.28H1111.98V449.12C1112.26 448.331 1112.59 447.616 1112.97 446.976C1113.32 446.421 1113.73 445.92 1114.22 445.472C1114.71 445.024 1115.3 444.8 1115.98 444.8C1116.22 444.8 1116.44 444.821 1116.65 444.864C1116.87 444.885 1117.06 444.917 1117.23 444.96C1117.42 445.024 1117.59 445.077 1117.74 445.12L1116.78 447.52C1116.65 447.456 1116.52 447.381 1116.37 447.296C1116.24 447.232 1116.08 447.179 1115.89 447.136C1115.72 447.072 1115.53 447.04 1115.34 447.04C1114.79 447.04 1114.3 447.189 1113.87 447.488C1113.44 447.787 1113.09 448.117 1112.81 448.48C1112.47 448.907 1112.2 449.387 1111.98 449.92V459.2Z" fill="#2660A4"/>
<path d="M732 71L757 85.4338V56.5662L732 71ZM754.5 73.5L1058 73.5V68.5L754.5 68.5V73.5Z" fill="black"/>
<line x1="1059.5" y1="117" x2="1059.5" y2="201" stroke="black" stroke-dasharray="10 10"/>
<path d="M1070.25 256.25L1067.25 255.5V255H1074.25V258C1074.58 257.333 1075.03 256.717 1075.6 256.15C1076.07 255.683 1076.67 255.25 1077.4 254.85C1078.13 254.45 1079 254.25 1080 254.25C1081.07 254.25 1082.12 254.533 1083.15 255.1C1084.22 255.633 1085.15 256.433 1085.95 257.5C1086.78 258.533 1087.45 259.817 1087.95 261.35C1088.48 262.85 1088.75 264.567 1088.75 266.5C1088.75 268.433 1088.48 270.167 1087.95 271.7C1087.45 273.2 1086.77 274.483 1085.9 275.55C1085.03 276.583 1084.05 277.383 1082.95 277.95C1081.85 278.483 1080.7 278.75 1079.5 278.75C1078.53 278.75 1077.72 278.617 1077.05 278.35C1076.42 278.117 1075.88 277.833 1075.45 277.5C1074.95 277.133 1074.55 276.717 1074.25 276.25V288.75L1077.25 289.5V290H1067.25V289.5L1070.25 288.75V256.25ZM1078.75 277.75C1079.45 277.75 1080.12 277.567 1080.75 277.2C1081.42 276.833 1082 276.217 1082.5 275.35C1083.03 274.45 1083.45 273.283 1083.75 271.85C1084.08 270.417 1084.25 268.633 1084.25 266.5C1084.25 264.367 1084.08 262.583 1083.75 261.15C1083.45 259.717 1083.05 258.567 1082.55 257.7C1082.08 256.833 1081.55 256.217 1080.95 255.85C1080.38 255.45 1079.82 255.25 1079.25 255.25C1078.42 255.25 1077.7 255.483 1077.1 255.95C1076.5 256.417 1075.98 256.933 1075.55 257.5C1075.05 258.167 1074.62 258.917 1074.25 259.75V274.75C1074.55 275.317 1074.92 275.817 1075.35 276.25C1075.72 276.617 1076.18 276.967 1076.75 277.3C1077.32 277.6 1077.98 277.75 1078.75 277.75Z" fill="#D02A2A"/>
<path d="M789.85 479.25V466.95L788.05 466.5V466.2H792.25V468C792.45 467.6 792.72 467.23 793.06 466.89C793.34 466.61 793.7 466.35 794.14 466.11C794.58 465.87 795.1 465.75 795.7 465.75C796.46 465.75 797.08 465.89 797.56 466.17C798.06 466.45 798.46 466.76 798.76 467.1C799.12 467.5 799.4 467.95 799.6 468.45C799.86 467.95 800.17 467.5 800.53 467.1C800.85 466.76 801.24 466.45 801.7 466.17C802.16 465.89 802.71 465.75 803.35 465.75C803.95 465.75 804.5 465.86 805 466.08C805.52 466.3 805.97 466.61 806.35 467.01C806.73 467.39 807.02 467.86 807.22 468.42C807.44 468.96 807.55 469.57 807.55 470.25V479.25L809.35 479.7V480H803.5V479.7L805.15 479.25V470.25C805.15 468.83 804.92 467.83 804.46 467.25C804.02 466.65 803.5 466.35 802.9 466.35C802.4 466.35 801.97 466.49 801.61 466.77C801.25 467.05 800.94 467.36 800.68 467.7C800.38 468.1 800.12 468.55 799.9 469.05V479.25L801.55 479.7V480H795.85V479.7L797.5 479.25V470.25C797.5 468.83 797.27 467.83 796.81 467.25C796.37 466.65 795.85 466.35 795.25 466.35C794.75 466.35 794.32 466.49 793.96 466.77C793.6 467.05 793.29 467.36 793.03 467.7C792.73 468.1 792.47 468.55 792.25 469.05V479.25L793.9 479.7V480H788.05V479.7L789.85 479.25ZM817.136 466.2C816.796 466.2 816.446 466.32 816.086 466.56C815.746 466.78 815.426 467.16 815.126 467.7C814.846 468.22 814.606 468.92 814.406 469.8C814.226 470.68 814.136 471.78 814.136 473.1C814.136 474.42 814.226 475.52 814.406 476.4C814.606 477.28 814.846 477.99 815.126 478.53C815.426 479.05 815.746 479.43 816.086 479.67C816.446 479.89 816.796 480 817.136 480C817.476 480 817.816 479.89 818.156 479.67C818.516 479.43 818.836 479.05 819.116 478.53C819.416 477.99 819.656 477.28 819.836 476.4C820.036 475.52 820.136 474.42 820.136 473.1C820.136 471.78 820.036 470.68 819.836 469.8C819.656 468.92 819.416 468.22 819.116 467.7C818.836 467.16 818.516 466.78 818.156 466.56C817.816 466.32 817.476 466.2 817.136 466.2ZM817.136 465.75C817.876 465.75 818.586 465.92 819.266 466.26C819.966 466.58 820.576 467.06 821.096 467.7C821.636 468.32 822.056 469.09 822.356 470.01C822.676 470.91 822.836 471.94 822.836 473.1C822.836 474.26 822.676 475.3 822.356 476.22C822.056 477.12 821.636 477.89 821.096 478.53C820.576 479.15 819.966 479.63 819.266 479.97C818.586 480.29 817.876 480.45 817.136 480.45C816.376 480.45 815.656 480.29 814.976 479.97C814.296 479.63 813.686 479.15 813.146 478.53C812.626 477.89 812.206 477.12 811.886 476.22C811.586 475.3 811.436 474.26 811.436 473.1C811.436 471.94 811.586 470.91 811.886 470.01C812.206 469.09 812.626 468.32 813.146 467.7C813.686 467.06 814.296 466.58 814.976 466.26C815.656 465.92 816.376 465.75 817.136 465.75ZM831.378 466.35C830.958 466.35 830.548 466.47 830.148 466.71C829.768 466.93 829.418 467.3 829.098 467.82C828.798 468.34 828.548 469.03 828.348 469.89C828.168 470.75 828.078 471.82 828.078 473.1C828.078 474.38 828.168 475.45 828.348 476.31C828.548 477.17 828.788 477.87 829.068 478.41C829.368 478.93 829.688 479.3 830.028 479.52C830.388 479.74 830.738 479.85 831.078 479.85C831.558 479.85 831.978 479.71 832.338 479.43C832.718 479.15 833.038 478.84 833.298 478.5C833.598 478.12 833.858 477.67 834.078 477.15V468.15C833.878 467.81 833.648 467.51 833.388 467.25C833.168 467.03 832.888 466.83 832.548 466.65C832.228 466.45 831.838 466.35 831.378 466.35ZM836.478 479.25L838.278 479.7V480H834.078V478.2C833.858 478.62 833.578 479 833.238 479.34C832.958 479.62 832.598 479.87 832.158 480.09C831.738 480.33 831.228 480.45 830.628 480.45C829.988 480.45 829.348 480.29 828.708 479.97C828.088 479.63 827.528 479.15 827.028 478.53C826.548 477.89 826.148 477.12 825.828 476.22C825.528 475.3 825.378 474.26 825.378 473.1C825.378 471.94 825.528 470.91 825.828 470.01C826.148 469.09 826.568 468.32 827.088 467.7C827.608 467.06 828.198 466.58 828.858 466.26C829.518 465.92 830.208 465.75 830.928 465.75C831.488 465.75 831.968 465.83 832.368 465.99C832.768 466.15 833.098 466.32 833.358 466.5C833.658 466.72 833.898 466.97 834.078 467.25V459.75L832.278 459.3V459H836.478V479.25Z" fill="black"/>
<path d="M1050.31 221.749L1022.09 227.796L1041.44 249.218L1050.31 221.749ZM730.676 513.855L1035.29 238.686L1031.94 234.976L727.324 510.145L730.676 513.855Z" fill="#271212"/>
<rect x="731.5" y="509.5" width="395" height="395" stroke="#A4A4A4" stroke-width="5"/>
<rect x="731.5" y="114.5" width="395" height="395" stroke="#00A676" stroke-width="5"/>
<path d="M1055 221.217L1182.2 32" stroke="#727272" stroke-width="5" stroke-dasharray="10 10"/>
<path d="M733 699.047L758.926 686.352L734.969 670.246L733 699.047ZM743.786 687.484L749.593 678.845L745.444 676.056L739.636 684.694L743.786 687.484ZM755.401 670.207L761.208 661.568L757.058 658.779L751.251 667.417L755.401 670.207ZM767.015 652.93L772.823 644.291L768.673 641.502L762.866 650.14L767.015 652.93ZM778.63 635.653L784.438 627.014L780.288 624.225L774.481 632.863L778.63 635.653ZM790.245 618.376L796.052 609.737L791.903 606.948L786.095 615.586L790.245 618.376ZM801.86 601.099L807.667 592.46L803.518 589.671L797.71 598.309L801.86 601.099ZM813.474 583.822L819.282 575.183L815.132 572.394L809.325 581.032L813.474 583.822ZM825.089 566.545L830.897 557.906L826.747 555.117L820.94 563.755L825.089 566.545ZM836.704 549.268L842.511 540.63L838.362 537.84L832.554 546.478L836.704 549.268ZM848.319 531.991L854.126 523.353L849.977 520.563L844.169 529.201L848.319 531.991ZM859.934 514.714L862.837 510.395L858.688 507.605L855.784 511.924L859.934 514.714Z" fill="#727272"/>
<path d="M859 511.573L884.926 498.878L860.969 482.772L859 511.573ZM873.628 494.295L1065.83 208.395L1061.68 205.605L869.478 491.505L873.628 494.295Z" fill="#2660A4"/>
<circle cx="1059.5" cy="213.5" r="12.5" fill="#D30000"/>
<path d="M93 995L81.453 1015H104.547L93 995ZM95 1080L95 1013H91L91 1080H95Z" fill="black"/>
<path d="M176 1078L156 1066.45V1089.55L176 1078ZM91 1080H158V1076H91V1080Z" fill="black"/>
<path d="M1192.5 249.75L1195.5 250.5V251H1185.25V250.5L1188.25 249.75V217H1183C1183 218.4 1182.72 219.7 1182.15 220.9C1181.58 222.1 1180.87 223.133 1180 224H1179.5C1179.53 223.567 1179.57 223.117 1179.6 222.65C1179.63 222.25 1179.67 221.833 1179.7 221.4C1179.73 220.933 1179.75 220.467 1179.75 220C1179.75 219.367 1179.73 218.817 1179.7 218.35C1179.67 217.85 1179.63 217.417 1179.6 217.05C1179.57 216.65 1179.53 216.3 1179.5 216H1201.25C1201.18 216.3 1201.13 216.65 1201.1 217.05C1201.07 217.417 1201.03 217.85 1201 218.35C1201 218.817 1201 219.367 1201 220C1201 220.467 1201 220.933 1201 221.4C1201.03 221.833 1201.07 222.25 1201.1 222.65C1201.13 223.117 1201.18 223.567 1201.25 224H1200.75C1199.88 223.133 1199.17 222.1 1198.6 220.9C1198.03 219.7 1197.75 218.4 1197.75 217H1192.5V249.75ZM1273.56 255.25C1273.03 256.817 1272.51 258.117 1272.01 259.15C1271.51 260.217 1270.98 261.067 1270.41 261.7C1269.88 262.367 1269.31 262.833 1268.71 263.1C1268.15 263.367 1267.51 263.5 1266.81 263.5C1266.61 263.5 1266.43 263.483 1266.26 263.45C1266.1 263.45 1265.93 263.433 1265.76 263.4C1265.6 263.367 1265.45 263.317 1265.31 263.25L1264.56 259.5C1264.7 259.567 1264.85 259.617 1265.01 259.65C1265.18 259.683 1265.35 259.7 1265.51 259.7C1265.68 259.733 1265.86 259.75 1266.06 259.75C1268.06 259.75 1269.51 259.367 1270.41 258.6C1271.35 257.867 1272.06 256.75 1272.56 255.25L1273.96 251L1265.31 229.25L1262.31 228.5V228H1272.31V228.5L1269.56 229.25L1275.91 245.2L1281.06 229.75L1277.81 228.5V228H1285.31V228.5L1282.06 229.75L1273.56 255.25ZM1314.43 252.36C1305.71 252.36 1298.59 245.28 1298.59 236.52C1298.59 227.76 1305.71 220.68 1314.43 220.68C1323.19 220.68 1330.27 227.76 1330.27 236.52C1330.27 245.28 1323.19 252.36 1314.43 252.36ZM1314.43 249.6C1321.67 249.6 1327.51 243.76 1327.51 236.52C1327.51 229.28 1321.67 223.44 1314.43 223.44C1307.19 223.44 1301.35 229.28 1301.35 236.52C1301.35 243.76 1307.19 249.6 1314.43 249.6ZM1314.43 240.08C1312.47 240.08 1310.87 238.48 1310.87 236.52C1310.87 234.56 1312.47 232.96 1314.43 232.96C1316.39 232.96 1317.99 234.56 1317.99 236.52C1317.99 238.48 1316.39 240.08 1314.43 240.08ZM1353.91 232.8C1353.35 232.8 1352.8 232.96 1352.27 233.28C1351.76 233.573 1351.3 234.067 1350.87 234.76C1350.47 235.453 1350.14 236.373 1349.87 237.52C1349.63 238.667 1349.51 240.093 1349.51 241.8C1349.51 243.507 1349.63 244.933 1349.87 246.08C1350.14 247.227 1350.46 248.16 1350.83 248.88C1351.23 249.573 1351.66 250.067 1352.11 250.36C1352.59 250.653 1353.06 250.8 1353.51 250.8C1354.15 250.8 1354.71 250.613 1355.19 250.24C1355.7 249.867 1356.12 249.453 1356.47 249C1356.87 248.493 1357.22 247.893 1357.51 247.2V235.2C1357.24 234.747 1356.94 234.347 1356.59 234C1356.3 233.707 1355.92 233.44 1355.47 233.2C1355.04 232.933 1354.52 232.8 1353.91 232.8ZM1360.71 250L1363.11 250.6V251H1357.51V248.6C1357.22 249.16 1356.84 249.667 1356.39 250.12C1356.02 250.493 1355.54 250.827 1354.95 251.12C1354.39 251.44 1353.71 251.6 1352.91 251.6C1352.06 251.6 1351.2 251.387 1350.35 250.96C1349.52 250.507 1348.78 249.867 1348.11 249.04C1347.47 248.187 1346.94 247.16 1346.51 245.96C1346.11 244.733 1345.91 243.347 1345.91 241.8C1345.91 240.253 1346.11 238.88 1346.51 237.68C1346.94 236.453 1347.5 235.427 1348.19 234.6C1348.88 233.747 1349.67 233.107 1350.55 232.68C1351.43 232.227 1352.35 232 1353.31 232C1354.06 232 1354.7 232.107 1355.23 232.32C1355.76 232.533 1356.2 232.76 1356.55 233C1356.95 233.293 1357.27 233.627 1357.51 234V224L1355.11 223.4V223H1360.71V250ZM1368.11 250V233.6L1365.71 233V232.6H1371.31V250L1373.71 250.6V251H1365.71V250.6L1368.11 250ZM1371.51 228C1371.51 228.507 1371.3 228.973 1370.87 229.4C1370.47 229.8 1370.02 230 1369.51 230C1369 230 1368.54 229.8 1368.11 229.4C1367.71 228.973 1367.51 228.507 1367.51 228C1367.51 227.493 1367.71 227.04 1368.11 226.64C1368.54 226.213 1369 226 1369.51 226C1370.02 226 1370.47 226.213 1370.87 226.64C1371.3 227.04 1371.51 227.493 1371.51 228ZM1381.7 250L1384.1 250.6V251H1376.1V250.6L1378.5 250V233.6L1376.1 233V232.6H1381.7V237.4C1382.05 236.413 1382.46 235.52 1382.94 234.72C1383.37 234.027 1383.89 233.4 1384.5 232.84C1385.11 232.28 1385.85 232 1386.7 232C1386.99 232 1387.27 232.027 1387.54 232.08C1387.81 232.107 1388.05 232.147 1388.26 232.2C1388.5 232.28 1388.71 232.347 1388.9 232.4L1387.7 235.4C1387.54 235.32 1387.37 235.227 1387.18 235.12C1387.02 235.04 1386.82 234.973 1386.58 234.92C1386.37 234.84 1386.14 234.8 1385.9 234.8C1385.21 234.8 1384.59 234.987 1384.06 235.36C1383.53 235.733 1383.09 236.147 1382.74 236.6C1382.31 237.133 1381.97 237.733 1381.7 238.4V250Z" fill="black"/>
<path d="M1205.85 265.25V252.95L1204.05 252.5V252.2H1208.25V254C1208.45 253.6 1208.72 253.23 1209.06 252.89C1209.34 252.61 1209.7 252.35 1210.14 252.11C1210.58 251.87 1211.1 251.75 1211.7 251.75C1212.46 251.75 1213.08 251.89 1213.56 252.17C1214.06 252.45 1214.46 252.76 1214.76 253.1C1215.12 253.5 1215.4 253.95 1215.6 254.45C1215.86 253.95 1216.17 253.5 1216.53 253.1C1216.85 252.76 1217.24 252.45 1217.7 252.17C1218.16 251.89 1218.71 251.75 1219.35 251.75C1219.95 251.75 1220.5 251.86 1221 252.08C1221.52 252.3 1221.97 252.61 1222.35 253.01C1222.73 253.39 1223.02 253.86 1223.22 254.42C1223.44 254.96 1223.55 255.57 1223.55 256.25V265.25L1225.35 265.7V266H1219.5V265.7L1221.15 265.25V256.25C1221.15 254.83 1220.92 253.83 1220.46 253.25C1220.02 252.65 1219.5 252.35 1218.9 252.35C1218.4 252.35 1217.97 252.49 1217.61 252.77C1217.25 253.05 1216.94 253.36 1216.68 253.7C1216.38 254.1 1216.12 254.55 1215.9 255.05V265.25L1217.55 265.7V266H1211.85V265.7L1213.5 265.25V256.25C1213.5 254.83 1213.27 253.83 1212.81 253.25C1212.37 252.65 1211.85 252.35 1211.25 252.35C1210.75 252.35 1210.32 252.49 1209.96 252.77C1209.6 253.05 1209.29 253.36 1209.03 253.7C1208.73 254.1 1208.47 254.55 1208.25 255.05V265.25L1209.9 265.7V266H1204.05V265.7L1205.85 265.25ZM1235.09 258.65C1233.35 258.65 1232.06 259.04 1231.22 259.82C1230.4 260.58 1229.99 261.64 1229.99 263C1229.99 263.9 1230.21 264.6 1230.65 265.1C1231.09 265.6 1231.57 265.85 1232.09 265.85C1232.57 265.85 1232.99 265.71 1233.35 265.43C1233.73 265.15 1234.05 264.84 1234.31 264.5C1234.61 264.12 1234.87 263.67 1235.09 263.15V258.65ZM1232.84 252.2C1232.24 252.2 1231.74 252.41 1231.34 252.83C1230.94 253.23 1230.74 253.77 1230.74 254.45C1230.74 254.61 1230.74 254.75 1230.74 254.87C1230.76 254.99 1230.78 255.1 1230.8 255.2C1230.82 255.3 1230.85 255.4 1230.89 255.5L1228.49 256.1C1228.45 256.04 1228.42 255.96 1228.4 255.86C1228.38 255.76 1228.36 255.65 1228.34 255.53C1228.34 255.41 1228.34 255.25 1228.34 255.05C1228.34 254.63 1228.44 254.23 1228.64 253.85C1228.84 253.45 1229.13 253.1 1229.51 252.8C1229.91 252.48 1230.38 252.23 1230.92 252.05C1231.48 251.85 1232.12 251.75 1232.84 251.75C1234.28 251.75 1235.41 252.16 1236.23 252.98C1237.07 253.8 1237.49 254.89 1237.49 256.25V265.25L1239.29 265.7V266H1235.09V264.2C1234.87 264.62 1234.59 265 1234.25 265.34C1233.97 265.62 1233.61 265.87 1233.17 266.09C1232.75 266.33 1232.24 266.45 1231.64 266.45C1230.2 266.45 1229.11 266.11 1228.37 265.43C1227.65 264.75 1227.29 263.84 1227.29 262.7C1227.29 262.14 1227.44 261.58 1227.74 261.02C1228.06 260.46 1228.53 259.96 1229.15 259.52C1229.79 259.08 1230.6 258.73 1231.58 258.47C1232.56 258.19 1233.73 258.05 1235.09 258.05V256.25C1235.09 254.75 1234.86 253.7 1234.4 253.1C1233.96 252.5 1233.44 252.2 1232.84 252.2ZM1245.73 260.27L1242.73 264.95L1244.68 265.7V266H1240.18V265.7L1242.13 264.95L1245.43 259.79L1241.53 252.95L1239.73 252.5V252.2H1245.88V252.5L1244.23 252.95L1246.87 257.57L1249.63 253.25L1247.68 252.5V252.2H1252.18V252.5L1250.23 253.25L1247.14 258.05L1251.28 265.25L1253.08 265.7V266H1246.93V265.7L1248.58 265.25L1245.73 260.27Z" fill="black"/>
<line x1="1123" y1="206.5" x2="1071" y2="206.5" stroke="black" stroke-dasharray="10 10"/>
<path d="M1161 508L1175.43 483H1146.57L1161 508ZM1163.5 485.5V206H1158.5V485.5H1163.5Z" fill="black"/>
<path d="M14.5 801.75L17.5 802.5V803H7.25V802.5L10.25 801.75V769H5C5 770.4 4.71667 771.7 4.15 772.9C3.58333 774.1 2.86667 775.133 2 776H1.5C1.53333 775.567 1.56667 775.117 1.6 774.65C1.63333 774.25 1.66667 773.833 1.7 773.4C1.73333 772.933 1.75 772.467 1.75 772C1.75 771.367 1.73333 770.817 1.7 770.35C1.66667 769.85 1.63333 769.417 1.6 769.05C1.56667 768.65 1.53333 768.3 1.5 768H23.25C23.1833 768.3 23.1333 768.65 23.1 769.05C23.0667 769.417 23.0333 769.85 23 770.35C23 770.817 23 771.367 23 772C23 772.467 23 772.933 23 773.4C23.0333 773.833 23.0667 774.25 23.1 774.65C23.1333 775.117 23.1833 775.567 23.25 776H22.75C21.8833 775.133 21.1667 774.1 20.6 772.9C20.0333 771.7 19.75 770.4 19.75 769H14.5V801.75ZM95.5645 807.25C95.0311 808.817 94.5145 810.117 94.0145 811.15C93.5145 812.217 92.9811 813.067 92.4145 813.7C91.8811 814.367 91.3145 814.833 90.7145 815.1C90.1478 815.367 89.5145 815.5 88.8145 815.5C88.6145 815.5 88.4311 815.483 88.2645 815.45C88.0978 815.45 87.9311 815.433 87.7645 815.4C87.5978 815.367 87.4478 815.317 87.3145 815.25L86.5645 811.5C86.6978 811.567 86.8478 811.617 87.0145 811.65C87.1811 811.683 87.3478 811.7 87.5145 811.7C87.6811 811.733 87.8645 811.75 88.0645 811.75C90.0645 811.75 91.5145 811.367 92.4145 810.6C93.3478 809.867 94.0645 808.75 94.5645 807.25L95.9645 803L87.3145 781.25L84.3145 780.5V780H94.3145V780.5L91.5645 781.25L97.9145 797.2L103.064 781.75L99.8145 780.5V780H107.314V780.5L104.064 781.75L95.5645 807.25ZM136.435 804.36C127.715 804.36 120.595 797.28 120.595 788.52C120.595 779.76 127.715 772.68 136.435 772.68C145.195 772.68 152.275 779.76 152.275 788.52C152.275 797.28 145.195 804.36 136.435 804.36ZM136.435 801.6C143.675 801.6 149.515 795.76 149.515 788.52C149.515 781.28 143.675 775.44 136.435 775.44C129.195 775.44 123.355 781.28 123.355 788.52C123.355 795.76 129.195 801.6 136.435 801.6ZM136.435 792.08C134.475 792.08 132.875 790.48 132.875 788.52C132.875 786.56 134.475 784.96 136.435 784.96C138.395 784.96 139.995 786.56 139.995 788.52C139.995 790.48 138.395 792.08 136.435 792.08ZM175.909 784.8C175.349 784.8 174.802 784.96 174.269 785.28C173.762 785.573 173.295 786.067 172.869 786.76C172.469 787.453 172.135 788.373 171.869 789.52C171.629 790.667 171.509 792.093 171.509 793.8C171.509 795.507 171.629 796.933 171.869 798.08C172.135 799.227 172.455 800.16 172.829 800.88C173.229 801.573 173.655 802.067 174.109 802.36C174.589 802.653 175.055 802.8 175.509 802.8C176.149 802.8 176.709 802.613 177.189 802.24C177.695 801.867 178.122 801.453 178.469 801C178.869 800.493 179.215 799.893 179.509 799.2V787.2C179.242 786.747 178.935 786.347 178.589 786C178.295 785.707 177.922 785.44 177.469 785.2C177.042 784.933 176.522 784.8 175.909 784.8ZM182.709 802L185.109 802.6V803H179.509V800.6C179.215 801.16 178.842 801.667 178.389 802.12C178.015 802.493 177.535 802.827 176.949 803.12C176.389 803.44 175.709 803.6 174.909 803.6C174.055 803.6 173.202 803.387 172.349 802.96C171.522 802.507 170.775 801.867 170.109 801.04C169.469 800.187 168.935 799.16 168.509 797.96C168.109 796.733 167.909 795.347 167.909 793.8C167.909 792.253 168.109 790.88 168.509 789.68C168.935 788.453 169.495 787.427 170.189 786.6C170.882 785.747 171.669 785.107 172.549 784.68C173.429 784.227 174.349 784 175.309 784C176.055 784 176.695 784.107 177.229 784.32C177.762 784.533 178.202 784.76 178.549 785C178.949 785.293 179.269 785.627 179.509 786V776L177.109 775.4V775H182.709V802ZM190.109 802V785.6L187.709 785V784.6H193.309V802L195.709 802.6V803H187.709V802.6L190.109 802ZM193.509 780C193.509 780.507 193.295 780.973 192.869 781.4C192.469 781.8 192.015 782 191.509 782C191.002 782 190.535 781.8 190.109 781.4C189.709 780.973 189.509 780.507 189.509 780C189.509 779.493 189.709 779.04 190.109 778.64C190.535 778.213 191.002 778 191.509 778C192.015 778 192.469 778.213 192.869 778.64C193.295 779.04 193.509 779.493 193.509 780ZM203.699 802L206.099 802.6V803H198.099V802.6L200.499 802V785.6L198.099 785V784.6H203.699V789.4C204.046 788.413 204.459 787.52 204.939 786.72C205.366 786.027 205.886 785.4 206.499 784.84C207.113 784.28 207.846 784 208.699 784C208.993 784 209.273 784.027 209.539 784.08C209.806 784.107 210.046 784.147 210.259 784.2C210.499 784.28 210.713 784.347 210.899 784.4L209.699 787.4C209.539 787.32 209.366 787.227 209.179 787.12C209.019 787.04 208.819 786.973 208.579 786.92C208.366 786.84 208.139 786.8 207.899 786.8C207.206 786.8 206.593 786.987 206.059 787.36C205.526 787.733 205.086 788.147 204.739 788.6C204.313 789.133 203.966 789.733 203.699 790.4V802Z" fill="black"/>
<path d="M27.85 817.25V804.95L26.05 804.5V804.2H30.25V806C30.45 805.6 30.72 805.23 31.06 804.89C31.34 804.61 31.7 804.35 32.14 804.11C32.58 803.87 33.1 803.75 33.7 803.75C34.46 803.75 35.08 803.89 35.56 804.17C36.06 804.45 36.46 804.76 36.76 805.1C37.12 805.5 37.4 805.95 37.6 806.45C37.86 805.95 38.17 805.5 38.53 805.1C38.85 804.76 39.24 804.45 39.7 804.17C40.16 803.89 40.71 803.75 41.35 803.75C41.95 803.75 42.5 803.86 43 804.08C43.52 804.3 43.97 804.61 44.35 805.01C44.73 805.39 45.02 805.86 45.22 806.42C45.44 806.96 45.55 807.57 45.55 808.25V817.25L47.35 817.7V818H41.5V817.7L43.15 817.25V808.25C43.15 806.83 42.92 805.83 42.46 805.25C42.02 804.65 41.5 804.35 40.9 804.35C40.4 804.35 39.97 804.49 39.61 804.77C39.25 805.05 38.94 805.36 38.68 805.7C38.38 806.1 38.12 806.55 37.9 807.05V817.25L39.55 817.7V818H33.85V817.7L35.5 817.25V808.25C35.5 806.83 35.27 805.83 34.81 805.25C34.37 804.65 33.85 804.35 33.25 804.35C32.75 804.35 32.32 804.49 31.96 804.77C31.6 805.05 31.29 805.36 31.03 805.7C30.73 806.1 30.47 806.55 30.25 807.05V817.25L31.9 817.7V818H26.05V817.7L27.85 817.25ZM57.0859 810.65C55.3459 810.65 54.0559 811.04 53.2159 811.82C52.3959 812.58 51.9859 813.64 51.9859 815C51.9859 815.9 52.2059 816.6 52.6459 817.1C53.0859 817.6 53.5659 817.85 54.0859 817.85C54.5659 817.85 54.9859 817.71 55.3459 817.43C55.7259 817.15 56.0459 816.84 56.3059 816.5C56.6059 816.12 56.8659 815.67 57.0859 815.15V810.65ZM54.8359 804.2C54.2359 804.2 53.7359 804.41 53.3359 804.83C52.9359 805.23 52.7359 805.77 52.7359 806.45C52.7359 806.61 52.7359 806.75 52.7359 806.87C52.7559 806.99 52.7759 807.1 52.7959 807.2C52.8159 807.3 52.8459 807.4 52.8859 807.5L50.4859 808.1C50.4459 808.04 50.4159 807.96 50.3959 807.86C50.3759 807.76 50.3559 807.65 50.3359 807.53C50.3359 807.41 50.3359 807.25 50.3359 807.05C50.3359 806.63 50.4359 806.23 50.6359 805.85C50.8359 805.45 51.1259 805.1 51.5059 804.8C51.9059 804.48 52.3759 804.23 52.9159 804.05C53.4759 803.85 54.1159 803.75 54.8359 803.75C56.2759 803.75 57.4059 804.16 58.2259 804.98C59.0659 805.8 59.4859 806.89 59.4859 808.25V817.25L61.2859 817.7V818H57.0859V816.2C56.8659 816.62 56.5859 817 56.2459 817.34C55.9659 817.62 55.6059 817.87 55.1659 818.09C54.7459 818.33 54.2359 818.45 53.6359 818.45C52.1959 818.45 51.1059 818.11 50.3659 817.43C49.6459 816.75 49.2859 815.84 49.2859 814.7C49.2859 814.14 49.4359 813.58 49.7359 813.02C50.0559 812.46 50.5259 811.96 51.1459 811.52C51.7859 811.08 52.5959 810.73 53.5759 810.47C54.5559 810.19 55.7259 810.05 57.0859 810.05V808.25C57.0859 806.75 56.8559 805.7 56.3959 805.1C55.9559 804.5 55.4359 804.2 54.8359 804.2ZM67.7313 812.27L64.7313 816.95L66.6813 817.7V818H62.1813V817.7L64.1313 816.95L67.4313 811.79L63.5313 804.95L61.7312 804.5V804.2H67.8813V804.5L66.2313 804.95L68.8713 809.57L71.6313 805.25L69.6813 804.5V804.2H74.1813V804.5L72.2313 805.25L69.1413 810.05L73.2813 817.25L75.0813 817.7V818H68.9313V817.7L70.5813 817.25L67.7313 812.27Z" fill="black"/>
<path d="M388.5 1006.75L391.5 1007.5V1008H381.25V1007.5L384.25 1006.75V974H379C379 975.4 378.717 976.7 378.15 977.9C377.583 979.1 376.867 980.133 376 981H375.5C375.533 980.567 375.567 980.117 375.6 979.65C375.633 979.25 375.667 978.833 375.7 978.4C375.733 977.933 375.75 977.467 375.75 977C375.75 976.367 375.733 975.817 375.7 975.35C375.667 974.85 375.633 974.417 375.6 974.05C375.567 973.65 375.533 973.3 375.5 973H397.25C397.183 973.3 397.133 973.65 397.1 974.05C397.067 974.417 397.033 974.85 397 975.35C397 975.817 397 976.367 397 977C397 977.467 397 977.933 397 978.4C397.033 978.833 397.067 979.25 397.1 979.65C397.133 980.117 397.183 980.567 397.25 981H396.75C395.883 980.133 395.167 979.1 394.6 977.9C394.033 976.7 393.75 975.4 393.75 974H388.5V1006.75ZM468.314 998.45L463.314 1006.25L466.564 1007.5V1008H459.064V1007.5L462.314 1006.25L467.814 997.65L461.314 986.25L458.314 985.5V985H468.564V985.5L465.814 986.25L470.214 993.95L474.814 986.75L471.564 985.5V985H479.064V985.5L475.814 986.75L470.664 994.75L477.564 1006.75L480.564 1007.5V1008H470.314V1007.5L473.064 1006.75L468.314 998.45ZM509.946 1009.36C501.226 1009.36 494.106 1002.28 494.106 993.52C494.106 984.76 501.226 977.68 509.946 977.68C518.706 977.68 525.786 984.76 525.786 993.52C525.786 1002.28 518.706 1009.36 509.946 1009.36ZM509.946 1006.6C517.186 1006.6 523.026 1000.76 523.026 993.52C523.026 986.28 517.186 980.44 509.946 980.44C502.706 980.44 496.866 986.28 496.866 993.52C496.866 1000.76 502.706 1006.6 509.946 1006.6ZM509.946 997.08C507.986 997.08 506.386 995.48 506.386 993.52C506.386 991.56 507.986 989.96 509.946 989.96C511.906 989.96 513.506 991.56 513.506 993.52C513.506 995.48 511.906 997.08 509.946 997.08ZM549.42 989.8C548.86 989.8 548.314 989.96 547.78 990.28C547.274 990.573 546.807 991.067 546.38 991.76C545.98 992.453 545.647 993.373 545.38 994.52C545.14 995.667 545.02 997.093 545.02 998.8C545.02 1000.51 545.14 1001.93 545.38 1003.08C545.647 1004.23 545.967 1005.16 546.34 1005.88C546.74 1006.57 547.167 1007.07 547.62 1007.36C548.1 1007.65 548.567 1007.8 549.02 1007.8C549.66 1007.8 550.22 1007.61 550.7 1007.24C551.207 1006.87 551.634 1006.45 551.98 1006C552.38 1005.49 552.727 1004.89 553.02 1004.2V992.2C552.754 991.747 552.447 991.347 552.1 991C551.807 990.707 551.434 990.44 550.98 990.2C550.554 989.933 550.034 989.8 549.42 989.8ZM556.22 1007L558.62 1007.6V1008H553.02V1005.6C552.727 1006.16 552.354 1006.67 551.9 1007.12C551.527 1007.49 551.047 1007.83 550.46 1008.12C549.9 1008.44 549.22 1008.6 548.42 1008.6C547.567 1008.6 546.714 1008.39 545.86 1007.96C545.034 1007.51 544.287 1006.87 543.62 1006.04C542.98 1005.19 542.447 1004.16 542.02 1002.96C541.62 1001.73 541.42 1000.35 541.42 998.8C541.42 997.253 541.62 995.88 542.02 994.68C542.447 993.453 543.007 992.427 543.7 991.6C544.394 990.747 545.18 990.107 546.06 989.68C546.94 989.227 547.86 989 548.82 989C549.567 989 550.207 989.107 550.74 989.32C551.274 989.533 551.714 989.76 552.06 990C552.46 990.293 552.78 990.627 553.02 991V981L550.62 980.4V980H556.22V1007ZM563.62 1007V990.6L561.22 990V989.6H566.82V1007L569.22 1007.6V1008H561.22V1007.6L563.62 1007ZM567.02 985C567.02 985.507 566.807 985.973 566.38 986.4C565.98 986.8 565.527 987 565.02 987C564.514 987 564.047 986.8 563.62 986.4C563.22 985.973 563.02 985.507 563.02 985C563.02 984.493 563.22 984.04 563.62 983.64C564.047 983.213 564.514 983 565.02 983C565.527 983 565.98 983.213 566.38 983.64C566.807 984.04 567.02 984.493 567.02 985ZM577.211 1007L579.611 1007.6V1008H571.611V1007.6L574.011 1007V990.6L571.611 990V989.6H577.211V994.4C577.558 993.413 577.971 992.52 578.451 991.72C578.878 991.027 579.398 990.4 580.011 989.84C580.624 989.28 581.358 989 582.211 989C582.504 989 582.784 989.027 583.051 989.08C583.318 989.107 583.558 989.147 583.771 989.2C584.011 989.28 584.224 989.347 584.411 989.4L583.211 992.4C583.051 992.32 582.878 992.227 582.691 992.12C582.531 992.04 582.331 991.973 582.091 991.92C581.878 991.84 581.651 991.8 581.411 991.8C580.718 991.8 580.104 991.987 579.571 992.36C579.038 992.733 578.598 993.147 578.251 993.6C577.824 994.133 577.478 994.733 577.211 995.4V1007Z" fill="black"/>
<path d="M405.85 1020.25V1007.95L404.05 1007.5V1007.2H408.25V1009C408.45 1008.6 408.72 1008.23 409.06 1007.89C409.34 1007.61 409.7 1007.35 410.14 1007.11C410.58 1006.87 411.1 1006.75 411.7 1006.75C412.46 1006.75 413.08 1006.89 413.56 1007.17C414.06 1007.45 414.46 1007.76 414.76 1008.1C415.12 1008.5 415.4 1008.95 415.6 1009.45C415.86 1008.95 416.17 1008.5 416.53 1008.1C416.85 1007.76 417.24 1007.45 417.7 1007.17C418.16 1006.89 418.71 1006.75 419.35 1006.75C419.95 1006.75 420.5 1006.86 421 1007.08C421.52 1007.3 421.97 1007.61 422.35 1008.01C422.73 1008.39 423.02 1008.86 423.22 1009.42C423.44 1009.96 423.55 1010.57 423.55 1011.25V1020.25L425.35 1020.7V1021H419.5V1020.7L421.15 1020.25V1011.25C421.15 1009.83 420.92 1008.83 420.46 1008.25C420.02 1007.65 419.5 1007.35 418.9 1007.35C418.4 1007.35 417.97 1007.49 417.61 1007.77C417.25 1008.05 416.94 1008.36 416.68 1008.7C416.38 1009.1 416.12 1009.55 415.9 1010.05V1020.25L417.55 1020.7V1021H411.85V1020.7L413.5 1020.25V1011.25C413.5 1009.83 413.27 1008.83 412.81 1008.25C412.37 1007.65 411.85 1007.35 411.25 1007.35C410.75 1007.35 410.32 1007.49 409.96 1007.77C409.6 1008.05 409.29 1008.36 409.03 1008.7C408.73 1009.1 408.47 1009.55 408.25 1010.05V1020.25L409.9 1020.7V1021H404.05V1020.7L405.85 1020.25ZM435.086 1013.65C433.346 1013.65 432.056 1014.04 431.216 1014.82C430.396 1015.58 429.986 1016.64 429.986 1018C429.986 1018.9 430.206 1019.6 430.646 1020.1C431.086 1020.6 431.566 1020.85 432.086 1020.85C432.566 1020.85 432.986 1020.71 433.346 1020.43C433.726 1020.15 434.046 1019.84 434.306 1019.5C434.606 1019.12 434.866 1018.67 435.086 1018.15V1013.65ZM432.836 1007.2C432.236 1007.2 431.736 1007.41 431.336 1007.83C430.936 1008.23 430.736 1008.77 430.736 1009.45C430.736 1009.61 430.736 1009.75 430.736 1009.87C430.756 1009.99 430.776 1010.1 430.796 1010.2C430.816 1010.3 430.846 1010.4 430.886 1010.5L428.486 1011.1C428.446 1011.04 428.416 1010.96 428.396 1010.86C428.376 1010.76 428.356 1010.65 428.336 1010.53C428.336 1010.41 428.336 1010.25 428.336 1010.05C428.336 1009.63 428.436 1009.23 428.636 1008.85C428.836 1008.45 429.126 1008.1 429.506 1007.8C429.906 1007.48 430.376 1007.23 430.916 1007.05C431.476 1006.85 432.116 1006.75 432.836 1006.75C434.276 1006.75 435.406 1007.16 436.226 1007.98C437.066 1008.8 437.486 1009.89 437.486 1011.25V1020.25L439.286 1020.7V1021H435.086V1019.2C434.866 1019.62 434.586 1020 434.246 1020.34C433.966 1020.62 433.606 1020.87 433.166 1021.09C432.746 1021.33 432.236 1021.45 431.636 1021.45C430.196 1021.45 429.106 1021.11 428.366 1020.43C427.646 1019.75 427.286 1018.84 427.286 1017.7C427.286 1017.14 427.436 1016.58 427.736 1016.02C428.056 1015.46 428.526 1014.96 429.146 1014.52C429.786 1014.08 430.596 1013.73 431.576 1013.47C432.556 1013.19 433.726 1013.05 435.086 1013.05V1011.25C435.086 1009.75 434.856 1008.7 434.396 1008.1C433.956 1007.5 433.436 1007.2 432.836 1007.2ZM445.731 1015.27L442.731 1019.95L444.681 1020.7V1021H440.181V1020.7L442.131 1019.95L445.431 1014.79L441.531 1007.95L439.731 1007.5V1007.2H445.881V1007.5L444.231 1007.95L446.871 1012.57L449.631 1008.25L447.681 1007.5V1007.2H452.181V1007.5L450.231 1008.25L447.141 1013.05L451.281 1020.25L453.081 1020.7V1021H446.931V1020.7L448.581 1020.25L445.731 1015.27Z" fill="black"/>
<path d="M450.85 714.25V701.95L449.05 701.5V701.2H453.25V703C453.45 702.6 453.72 702.23 454.06 701.89C454.34 701.61 454.7 701.35 455.14 701.11C455.58 700.87 456.1 700.75 456.7 700.75C457.46 700.75 458.08 700.89 458.56 701.17C459.06 701.45 459.46 701.76 459.76 702.1C460.12 702.5 460.4 702.95 460.6 703.45C460.86 702.95 461.17 702.5 461.53 702.1C461.85 701.76 462.24 701.45 462.7 701.17C463.16 700.89 463.71 700.75 464.35 700.75C464.95 700.75 465.5 700.86 466 701.08C466.52 701.3 466.97 701.61 467.35 702.01C467.73 702.39 468.02 702.86 468.22 703.42C468.44 703.96 468.55 704.57 468.55 705.25V714.25L470.35 714.7V715H464.5V714.7L466.15 714.25V705.25C466.15 703.83 465.92 702.83 465.46 702.25C465.02 701.65 464.5 701.35 463.9 701.35C463.4 701.35 462.97 701.49 462.61 701.77C462.25 702.05 461.94 702.36 461.68 702.7C461.38 703.1 461.12 703.55 460.9 704.05V714.25L462.55 714.7V715H456.85V714.7L458.5 714.25V705.25C458.5 703.83 458.27 702.83 457.81 702.25C457.37 701.65 456.85 701.35 456.25 701.35C455.75 701.35 455.32 701.49 454.96 701.77C454.6 702.05 454.29 702.36 454.03 702.7C453.73 703.1 453.47 703.55 453.25 704.05V714.25L454.9 714.7V715H449.05V714.7L450.85 714.25ZM480.086 707.65C478.346 707.65 477.056 708.04 476.216 708.82C475.396 709.58 474.986 710.64 474.986 712C474.986 712.9 475.206 713.6 475.646 714.1C476.086 714.6 476.566 714.85 477.086 714.85C477.566 714.85 477.986 714.71 478.346 714.43C478.726 714.15 479.046 713.84 479.306 713.5C479.606 713.12 479.866 712.67 480.086 712.15V707.65ZM477.836 701.2C477.236 701.2 476.736 701.41 476.336 701.83C475.936 702.23 475.736 702.77 475.736 703.45C475.736 703.61 475.736 703.75 475.736 703.87C475.756 703.99 475.776 704.1 475.796 704.2C475.816 704.3 475.846 704.4 475.886 704.5L473.486 705.1C473.446 705.04 473.416 704.96 473.396 704.86C473.376 704.76 473.356 704.65 473.336 704.53C473.336 704.41 473.336 704.25 473.336 704.05C473.336 703.63 473.436 703.23 473.636 702.85C473.836 702.45 474.126 702.1 474.506 701.8C474.906 701.48 475.376 701.23 475.916 701.05C476.476 700.85 477.116 700.75 477.836 700.75C479.276 700.75 480.406 701.16 481.226 701.98C482.066 702.8 482.486 703.89 482.486 705.25V714.25L484.286 714.7V715H480.086V713.2C479.866 713.62 479.586 714 479.246 714.34C478.966 714.62 478.606 714.87 478.166 715.09C477.746 715.33 477.236 715.45 476.636 715.45C475.196 715.45 474.106 715.11 473.366 714.43C472.646 713.75 472.286 712.84 472.286 711.7C472.286 711.14 472.436 710.58 472.736 710.02C473.056 709.46 473.526 708.96 474.146 708.52C474.786 708.08 475.596 707.73 476.576 707.47C477.556 707.19 478.726 707.05 480.086 707.05V705.25C480.086 703.75 479.856 702.7 479.396 702.1C478.956 701.5 478.436 701.2 477.836 701.2ZM490.731 709.27L487.731 713.95L489.681 714.7V715H485.181V714.7L487.131 713.95L490.431 708.79L486.531 701.95L484.731 701.5V701.2H490.881V701.5L489.231 701.95L491.871 706.57L494.631 702.25L492.681 701.5V701.2H497.181V701.5L495.231 702.25L492.141 707.05L496.281 714.25L498.081 714.7V715H491.931V714.7L493.581 714.25L490.731 709.27Z" fill="#2660A4"/>
<path d="M377.04 702.2V689.08L375.12 688.6V688.28H379.6V690.2C379.813 689.773 380.101 689.379 380.464 689.016C380.763 688.717 381.147 688.44 381.616 688.184C382.085 687.928 382.64 687.8 383.28 687.8C384.091 687.8 384.752 687.949 385.264 688.248C385.797 688.547 386.224 688.877 386.544 689.24C386.928 689.667 387.227 690.147 387.44 690.68C387.717 690.147 388.048 689.667 388.432 689.24C388.773 688.877 389.189 688.547 389.68 688.248C390.171 687.949 390.757 687.8 391.44 687.8C392.08 687.8 392.667 687.917 393.2 688.152C393.755 688.387 394.235 688.717 394.64 689.144C395.045 689.549 395.355 690.051 395.568 690.648C395.803 691.224 395.92 691.875 395.92 692.6V702.2L397.84 702.68V703H391.6V702.68L393.36 702.2V692.6C393.36 691.085 393.115 690.019 392.624 689.4C392.155 688.76 391.6 688.44 390.96 688.44C390.427 688.44 389.968 688.589 389.584 688.888C389.2 689.187 388.869 689.517 388.592 689.88C388.272 690.307 387.995 690.787 387.76 691.32V702.2L389.52 702.68V703H383.44V702.68L385.2 702.2V692.6C385.2 691.085 384.955 690.019 384.464 689.4C383.995 688.76 383.44 688.44 382.8 688.44C382.267 688.44 381.808 688.589 381.424 688.888C381.04 689.187 380.709 689.517 380.432 689.88C380.112 690.307 379.835 690.787 379.6 691.32V702.2L381.36 702.68V703H375.12V702.68L377.04 702.2ZM401.665 702.2V689.08L399.745 688.6V688.28H404.225V702.2L406.145 702.68V703H399.745V702.68L401.665 702.2ZM404.385 684.6C404.385 685.005 404.214 685.379 403.873 685.72C403.553 686.04 403.19 686.2 402.785 686.2C402.38 686.2 402.006 686.04 401.665 685.72C401.345 685.379 401.185 685.005 401.185 684.6C401.185 684.195 401.345 683.832 401.665 683.512C402.006 683.171 402.38 683 402.785 683C403.19 683 403.553 683.171 403.873 683.512C404.214 683.832 404.385 684.195 404.385 684.6ZM409.978 702.2V689.08L408.058 688.6V688.28H412.538V690.2C412.751 689.773 413.039 689.379 413.402 689.016C413.7 688.717 414.084 688.44 414.554 688.184C415.023 687.928 415.578 687.8 416.218 687.8C416.858 687.8 417.444 687.917 417.978 688.152C418.532 688.387 419.012 688.717 419.418 689.144C419.823 689.549 420.132 690.051 420.346 690.648C420.58 691.224 420.698 691.875 420.698 692.6V702.2L422.618 702.68V703H416.378V702.68L418.138 702.2V692.6C418.138 691.085 417.892 690.019 417.402 689.4C416.932 688.76 416.378 688.44 415.738 688.44C415.204 688.44 414.746 688.589 414.362 688.888C413.978 689.187 413.647 689.517 413.37 689.88C413.05 690.307 412.772 690.787 412.538 691.32V702.2L414.298 702.68V703H408.058V702.68L409.978 702.2ZM444.616 702L447.016 702.6V703H438.816V702.6L441.216 702V675.8H437.016C437.016 676.92 436.789 677.96 436.336 678.92C435.882 679.88 435.309 680.707 434.616 681.4H434.216C434.242 681.053 434.269 680.693 434.296 680.32C434.322 680 434.349 679.667 434.376 679.32C434.402 678.947 434.416 678.573 434.416 678.2C434.416 677.693 434.402 677.253 434.376 676.88C434.349 676.48 434.322 676.133 434.296 675.84C434.269 675.52 434.242 675.24 434.216 675H451.616C451.562 675.24 451.522 675.52 451.496 675.84C451.469 676.133 451.442 676.48 451.416 676.88C451.416 677.253 451.416 677.693 451.416 678.2C451.416 678.573 451.416 678.947 451.416 679.32C451.442 679.667 451.469 680 451.496 680.32C451.522 680.693 451.562 681.053 451.616 681.4H451.216C450.522 680.707 449.949 679.88 449.496 678.92C449.042 677.96 448.816 676.92 448.816 675.8H444.616V702ZM515.171 704.088C508.195 704.088 502.499 698.424 502.499 691.416C502.499 684.408 508.195 678.744 515.171 678.744C522.179 678.744 527.843 684.408 527.843 691.416C527.843 698.424 522.179 704.088 515.171 704.088ZM515.171 701.88C520.963 701.88 525.635 697.208 525.635 691.416C525.635 685.624 520.963 680.952 515.171 680.952C509.379 680.952 504.707 685.624 504.707 691.416C504.707 697.208 509.379 701.88 515.171 701.88ZM515.171 694.264C513.603 694.264 512.323 692.984 512.323 691.416C512.323 689.848 513.603 688.568 515.171 688.568C516.739 688.568 518.019 689.848 518.019 691.416C518.019 692.984 516.739 694.264 515.171 694.264ZM546.75 688.44C546.302 688.44 545.865 688.568 545.438 688.824C545.033 689.059 544.66 689.453 544.318 690.008C543.998 690.563 543.732 691.299 543.518 692.216C543.326 693.133 543.23 694.275 543.23 695.64C543.23 697.005 543.326 698.147 543.518 699.064C543.732 699.981 543.988 700.728 544.286 701.304C544.606 701.859 544.948 702.253 545.31 702.488C545.694 702.723 546.068 702.84 546.43 702.84C546.942 702.84 547.39 702.691 547.774 702.392C548.18 702.093 548.521 701.763 548.798 701.4C549.118 700.995 549.396 700.515 549.63 699.96V690.36C549.417 689.997 549.172 689.677 548.894 689.4C548.66 689.165 548.361 688.952 547.998 688.76C547.657 688.547 547.241 688.44 546.75 688.44ZM552.19 702.2L554.11 702.68V703H549.63V701.08C549.396 701.528 549.097 701.933 548.734 702.296C548.436 702.595 548.052 702.861 547.582 703.096C547.134 703.352 546.59 703.48 545.95 703.48C545.268 703.48 544.585 703.309 543.902 702.968C543.241 702.605 542.644 702.093 542.11 701.432C541.598 700.749 541.172 699.928 540.83 698.968C540.51 697.987 540.35 696.877 540.35 695.64C540.35 694.403 540.51 693.304 540.83 692.344C541.172 691.363 541.62 690.541 542.174 689.88C542.729 689.197 543.358 688.685 544.062 688.344C544.766 687.981 545.502 687.8 546.27 687.8C546.868 687.8 547.38 687.885 547.806 688.056C548.233 688.227 548.585 688.408 548.862 688.6C549.182 688.835 549.438 689.101 549.63 689.4V681.4L547.71 680.92V680.6H552.19V702.2ZM558.11 702.2V689.08L556.19 688.6V688.28H560.67V702.2L562.59 702.68V703H556.19V702.68L558.11 702.2ZM560.83 684.6C560.83 685.005 560.66 685.379 560.318 685.72C559.998 686.04 559.636 686.2 559.23 686.2C558.825 686.2 558.452 686.04 558.11 685.72C557.79 685.379 557.63 685.005 557.63 684.6C557.63 684.195 557.79 683.832 558.11 683.512C558.452 683.171 558.825 683 559.23 683C559.636 683 559.998 683.171 560.318 683.512C560.66 683.832 560.83 684.195 560.83 684.6ZM568.983 702.2L570.903 702.68V703H564.503V702.68L566.423 702.2V689.08L564.503 688.6V688.28H568.983V692.12C569.26 691.331 569.591 690.616 569.975 689.976C570.316 689.421 570.732 688.92 571.223 688.472C571.713 688.024 572.3 687.8 572.983 687.8C573.217 687.8 573.441 687.821 573.655 687.864C573.868 687.885 574.06 687.917 574.231 687.96C574.423 688.024 574.593 688.077 574.743 688.12L573.783 690.52C573.655 690.456 573.516 690.381 573.367 690.296C573.239 690.232 573.079 690.179 572.887 690.136C572.716 690.072 572.535 690.04 572.343 690.04C571.788 690.04 571.297 690.189 570.871 690.488C570.444 690.787 570.092 691.117 569.815 691.48C569.473 691.907 569.196 692.387 568.983 692.92V702.2Z" fill="#2660A4"/>
<path d="M611.878 318.603L585.952 331.298L609.909 347.403L611.878 318.603ZM485.075 511.704L487.76 507.711L483.61 504.921L480.925 508.915L485.075 511.704ZM493.13 499.723L498.5 491.735L494.35 488.945L488.98 496.933L493.13 499.723ZM503.87 483.747L509.239 475.76L505.09 472.97L499.72 480.958L503.87 483.747ZM514.609 467.772L519.979 459.784L515.83 456.994L510.46 464.982L514.609 467.772ZM525.349 451.796L530.719 443.808L526.57 441.019L521.2 449.007L525.349 451.796ZM536.089 435.821L541.459 427.833L537.31 425.043L531.94 433.031L536.089 435.821ZM546.829 419.845L552.199 411.857L548.049 409.068L542.679 417.056L546.829 419.845ZM557.569 403.87L562.939 395.882L558.789 393.092L553.419 401.08L557.569 403.87ZM568.309 387.894L573.679 379.906L569.529 377.117L564.159 385.104L568.309 387.894ZM579.049 371.918L584.418 363.931L580.269 361.141L574.899 369.129L579.049 371.918ZM589.788 355.943L595.158 347.955L591.009 345.166L585.639 353.153L589.788 355.943ZM600.528 339.967L605.898 331.98L601.749 329.19L596.379 337.178L600.528 339.967Z" fill="#727272"/>
<path d="M400.8 1080.3C400.8 1079.02 400.88 1077.82 401.04 1076.7C401.22 1075.58 401.44 1074.54 401.7 1073.58C401.98 1072.6 402.29 1071.71 402.63 1070.91C402.99 1070.09 403.35 1069.35 403.71 1068.69C404.57 1067.15 405.55 1065.82 406.65 1064.7L406.95 1065C406.31 1066 405.73 1067.24 405.21 1068.72C404.77 1069.98 404.37 1071.57 404.01 1073.49C403.67 1075.39 403.5 1077.66 403.5 1080.3C403.5 1082.94 403.67 1085.22 404.01 1087.14C404.37 1089.04 404.77 1090.62 405.21 1091.88C405.73 1093.36 406.31 1094.6 406.95 1095.6L406.65 1095.9C405.55 1094.8 404.57 1093.48 403.71 1091.94C403.35 1091.28 402.99 1090.54 402.63 1089.72C402.29 1088.92 401.98 1088.03 401.7 1087.05C401.44 1086.07 401.22 1085.02 401.04 1083.9C400.88 1082.78 400.8 1081.58 400.8 1080.3ZM416.262 1081.65C414.522 1081.65 413.232 1082.04 412.392 1082.82C411.572 1083.58 411.162 1084.64 411.162 1086C411.162 1086.9 411.382 1087.6 411.822 1088.1C412.262 1088.6 412.742 1088.85 413.262 1088.85C413.742 1088.85 414.162 1088.71 414.522 1088.43C414.902 1088.15 415.222 1087.84 415.482 1087.5C415.782 1087.12 416.042 1086.67 416.262 1086.15V1081.65ZM414.012 1075.2C413.412 1075.2 412.912 1075.41 412.512 1075.83C412.112 1076.23 411.912 1076.77 411.912 1077.45C411.912 1077.61 411.912 1077.75 411.912 1077.87C411.932 1077.99 411.952 1078.1 411.972 1078.2C411.992 1078.3 412.022 1078.4 412.062 1078.5L409.662 1079.1C409.622 1079.04 409.592 1078.96 409.572 1078.86C409.552 1078.76 409.532 1078.65 409.512 1078.53C409.512 1078.41 409.512 1078.25 409.512 1078.05C409.512 1077.63 409.612 1077.23 409.812 1076.85C410.012 1076.45 410.302 1076.1 410.682 1075.8C411.082 1075.48 411.552 1075.23 412.092 1075.05C412.652 1074.85 413.292 1074.75 414.012 1074.75C415.452 1074.75 416.582 1075.16 417.402 1075.98C418.242 1076.8 418.662 1077.89 418.662 1079.25V1088.25L420.462 1088.7V1089H416.262V1087.2C416.042 1087.62 415.762 1088 415.422 1088.34C415.142 1088.62 414.782 1088.87 414.342 1089.09C413.922 1089.33 413.412 1089.45 412.812 1089.45C411.372 1089.45 410.282 1089.11 409.542 1088.43C408.822 1087.75 408.462 1086.84 408.462 1085.7C408.462 1085.14 408.612 1084.58 408.912 1084.02C409.232 1083.46 409.702 1082.96 410.322 1082.52C410.962 1082.08 411.772 1081.73 412.752 1081.47C413.732 1081.19 414.902 1081.05 416.262 1081.05V1079.25C416.262 1077.75 416.032 1076.7 415.572 1076.1C415.132 1075.5 414.612 1075.2 414.012 1075.2ZM427.657 1080.3C427.657 1081.58 427.567 1082.78 427.387 1083.9C427.227 1085.02 427.007 1086.07 426.727 1087.05C426.467 1088.03 426.157 1088.92 425.797 1089.72C425.437 1090.54 425.077 1091.28 424.717 1091.94C423.857 1093.48 422.887 1094.8 421.807 1095.9L421.507 1095.6C422.127 1094.6 422.697 1093.36 423.217 1091.88C423.657 1090.62 424.057 1089.04 424.417 1087.14C424.777 1085.22 424.957 1082.94 424.957 1080.3C424.957 1077.66 424.777 1075.39 424.417 1073.49C424.057 1071.57 423.657 1069.98 423.217 1068.72C422.697 1067.24 422.127 1066 421.507 1065L421.807 1064.7C422.887 1065.82 423.857 1067.15 424.717 1068.69C425.077 1069.35 425.437 1070.09 425.797 1070.91C426.157 1071.71 426.467 1072.6 426.727 1073.58C427.007 1074.54 427.227 1075.58 427.387 1076.7C427.567 1077.82 427.657 1079.02 427.657 1080.3Z" fill="black"/>
<path d="M196.7 1083.27L193.7 1087.95L195.65 1088.7V1089H191.15V1088.7L193.1 1087.95L196.4 1082.79L192.5 1075.95L190.7 1075.5V1075.2H196.85V1075.5L195.2 1075.95L197.84 1080.57L200.6 1076.25L198.65 1075.5V1075.2H203.15V1075.5L201.2 1076.25L198.11 1081.05L202.25 1088.25L204.05 1088.7V1089H197.9V1088.7L199.55 1088.25L196.7 1083.27Z" fill="black"/>
<path d="M75.45 989.55C75.13 990.49 74.82 991.27 74.52 991.89C74.22 992.53 73.9 993.04 73.56 993.42C73.24 993.82 72.9 994.1 72.54 994.26C72.2 994.42 71.82 994.5 71.4 994.5C71.28 994.5 71.17 994.49 71.07 994.47C70.97 994.47 70.87 994.46 70.77 994.44C70.67 994.42 70.58 994.39 70.5 994.35L70.05 992.1C70.13 992.14 70.22 992.17 70.32 992.19C70.42 992.21 70.52 992.22 70.62 992.22C70.72 992.24 70.83 992.25 70.95 992.25C72.15 992.25 73.02 992.02 73.56 991.56C74.12 991.12 74.55 990.45 74.85 989.55L75.69 987L70.5 973.95L68.7 973.5V973.2H74.7V973.5L73.05 973.95L76.86 983.52L79.95 974.25L78 973.5V973.2H82.5V973.5L80.55 974.25L75.45 989.55Z" fill="black"/>
<path d="M918.8 1080.3C918.8 1079.02 918.88 1077.82 919.04 1076.7C919.22 1075.58 919.44 1074.54 919.7 1073.58C919.98 1072.6 920.29 1071.71 920.63 1070.91C920.99 1070.09 921.35 1069.35 921.71 1068.69C922.57 1067.15 923.55 1065.82 924.65 1064.7L924.95 1065C924.31 1066 923.73 1067.24 923.21 1068.72C922.77 1069.98 922.37 1071.57 922.01 1073.49C921.67 1075.39 921.5 1077.66 921.5 1080.3C921.5 1082.94 921.67 1085.22 922.01 1087.14C922.37 1089.04 922.77 1090.62 923.21 1091.88C923.73 1093.36 924.31 1094.6 924.95 1095.6L924.65 1095.9C923.55 1094.8 922.57 1093.48 921.71 1091.94C921.35 1091.28 920.99 1090.54 920.63 1089.72C920.29 1088.92 919.98 1088.03 919.7 1087.05C919.44 1086.07 919.22 1085.02 919.04 1083.9C918.88 1082.78 918.8 1081.58 918.8 1080.3ZM933.062 1075.35C932.602 1075.35 932.202 1075.45 931.862 1075.65C931.522 1075.83 931.242 1076.03 931.022 1076.25C930.762 1076.51 930.542 1076.81 930.362 1077.15V1086.15C930.582 1086.67 930.842 1087.12 931.142 1087.5C931.402 1087.84 931.712 1088.15 932.072 1088.43C932.432 1088.71 932.862 1088.85 933.362 1088.85C933.702 1088.85 934.042 1088.74 934.382 1088.52C934.742 1088.3 935.062 1087.93 935.342 1087.41C935.642 1086.87 935.882 1086.17 936.062 1085.31C936.262 1084.45 936.362 1083.38 936.362 1082.1C936.362 1080.82 936.262 1079.75 936.062 1078.89C935.882 1078.03 935.632 1077.34 935.312 1076.82C935.012 1076.3 934.662 1075.93 934.262 1075.71C933.882 1075.47 933.482 1075.35 933.062 1075.35ZM933.512 1074.75C934.232 1074.75 934.922 1074.92 935.582 1075.26C936.242 1075.58 936.832 1076.06 937.352 1076.7C937.872 1077.32 938.282 1078.09 938.582 1079.01C938.902 1079.91 939.062 1080.94 939.062 1082.1C939.062 1083.26 938.902 1084.3 938.582 1085.22C938.282 1086.12 937.882 1086.89 937.382 1087.53C936.902 1088.15 936.342 1088.63 935.702 1088.97C935.082 1089.29 934.452 1089.45 933.812 1089.45C933.212 1089.45 932.692 1089.33 932.252 1089.09C931.812 1088.87 931.452 1088.62 931.172 1088.34C930.832 1088 930.562 1087.62 930.362 1087.2V1089H926.162V1088.7L927.962 1088.25V1068.75L926.162 1068.3V1068H930.362V1076.25C930.542 1075.97 930.782 1075.72 931.082 1075.5C931.342 1075.32 931.662 1075.15 932.042 1074.99C932.442 1074.83 932.932 1074.75 933.512 1074.75ZM946.858 1080.3C946.858 1081.58 946.768 1082.78 946.588 1083.9C946.428 1085.02 946.208 1086.07 945.928 1087.05C945.668 1088.03 945.358 1088.92 944.998 1089.72C944.638 1090.54 944.278 1091.28 943.918 1091.94C943.058 1093.48 942.088 1094.8 941.008 1095.9L940.708 1095.6C941.328 1094.6 941.898 1093.36 942.418 1091.88C942.858 1090.62 943.258 1089.04 943.618 1087.14C943.978 1085.22 944.158 1082.94 944.158 1080.3C944.158 1077.66 943.978 1075.39 943.618 1073.49C943.258 1071.57 942.858 1069.98 942.418 1068.72C941.898 1067.24 941.328 1066 940.708 1065L941.008 1064.7C942.088 1065.82 943.058 1067.15 943.918 1068.69C944.278 1069.35 944.638 1070.09 944.998 1070.91C945.358 1071.71 945.668 1072.6 945.928 1073.58C946.208 1074.54 946.428 1075.58 946.588 1076.7C946.768 1077.82 946.858 1079.02 946.858 1080.3Z" fill="black"/>
</svg>
