<svg width="697" height="907" viewBox="0 0 697 907" fill="none" xmlns="http://www.w3.org/2000/svg">
<path d="M14.5 176.75L17.5 177.5V178H7.25V177.5L10.25 176.75V144H5C5 145.4 4.71667 146.7 4.15 147.9C3.58333 149.1 2.86667 150.133 2 151H1.5C1.53333 150.567 1.56667 150.117 1.6 149.65C1.63333 149.25 1.66667 148.833 1.7 148.4C1.73333 147.933 1.75 147.467 1.75 147C1.75 146.367 1.73333 145.817 1.7 145.35C1.66667 144.85 1.63333 144.417 1.6 144.05C1.56667 143.65 1.53333 143.3 1.5 143H23.25C23.1833 143.3 23.1333 143.65 23.1 144.05C23.0667 144.417 23.0333 144.85 23 145.35C23 145.817 23 146.367 23 147C23 147.467 23 147.933 23 148.4C23.0333 148.833 23.0667 149.25 23.1 149.65C23.1333 150.117 23.1833 150.567 23.25 151H22.75C21.8833 150.133 21.1667 149.1 20.6 147.9C20.0333 146.7 19.75 145.4 19.75 144H14.5V176.75ZM95.5645 182.25C95.0311 183.817 94.5145 185.117 94.0145 186.15C93.5145 187.217 92.9811 188.067 92.4145 188.7C91.8811 189.367 91.3145 189.833 90.7145 190.1C90.1478 190.367 89.5145 190.5 88.8145 190.5C88.6145 190.5 88.4311 190.483 88.2645 190.45C88.0978 190.45 87.9311 190.433 87.7645 190.4C87.5978 190.367 87.4478 190.317 87.3145 190.25L86.5645 186.5C86.6978 186.567 86.8478 186.617 87.0145 186.65C87.1811 186.683 87.3478 186.7 87.5145 186.7C87.6811 186.733 87.8645 186.75 88.0645 186.75C90.0645 186.75 91.5145 186.367 92.4145 185.6C93.3478 184.867 94.0645 183.75 94.5645 182.25L95.9645 178L87.3145 156.25L84.3145 155.5V155H94.3145V155.5L91.5645 156.25L97.9145 172.2L103.064 156.75L99.8145 155.5V155H107.314V155.5L104.064 156.75L95.5645 182.25ZM136.435 179.36C127.715 179.36 120.595 172.28 120.595 163.52C120.595 154.76 127.715 147.68 136.435 147.68C145.195 147.68 152.275 154.76 152.275 163.52C152.275 172.28 145.195 179.36 136.435 179.36ZM136.435 176.6C143.675 176.6 149.515 170.76 149.515 163.52C149.515 156.28 143.675 150.44 136.435 150.44C129.195 150.44 123.355 156.28 123.355 163.52C123.355 170.76 129.195 176.6 136.435 176.6ZM136.435 167.08C134.475 167.08 132.875 165.48 132.875 163.52C132.875 161.56 134.475 159.96 136.435 159.96C138.395 159.96 139.995 161.56 139.995 163.52C139.995 165.48 138.395 167.08 136.435 167.08ZM175.909 159.8C175.349 159.8 174.802 159.96 174.269 160.28C173.762 160.573 173.295 161.067 172.869 161.76C172.469 162.453 172.135 163.373 171.869 164.52C171.629 165.667 171.509 167.093 171.509 168.8C171.509 170.507 171.629 171.933 171.869 173.08C172.135 174.227 172.455 175.16 172.829 175.88C173.229 176.573 173.655 177.067 174.109 177.36C174.589 177.653 175.055 177.8 175.509 177.8C176.149 177.8 176.709 177.613 177.189 177.24C177.695 176.867 178.122 176.453 178.469 176C178.869 175.493 179.215 174.893 179.509 174.2V162.2C179.242 161.747 178.935 161.347 178.589 161C178.295 160.707 177.922 160.44 177.469 160.2C177.042 159.933 176.522 159.8 175.909 159.8ZM182.709 177L185.109 177.6V178H179.509V175.6C179.215 176.16 178.842 176.667 178.389 177.12C178.015 177.493 177.535 177.827 176.949 178.12C176.389 178.44 175.709 178.6 174.909 178.6C174.055 178.6 173.202 178.387 172.349 177.96C171.522 177.507 170.775 176.867 170.109 176.04C169.469 175.187 168.935 174.16 168.509 172.96C168.109 171.733 167.909 170.347 167.909 168.8C167.909 167.253 168.109 165.88 168.509 164.68C168.935 163.453 169.495 162.427 170.189 161.6C170.882 160.747 171.669 160.107 172.549 159.68C173.429 159.227 174.349 159 175.309 159C176.055 159 176.695 159.107 177.229 159.32C177.762 159.533 178.202 159.76 178.549 160C178.949 160.293 179.269 160.627 179.509 161V151L177.109 150.4V150H182.709V177ZM190.109 177V160.6L187.709 160V159.6H193.309V177L195.709 177.6V178H187.709V177.6L190.109 177ZM193.509 155C193.509 155.507 193.295 155.973 192.869 156.4C192.469 156.8 192.015 157 191.509 157C191.002 157 190.535 156.8 190.109 156.4C189.709 155.973 189.509 155.507 189.509 155C189.509 154.493 189.709 154.04 190.109 153.64C190.535 153.213 191.002 153 191.509 153C192.015 153 192.469 153.213 192.869 153.64C193.295 154.04 193.509 154.493 193.509 155ZM203.699 177L206.099 177.6V178H198.099V177.6L200.499 177V160.6L198.099 160V159.6H203.699V164.4C204.046 163.413 204.459 162.52 204.939 161.72C205.366 161.027 205.886 160.4 206.499 159.84C207.113 159.28 207.846 159 208.699 159C208.993 159 209.273 159.027 209.539 159.08C209.806 159.107 210.046 159.147 210.259 159.2C210.499 159.28 210.713 159.347 210.899 159.4L209.699 162.4C209.539 162.32 209.366 162.227 209.179 162.12C209.019 162.04 208.819 161.973 208.579 161.92C208.366 161.84 208.139 161.8 207.899 161.8C207.206 161.8 206.593 161.987 206.059 162.36C205.526 162.733 205.086 163.147 204.739 163.6C204.313 164.133 203.966 164.733 203.699 165.4V177Z" fill="black"/>
<path d="M27.85 192.25V179.95L26.05 179.5V179.2H30.25V181C30.45 180.6 30.72 180.23 31.06 179.89C31.34 179.61 31.7 179.35 32.14 179.11C32.58 178.87 33.1 178.75 33.7 178.75C34.46 178.75 35.08 178.89 35.56 179.17C36.06 179.45 36.46 179.76 36.76 180.1C37.12 180.5 37.4 180.95 37.6 181.45C37.86 180.95 38.17 180.5 38.53 180.1C38.85 179.76 39.24 179.45 39.7 179.17C40.16 178.89 40.71 178.75 41.35 178.75C41.95 178.75 42.5 178.86 43 179.08C43.52 179.3 43.97 179.61 44.35 180.01C44.73 180.39 45.02 180.86 45.22 181.42C45.44 181.96 45.55 182.57 45.55 183.25V192.25L47.35 192.7V193H41.5V192.7L43.15 192.25V183.25C43.15 181.83 42.92 180.83 42.46 180.25C42.02 179.65 41.5 179.35 40.9 179.35C40.4 179.35 39.97 179.49 39.61 179.77C39.25 180.05 38.94 180.36 38.68 180.7C38.38 181.1 38.12 181.55 37.9 182.05V192.25L39.55 192.7V193H33.85V192.7L35.5 192.25V183.25C35.5 181.83 35.27 180.83 34.81 180.25C34.37 179.65 33.85 179.35 33.25 179.35C32.75 179.35 32.32 179.49 31.96 179.77C31.6 180.05 31.29 180.36 31.03 180.7C30.73 181.1 30.47 181.55 30.25 182.05V192.25L31.9 192.7V193H26.05V192.7L27.85 192.25ZM57.0859 185.65C55.3459 185.65 54.0559 186.04 53.2159 186.82C52.3959 187.58 51.9859 188.64 51.9859 190C51.9859 190.9 52.2059 191.6 52.6459 192.1C53.0859 192.6 53.5659 192.85 54.0859 192.85C54.5659 192.85 54.9859 192.71 55.3459 192.43C55.7259 192.15 56.0459 191.84 56.3059 191.5C56.6059 191.12 56.8659 190.67 57.0859 190.15V185.65ZM54.8359 179.2C54.2359 179.2 53.7359 179.41 53.3359 179.83C52.9359 180.23 52.7359 180.77 52.7359 181.45C52.7359 181.61 52.7359 181.75 52.7359 181.87C52.7559 181.99 52.7759 182.1 52.7959 182.2C52.8159 182.3 52.8459 182.4 52.8859 182.5L50.4859 183.1C50.4459 183.04 50.4159 182.96 50.3959 182.86C50.3759 182.76 50.3559 182.65 50.3359 182.53C50.3359 182.41 50.3359 182.25 50.3359 182.05C50.3359 181.63 50.4359 181.23 50.6359 180.85C50.8359 180.45 51.1259 180.1 51.5059 179.8C51.9059 179.48 52.3759 179.23 52.9159 179.05C53.4759 178.85 54.1159 178.75 54.8359 178.75C56.2759 178.75 57.4059 179.16 58.2259 179.98C59.0659 180.8 59.4859 181.89 59.4859 183.25V192.25L61.2859 192.7V193H57.0859V191.2C56.8659 191.62 56.5859 192 56.2459 192.34C55.9659 192.62 55.6059 192.87 55.1659 193.09C54.7459 193.33 54.2359 193.45 53.6359 193.45C52.1959 193.45 51.1059 193.11 50.3659 192.43C49.6459 191.75 49.2859 190.84 49.2859 189.7C49.2859 189.14 49.4359 188.58 49.7359 188.02C50.0559 187.46 50.5259 186.96 51.1459 186.52C51.7859 186.08 52.5959 185.73 53.5759 185.47C54.5559 185.19 55.7259 185.05 57.0859 185.05V183.25C57.0859 181.75 56.8559 180.7 56.3959 180.1C55.9559 179.5 55.4359 179.2 54.8359 179.2ZM67.7313 187.27L64.7313 191.95L66.6813 192.7V193H62.1813V192.7L64.1313 191.95L67.4313 186.79L63.5313 179.95L61.7312 179.5V179.2H67.8813V179.5L66.2313 179.95L68.8713 184.57L71.6313 180.25L69.6813 179.5V179.2H74.1813V179.5L72.2313 180.25L69.1413 185.05L73.2813 192.25L75.0813 192.7V193H68.9313V192.7L70.5813 192.25L67.7313 187.27Z" fill="black"/>
<path d="M340.5 43.75L343.5 44.5V45H333.25V44.5L336.25 43.75V11H331C331 12.4 330.717 13.7 330.15 14.9C329.583 16.1 328.867 17.1333 328 18H327.5C327.533 17.5667 327.567 17.1167 327.6 16.65C327.633 16.25 327.667 15.8333 327.7 15.4C327.733 14.9333 327.75 14.4667 327.75 14C327.75 13.3667 327.733 12.8167 327.7 12.35C327.667 11.85 327.633 11.4167 327.6 11.05C327.567 10.65 327.533 10.3 327.5 10H349.25C349.183 10.3 349.133 10.65 349.1 11.05C349.067 11.4167 349.033 11.85 349 12.35C349 12.8167 349 13.3667 349 14C349 14.4667 349 14.9333 349 15.4C349.033 15.8333 349.067 16.25 349.1 16.65C349.133 17.1167 349.183 17.5667 349.25 18H348.75C347.883 17.1333 347.167 16.1 346.6 14.9C346.033 13.7 345.75 12.4 345.75 11H340.5V43.75ZM420.314 35.45L415.314 43.25L418.564 44.5V45H411.064V44.5L414.314 43.25L419.814 34.65L413.314 23.25L410.314 22.5V22H420.564V22.5L417.814 23.25L422.214 30.95L426.814 23.75L423.564 22.5V22H431.064V22.5L427.814 23.75L422.664 31.75L429.564 43.75L432.564 44.5V45H422.314V44.5L425.064 43.75L420.314 35.45ZM461.946 46.36C453.226 46.36 446.106 39.28 446.106 30.52C446.106 21.76 453.226 14.68 461.946 14.68C470.706 14.68 477.786 21.76 477.786 30.52C477.786 39.28 470.706 46.36 461.946 46.36ZM461.946 43.6C469.186 43.6 475.026 37.76 475.026 30.52C475.026 23.28 469.186 17.44 461.946 17.44C454.706 17.44 448.866 23.28 448.866 30.52C448.866 37.76 454.706 43.6 461.946 43.6ZM461.946 34.08C459.986 34.08 458.386 32.48 458.386 30.52C458.386 28.56 459.986 26.96 461.946 26.96C463.906 26.96 465.506 28.56 465.506 30.52C465.506 32.48 463.906 34.08 461.946 34.08ZM501.42 26.8C500.86 26.8 500.314 26.96 499.78 27.28C499.274 27.5733 498.807 28.0667 498.38 28.76C497.98 29.4533 497.647 30.3733 497.38 31.52C497.14 32.6667 497.02 34.0933 497.02 35.8C497.02 37.5067 497.14 38.9333 497.38 40.08C497.647 41.2267 497.967 42.16 498.34 42.88C498.74 43.5733 499.167 44.0667 499.62 44.36C500.1 44.6533 500.567 44.8 501.02 44.8C501.66 44.8 502.22 44.6133 502.7 44.24C503.207 43.8667 503.634 43.4533 503.98 43C504.38 42.4933 504.727 41.8933 505.02 41.2V29.2C504.754 28.7467 504.447 28.3467 504.1 28C503.807 27.7067 503.434 27.44 502.98 27.2C502.554 26.9333 502.034 26.8 501.42 26.8ZM508.22 44L510.62 44.6V45H505.02V42.6C504.727 43.16 504.354 43.6667 503.9 44.12C503.527 44.4933 503.047 44.8267 502.46 45.12C501.9 45.44 501.22 45.6 500.42 45.6C499.567 45.6 498.714 45.3867 497.86 44.96C497.034 44.5067 496.287 43.8667 495.62 43.04C494.98 42.1867 494.447 41.16 494.02 39.96C493.62 38.7333 493.42 37.3467 493.42 35.8C493.42 34.2533 493.62 32.88 494.02 31.68C494.447 30.4533 495.007 29.4267 495.7 28.6C496.394 27.7467 497.18 27.1067 498.06 26.68C498.94 26.2267 499.86 26 500.82 26C501.567 26 502.207 26.1067 502.74 26.32C503.274 26.5333 503.714 26.76 504.06 27C504.46 27.2933 504.78 27.6267 505.02 28V18L502.62 17.4V17H508.22V44ZM515.62 44V27.6L513.22 27V26.6H518.82V44L521.22 44.6V45H513.22V44.6L515.62 44ZM519.02 22C519.02 22.5067 518.807 22.9733 518.38 23.4C517.98 23.8 517.527 24 517.02 24C516.514 24 516.047 23.8 515.62 23.4C515.22 22.9733 515.02 22.5067 515.02 22C515.02 21.4933 515.22 21.04 515.62 20.64C516.047 20.2133 516.514 20 517.02 20C517.527 20 517.98 20.2133 518.38 20.64C518.807 21.04 519.02 21.4933 519.02 22ZM529.211 44L531.611 44.6V45H523.611V44.6L526.011 44V27.6L523.611 27V26.6H529.211V31.4C529.558 30.4133 529.971 29.52 530.451 28.72C530.878 28.0267 531.398 27.4 532.011 26.84C532.624 26.28 533.358 26 534.211 26C534.504 26 534.784 26.0267 535.051 26.08C535.318 26.1067 535.558 26.1467 535.771 26.2C536.011 26.28 536.224 26.3467 536.411 26.4L535.211 29.4C535.051 29.32 534.878 29.2267 534.691 29.12C534.531 29.04 534.331 28.9733 534.091 28.92C533.878 28.84 533.651 28.8 533.411 28.8C532.718 28.8 532.104 28.9867 531.571 29.36C531.038 29.7333 530.598 30.1467 530.251 30.6C529.824 31.1333 529.478 31.7333 529.211 32.4V44Z" fill="black"/>
<path d="M357.85 57.25V44.95L356.05 44.5V44.2H360.25V46C360.45 45.6 360.72 45.23 361.06 44.89C361.34 44.61 361.7 44.35 362.14 44.11C362.58 43.87 363.1 43.75 363.7 43.75C364.46 43.75 365.08 43.89 365.56 44.17C366.06 44.45 366.46 44.76 366.76 45.1C367.12 45.5 367.4 45.95 367.6 46.45C367.86 45.95 368.17 45.5 368.53 45.1C368.85 44.76 369.24 44.45 369.7 44.17C370.16 43.89 370.71 43.75 371.35 43.75C371.95 43.75 372.5 43.86 373 44.08C373.52 44.3 373.97 44.61 374.35 45.01C374.73 45.39 375.02 45.86 375.22 46.42C375.44 46.96 375.55 47.57 375.55 48.25V57.25L377.35 57.7V58H371.5V57.7L373.15 57.25V48.25C373.15 46.83 372.92 45.83 372.46 45.25C372.02 44.65 371.5 44.35 370.9 44.35C370.4 44.35 369.97 44.49 369.61 44.77C369.25 45.05 368.94 45.36 368.68 45.7C368.38 46.1 368.12 46.55 367.9 47.05V57.25L369.55 57.7V58H363.85V57.7L365.5 57.25V48.25C365.5 46.83 365.27 45.83 364.81 45.25C364.37 44.65 363.85 44.35 363.25 44.35C362.75 44.35 362.32 44.49 361.96 44.77C361.6 45.05 361.29 45.36 361.03 45.7C360.73 46.1 360.47 46.55 360.25 47.05V57.25L361.9 57.7V58H356.05V57.7L357.85 57.25ZM387.086 50.65C385.346 50.65 384.056 51.04 383.216 51.82C382.396 52.58 381.986 53.64 381.986 55C381.986 55.9 382.206 56.6 382.646 57.1C383.086 57.6 383.566 57.85 384.086 57.85C384.566 57.85 384.986 57.71 385.346 57.43C385.726 57.15 386.046 56.84 386.306 56.5C386.606 56.12 386.866 55.67 387.086 55.15V50.65ZM384.836 44.2C384.236 44.2 383.736 44.41 383.336 44.83C382.936 45.23 382.736 45.77 382.736 46.45C382.736 46.61 382.736 46.75 382.736 46.87C382.756 46.99 382.776 47.1 382.796 47.2C382.816 47.3 382.846 47.4 382.886 47.5L380.486 48.1C380.446 48.04 380.416 47.96 380.396 47.86C380.376 47.76 380.356 47.65 380.336 47.53C380.336 47.41 380.336 47.25 380.336 47.05C380.336 46.63 380.436 46.23 380.636 45.85C380.836 45.45 381.126 45.1 381.506 44.8C381.906 44.48 382.376 44.23 382.916 44.05C383.476 43.85 384.116 43.75 384.836 43.75C386.276 43.75 387.406 44.16 388.226 44.98C389.066 45.8 389.486 46.89 389.486 48.25V57.25L391.286 57.7V58H387.086V56.2C386.866 56.62 386.586 57 386.246 57.34C385.966 57.62 385.606 57.87 385.166 58.09C384.746 58.33 384.236 58.45 383.636 58.45C382.196 58.45 381.106 58.11 380.366 57.43C379.646 56.75 379.286 55.84 379.286 54.7C379.286 54.14 379.436 53.58 379.736 53.02C380.056 52.46 380.526 51.96 381.146 51.52C381.786 51.08 382.596 50.73 383.576 50.47C384.556 50.19 385.726 50.05 387.086 50.05V48.25C387.086 46.75 386.856 45.7 386.396 45.1C385.956 44.5 385.436 44.2 384.836 44.2ZM397.731 52.27L394.731 56.95L396.681 57.7V58H392.181V57.7L394.131 56.95L397.431 51.79L393.531 44.95L391.731 44.5V44.2H397.881V44.5L396.231 44.95L398.871 49.57L401.631 45.25L399.681 44.5V44.2H404.181V44.5L402.231 45.25L399.141 50.05L403.281 57.25L405.081 57.7V58H398.931V57.7L400.581 57.25L397.731 52.27Z" fill="black"/>
<path d="M488.85 471.25V458.95L487.05 458.5V458.2H491.25V460C491.45 459.6 491.72 459.23 492.06 458.89C492.34 458.61 492.7 458.35 493.14 458.11C493.58 457.87 494.1 457.75 494.7 457.75C495.46 457.75 496.08 457.89 496.56 458.17C497.06 458.45 497.46 458.76 497.76 459.1C498.12 459.5 498.4 459.95 498.6 460.45C498.86 459.95 499.17 459.5 499.53 459.1C499.85 458.76 500.24 458.45 500.7 458.17C501.16 457.89 501.71 457.75 502.35 457.75C502.95 457.75 503.5 457.86 504 458.08C504.52 458.3 504.97 458.61 505.35 459.01C505.73 459.39 506.02 459.86 506.22 460.42C506.44 460.96 506.55 461.57 506.55 462.25V471.25L508.35 471.7V472H502.5V471.7L504.15 471.25V462.25C504.15 460.83 503.92 459.83 503.46 459.25C503.02 458.65 502.5 458.35 501.9 458.35C501.4 458.35 500.97 458.49 500.61 458.77C500.25 459.05 499.94 459.36 499.68 459.7C499.38 460.1 499.12 460.55 498.9 461.05V471.25L500.55 471.7V472H494.85V471.7L496.5 471.25V462.25C496.5 460.83 496.27 459.83 495.81 459.25C495.37 458.65 494.85 458.35 494.25 458.35C493.75 458.35 493.32 458.49 492.96 458.77C492.6 459.05 492.29 459.36 492.03 459.7C491.73 460.1 491.47 460.55 491.25 461.05V471.25L492.9 471.7V472H487.05V471.7L488.85 471.25ZM518.086 464.65C516.346 464.65 515.056 465.04 514.216 465.82C513.396 466.58 512.986 467.64 512.986 469C512.986 469.9 513.206 470.6 513.646 471.1C514.086 471.6 514.566 471.85 515.086 471.85C515.566 471.85 515.986 471.71 516.346 471.43C516.726 471.15 517.046 470.84 517.306 470.5C517.606 470.12 517.866 469.67 518.086 469.15V464.65ZM515.836 458.2C515.236 458.2 514.736 458.41 514.336 458.83C513.936 459.23 513.736 459.77 513.736 460.45C513.736 460.61 513.736 460.75 513.736 460.87C513.756 460.99 513.776 461.1 513.796 461.2C513.816 461.3 513.846 461.4 513.886 461.5L511.486 462.1C511.446 462.04 511.416 461.96 511.396 461.86C511.376 461.76 511.356 461.65 511.336 461.53C511.336 461.41 511.336 461.25 511.336 461.05C511.336 460.63 511.436 460.23 511.636 459.85C511.836 459.45 512.126 459.1 512.506 458.8C512.906 458.48 513.376 458.23 513.916 458.05C514.476 457.85 515.116 457.75 515.836 457.75C517.276 457.75 518.406 458.16 519.226 458.98C520.066 459.8 520.486 460.89 520.486 462.25V471.25L522.286 471.7V472H518.086V470.2C517.866 470.62 517.586 471 517.246 471.34C516.966 471.62 516.606 471.87 516.166 472.09C515.746 472.33 515.236 472.45 514.636 472.45C513.196 472.45 512.106 472.11 511.366 471.43C510.646 470.75 510.286 469.84 510.286 468.7C510.286 468.14 510.436 467.58 510.736 467.02C511.056 466.46 511.526 465.96 512.146 465.52C512.786 465.08 513.596 464.73 514.576 464.47C515.556 464.19 516.726 464.05 518.086 464.05V462.25C518.086 460.75 517.856 459.7 517.396 459.1C516.956 458.5 516.436 458.2 515.836 458.2ZM528.731 466.27L525.731 470.95L527.681 471.7V472H523.181V471.7L525.131 470.95L528.431 465.79L524.531 458.95L522.731 458.5V458.2H528.881V458.5L527.231 458.95L529.871 463.57L532.631 459.25L530.681 458.5V458.2H535.181V458.5L533.231 459.25L530.141 464.05L534.281 471.25L536.081 471.7V472H529.931V471.7L531.581 471.25L528.731 466.27Z" fill="#2660A4"/>
<path d="M415.04 459.2V446.08L413.12 445.6V445.28H417.6V447.2C417.813 446.773 418.101 446.379 418.464 446.016C418.763 445.717 419.147 445.44 419.616 445.184C420.085 444.928 420.64 444.8 421.28 444.8C422.091 444.8 422.752 444.949 423.264 445.248C423.797 445.547 424.224 445.877 424.544 446.24C424.928 446.667 425.227 447.147 425.44 447.68C425.717 447.147 426.048 446.667 426.432 446.24C426.773 445.877 427.189 445.547 427.68 445.248C428.171 444.949 428.757 444.8 429.44 444.8C430.08 444.8 430.667 444.917 431.2 445.152C431.755 445.387 432.235 445.717 432.64 446.144C433.045 446.549 433.355 447.051 433.568 447.648C433.803 448.224 433.92 448.875 433.92 449.6V459.2L435.84 459.68V460H429.6V459.68L431.36 459.2V449.6C431.36 448.085 431.115 447.019 430.624 446.4C430.155 445.76 429.6 445.44 428.96 445.44C428.427 445.44 427.968 445.589 427.584 445.888C427.2 446.187 426.869 446.517 426.592 446.88C426.272 447.307 425.995 447.787 425.76 448.32V459.2L427.52 459.68V460H421.44V459.68L423.2 459.2V449.6C423.2 448.085 422.955 447.019 422.464 446.4C421.995 445.76 421.44 445.44 420.8 445.44C420.267 445.44 419.808 445.589 419.424 445.888C419.04 446.187 418.709 446.517 418.432 446.88C418.112 447.307 417.835 447.787 417.6 448.32V459.2L419.36 459.68V460H413.12V459.68L415.04 459.2ZM439.665 459.2V446.08L437.745 445.6V445.28H442.225V459.2L444.145 459.68V460H437.745V459.68L439.665 459.2ZM442.385 441.6C442.385 442.005 442.214 442.379 441.873 442.72C441.553 443.04 441.19 443.2 440.785 443.2C440.38 443.2 440.006 443.04 439.665 442.72C439.345 442.379 439.185 442.005 439.185 441.6C439.185 441.195 439.345 440.832 439.665 440.512C440.006 440.171 440.38 440 440.785 440C441.19 440 441.553 440.171 441.873 440.512C442.214 440.832 442.385 441.195 442.385 441.6ZM447.978 459.2V446.08L446.058 445.6V445.28H450.538V447.2C450.751 446.773 451.039 446.379 451.402 446.016C451.7 445.717 452.084 445.44 452.554 445.184C453.023 444.928 453.578 444.8 454.218 444.8C454.858 444.8 455.444 444.917 455.978 445.152C456.532 445.387 457.012 445.717 457.418 446.144C457.823 446.549 458.132 447.051 458.346 447.648C458.58 448.224 458.698 448.875 458.698 449.6V459.2L460.618 459.68V460H454.378V459.68L456.138 459.2V449.6C456.138 448.085 455.892 447.019 455.402 446.4C454.932 445.76 454.378 445.44 453.738 445.44C453.204 445.44 452.746 445.589 452.362 445.888C451.978 446.187 451.647 446.517 451.37 446.88C451.05 447.307 450.772 447.787 450.538 448.32V459.2L452.298 459.68V460H446.058V459.68L447.978 459.2ZM482.616 459L485.016 459.6V460H476.816V459.6L479.216 459V432.8H475.016C475.016 433.92 474.789 434.96 474.336 435.92C473.882 436.88 473.309 437.707 472.616 438.4H472.216C472.242 438.053 472.269 437.693 472.296 437.32C472.322 437 472.349 436.667 472.376 436.32C472.402 435.947 472.416 435.573 472.416 435.2C472.416 434.693 472.402 434.253 472.376 433.88C472.349 433.48 472.322 433.133 472.296 432.84C472.269 432.52 472.242 432.24 472.216 432H489.616C489.562 432.24 489.522 432.52 489.496 432.84C489.469 433.133 489.442 433.48 489.416 433.88C489.416 434.253 489.416 434.693 489.416 435.2C489.416 435.573 489.416 435.947 489.416 436.32C489.442 436.667 489.469 437 489.496 437.32C489.522 437.693 489.562 438.053 489.616 438.4H489.216C488.522 437.707 487.949 436.88 487.496 435.92C487.042 434.96 486.816 433.92 486.816 432.8H482.616V459ZM553.171 461.088C546.195 461.088 540.499 455.424 540.499 448.416C540.499 441.408 546.195 435.744 553.171 435.744C560.179 435.744 565.843 441.408 565.843 448.416C565.843 455.424 560.179 461.088 553.171 461.088ZM553.171 458.88C558.963 458.88 563.635 454.208 563.635 448.416C563.635 442.624 558.963 437.952 553.171 437.952C547.379 437.952 542.707 442.624 542.707 448.416C542.707 454.208 547.379 458.88 553.171 458.88ZM553.171 451.264C551.603 451.264 550.323 449.984 550.323 448.416C550.323 446.848 551.603 445.568 553.171 445.568C554.739 445.568 556.019 446.848 556.019 448.416C556.019 449.984 554.739 451.264 553.171 451.264ZM584.75 445.44C584.302 445.44 583.865 445.568 583.438 445.824C583.033 446.059 582.66 446.453 582.318 447.008C581.998 447.563 581.732 448.299 581.518 449.216C581.326 450.133 581.23 451.275 581.23 452.64C581.23 454.005 581.326 455.147 581.518 456.064C581.732 456.981 581.988 457.728 582.286 458.304C582.606 458.859 582.948 459.253 583.31 459.488C583.694 459.723 584.068 459.84 584.43 459.84C584.942 459.84 585.39 459.691 585.774 459.392C586.18 459.093 586.521 458.763 586.798 458.4C587.118 457.995 587.396 457.515 587.63 456.96V447.36C587.417 446.997 587.172 446.677 586.894 446.4C586.66 446.165 586.361 445.952 585.998 445.76C585.657 445.547 585.241 445.44 584.75 445.44ZM590.19 459.2L592.11 459.68V460H587.63V458.08C587.396 458.528 587.097 458.933 586.734 459.296C586.436 459.595 586.052 459.861 585.582 460.096C585.134 460.352 584.59 460.48 583.95 460.48C583.268 460.48 582.585 460.309 581.902 459.968C581.241 459.605 580.644 459.093 580.11 458.432C579.598 457.749 579.172 456.928 578.83 455.968C578.51 454.987 578.35 453.877 578.35 452.64C578.35 451.403 578.51 450.304 578.83 449.344C579.172 448.363 579.62 447.541 580.174 446.88C580.729 446.197 581.358 445.685 582.062 445.344C582.766 444.981 583.502 444.8 584.27 444.8C584.868 444.8 585.38 444.885 585.806 445.056C586.233 445.227 586.585 445.408 586.862 445.6C587.182 445.835 587.438 446.101 587.63 446.4V438.4L585.71 437.92V437.6H590.19V459.2ZM596.11 459.2V446.08L594.19 445.6V445.28H598.67V459.2L600.59 459.68V460H594.19V459.68L596.11 459.2ZM598.83 441.6C598.83 442.005 598.66 442.379 598.318 442.72C597.998 443.04 597.636 443.2 597.23 443.2C596.825 443.2 596.452 443.04 596.11 442.72C595.79 442.379 595.63 442.005 595.63 441.6C595.63 441.195 595.79 440.832 596.11 440.512C596.452 440.171 596.825 440 597.23 440C597.636 440 597.998 440.171 598.318 440.512C598.66 440.832 598.83 441.195 598.83 441.6ZM606.983 459.2L608.903 459.68V460H602.503V459.68L604.423 459.2V446.08L602.503 445.6V445.28H606.983V449.12C607.26 448.331 607.591 447.616 607.975 446.976C608.316 446.421 608.732 445.92 609.223 445.472C609.713 445.024 610.3 444.8 610.983 444.8C611.217 444.8 611.441 444.821 611.655 444.864C611.868 444.885 612.06 444.917 612.231 444.96C612.423 445.024 612.593 445.077 612.743 445.12L611.783 447.52C611.655 447.456 611.516 447.381 611.367 447.296C611.239 447.232 611.079 447.179 610.887 447.136C610.716 447.072 610.535 447.04 610.343 447.04C609.788 447.04 609.297 447.189 608.871 447.488C608.444 447.787 608.092 448.117 607.815 448.48C607.473 448.907 607.196 449.387 606.983 449.92V459.2Z" fill="#2660A4"/>
<path d="M183 507L197.434 482H168.566L183 507ZM185.5 484.5L185.5 213H180.5L180.5 484.5H185.5Z" fill="black"/>
<path d="M227 71L252 85.4338V56.5662L227 71ZM249.5 73.5L553 73.5V68.5L249.5 68.5V73.5Z" fill="black"/>
<line x1="556" y1="69" x2="556" y2="204" stroke="black" stroke-width="2" stroke-dasharray="10 10"/>
<line x1="557" y1="214" x2="227" y2="214" stroke="black" stroke-width="2" stroke-dasharray="10 10"/>
<path d="M565.25 256.25L562.25 255.5V255H569.25V258C569.583 257.333 570.033 256.717 570.6 256.15C571.067 255.683 571.667 255.25 572.4 254.85C573.133 254.45 574 254.25 575 254.25C576.067 254.25 577.117 254.533 578.15 255.1C579.217 255.633 580.15 256.433 580.95 257.5C581.783 258.533 582.45 259.817 582.95 261.35C583.483 262.85 583.75 264.567 583.75 266.5C583.75 268.433 583.483 270.167 582.95 271.7C582.45 273.2 581.767 274.483 580.9 275.55C580.033 276.583 579.05 277.383 577.95 277.95C576.85 278.483 575.7 278.75 574.5 278.75C573.533 278.75 572.717 278.617 572.05 278.35C571.417 278.117 570.883 277.833 570.45 277.5C569.95 277.133 569.55 276.717 569.25 276.25V288.75L572.25 289.5V290H562.25V289.5L565.25 288.75V256.25ZM573.75 277.75C574.45 277.75 575.117 277.567 575.75 277.2C576.417 276.833 577 276.217 577.5 275.35C578.033 274.45 578.45 273.283 578.75 271.85C579.083 270.417 579.25 268.633 579.25 266.5C579.25 264.367 579.083 262.583 578.75 261.15C578.45 259.717 578.05 258.567 577.55 257.7C577.083 256.833 576.55 256.217 575.95 255.85C575.383 255.45 574.817 255.25 574.25 255.25C573.417 255.25 572.7 255.483 572.1 255.95C571.5 256.417 570.983 256.933 570.55 257.5C570.05 258.167 569.617 258.917 569.25 259.75V274.75C569.55 275.317 569.917 275.817 570.35 276.25C570.717 276.617 571.183 276.967 571.75 277.3C572.317 277.6 572.983 277.75 573.75 277.75Z" fill="#D02A2A"/>
<path d="M284.85 479.25V466.95L283.05 466.5V466.2H287.25V468C287.45 467.6 287.72 467.23 288.06 466.89C288.34 466.61 288.7 466.35 289.14 466.11C289.58 465.87 290.1 465.75 290.7 465.75C291.46 465.75 292.08 465.89 292.56 466.17C293.06 466.45 293.46 466.76 293.76 467.1C294.12 467.5 294.4 467.95 294.6 468.45C294.86 467.95 295.17 467.5 295.53 467.1C295.85 466.76 296.24 466.45 296.7 466.17C297.16 465.89 297.71 465.75 298.35 465.75C298.95 465.75 299.5 465.86 300 466.08C300.52 466.3 300.97 466.61 301.35 467.01C301.73 467.39 302.02 467.86 302.22 468.42C302.44 468.96 302.55 469.57 302.55 470.25V479.25L304.35 479.7V480H298.5V479.7L300.15 479.25V470.25C300.15 468.83 299.92 467.83 299.46 467.25C299.02 466.65 298.5 466.35 297.9 466.35C297.4 466.35 296.97 466.49 296.61 466.77C296.25 467.05 295.94 467.36 295.68 467.7C295.38 468.1 295.12 468.55 294.9 469.05V479.25L296.55 479.7V480H290.85V479.7L292.5 479.25V470.25C292.5 468.83 292.27 467.83 291.81 467.25C291.37 466.65 290.85 466.35 290.25 466.35C289.75 466.35 289.32 466.49 288.96 466.77C288.6 467.05 288.29 467.36 288.03 467.7C287.73 468.1 287.47 468.55 287.25 469.05V479.25L288.9 479.7V480H283.05V479.7L284.85 479.25ZM312.136 466.2C311.796 466.2 311.446 466.32 311.086 466.56C310.746 466.78 310.426 467.16 310.126 467.7C309.846 468.22 309.606 468.92 309.406 469.8C309.226 470.68 309.136 471.78 309.136 473.1C309.136 474.42 309.226 475.52 309.406 476.4C309.606 477.28 309.846 477.99 310.126 478.53C310.426 479.05 310.746 479.43 311.086 479.67C311.446 479.89 311.796 480 312.136 480C312.476 480 312.816 479.89 313.156 479.67C313.516 479.43 313.836 479.05 314.116 478.53C314.416 477.99 314.656 477.28 314.836 476.4C315.036 475.52 315.136 474.42 315.136 473.1C315.136 471.78 315.036 470.68 314.836 469.8C314.656 468.92 314.416 468.22 314.116 467.7C313.836 467.16 313.516 466.78 313.156 466.56C312.816 466.32 312.476 466.2 312.136 466.2ZM312.136 465.75C312.876 465.75 313.586 465.92 314.266 466.26C314.966 466.58 315.576 467.06 316.096 467.7C316.636 468.32 317.056 469.09 317.356 470.01C317.676 470.91 317.836 471.94 317.836 473.1C317.836 474.26 317.676 475.3 317.356 476.22C317.056 477.12 316.636 477.89 316.096 478.53C315.576 479.15 314.966 479.63 314.266 479.97C313.586 480.29 312.876 480.45 312.136 480.45C311.376 480.45 310.656 480.29 309.976 479.97C309.296 479.63 308.686 479.15 308.146 478.53C307.626 477.89 307.206 477.12 306.886 476.22C306.586 475.3 306.436 474.26 306.436 473.1C306.436 471.94 306.586 470.91 306.886 470.01C307.206 469.09 307.626 468.32 308.146 467.7C308.686 467.06 309.296 466.58 309.976 466.26C310.656 465.92 311.376 465.75 312.136 465.75ZM326.378 466.35C325.958 466.35 325.548 466.47 325.148 466.71C324.768 466.93 324.418 467.3 324.098 467.82C323.798 468.34 323.548 469.03 323.348 469.89C323.168 470.75 323.078 471.82 323.078 473.1C323.078 474.38 323.168 475.45 323.348 476.31C323.548 477.17 323.788 477.87 324.068 478.41C324.368 478.93 324.688 479.3 325.028 479.52C325.388 479.74 325.738 479.85 326.078 479.85C326.558 479.85 326.978 479.71 327.338 479.43C327.718 479.15 328.038 478.84 328.298 478.5C328.598 478.12 328.858 477.67 329.078 477.15V468.15C328.878 467.81 328.648 467.51 328.388 467.25C328.168 467.03 327.888 466.83 327.548 466.65C327.228 466.45 326.838 466.35 326.378 466.35ZM331.478 479.25L333.278 479.7V480H329.078V478.2C328.858 478.62 328.578 479 328.238 479.34C327.958 479.62 327.598 479.87 327.158 480.09C326.738 480.33 326.228 480.45 325.628 480.45C324.988 480.45 324.348 480.29 323.708 479.97C323.088 479.63 322.528 479.15 322.028 478.53C321.548 477.89 321.148 477.12 320.828 476.22C320.528 475.3 320.378 474.26 320.378 473.1C320.378 471.94 320.528 470.91 320.828 470.01C321.148 469.09 321.568 468.32 322.088 467.7C322.608 467.06 323.198 466.58 323.858 466.26C324.518 465.92 325.208 465.75 325.928 465.75C326.488 465.75 326.968 465.83 327.368 465.99C327.768 466.15 328.098 466.32 328.358 466.5C328.658 466.72 328.898 466.97 329.078 467.25V459.75L327.278 459.3V459H331.478V479.25Z" fill="black"/>
<path d="M555 213L526.773 219.047L546.124 240.469L555 213ZM225.676 513.855L539.979 229.937L536.628 226.227L222.324 510.145L225.676 513.855Z" fill="#271212"/>
<rect x="226.5" y="509.5" width="395" height="395" stroke="#A4A4A4" stroke-width="5"/>
<rect x="226.5" y="114.5" width="395" height="395" stroke="#00A676" stroke-width="5"/>
<path d="M550 221.217L677.205 32" stroke="#727272" stroke-width="5" stroke-dasharray="10 10"/>
<path d="M228 699.047L253.926 686.352L229.969 670.246L228 699.047ZM238.786 687.484L244.593 678.845L240.444 676.056L234.636 684.694L238.786 687.484ZM250.401 670.207L256.208 661.568L252.058 658.779L246.251 667.417L250.401 670.207ZM262.015 652.93L267.823 644.291L263.673 641.502L257.866 650.14L262.015 652.93ZM273.63 635.653L279.438 627.014L275.288 624.225L269.481 632.863L273.63 635.653ZM285.245 618.376L291.052 609.737L286.903 606.948L281.095 615.586L285.245 618.376ZM296.86 601.099L302.667 592.46L298.518 589.671L292.71 598.309L296.86 601.099ZM308.474 583.822L314.282 575.183L310.132 572.394L304.325 581.032L308.474 583.822ZM320.089 566.545L325.897 557.906L321.747 555.117L315.94 563.755L320.089 566.545ZM331.704 549.268L337.511 540.63L333.362 537.84L327.554 546.478L331.704 549.268ZM343.319 531.991L349.126 523.353L344.977 520.563L339.169 529.201L343.319 531.991ZM354.934 514.714L357.837 510.395L353.688 507.605L350.784 511.924L354.934 514.714Z" fill="#727272"/>
<path d="M354 511.573L379.926 498.878L355.969 482.772L354 511.573ZM368.628 494.295L560.829 208.395L556.68 205.605L364.478 491.505L368.628 494.295Z" fill="#2660A4"/>
<circle cx="554.5" cy="213.5" r="12.5" fill="#D30000"/>
</svg>
