<svg width="707" height="989" viewBox="0 0 707 989" fill="none" xmlns="http://www.w3.org/2000/svg">
<mask id="path-1-inside-1_2_48" fill="white">
<path d="M245 0H645V400H245V0Z"/>
</mask>
<path d="M245 0V-5H240V0H245ZM645 0H650V-5H645V0ZM645 400V402.5H650V400H645ZM245 400H240V402.5H245V400ZM245 5H645V-5H245V5ZM640 0V400H650V0H640ZM645 397.5H245V402.5H645V397.5ZM250 400V0H240V400H250Z" fill="#A4A4A4" mask="url(#path-1-inside-1_2_48)"/>
<rect x="247.5" y="397.5" width="395" height="395" stroke="#00A676" stroke-width="5"/>
<line x1="337" y1="649" x2="337" y2="790" stroke="black" stroke-width="2" stroke-dasharray="10 10"/>
<line x1="342" y1="655" x2="250" y2="655" stroke="black" stroke-width="2" stroke-dasharray="10 10"/>
<path d="M643 200L617.098 212.745L641.086 228.804L643 200ZM248.077 794.391L250.834 790.273L246.68 787.491L243.923 791.609L248.077 794.391ZM256.348 782.037L261.862 773.801L257.707 771.019L252.193 779.255L256.348 782.037ZM267.376 765.564L272.89 757.328L268.735 754.547L263.221 762.783L267.376 765.564ZM278.404 749.092L283.918 740.856L279.763 738.074L274.249 746.311L278.404 749.092ZM289.432 732.62L294.945 724.384L290.791 721.602L285.277 729.838L289.432 732.62ZM300.459 716.148L305.973 707.912L301.818 705.13L296.305 713.366L300.459 716.148ZM311.487 699.676L317.001 691.439L312.846 688.658L307.332 696.894L311.487 699.676ZM322.515 683.203L328.029 674.967L323.874 672.186L318.36 680.422L322.515 683.203ZM333.543 666.731L339.057 658.495L334.902 655.713L329.388 663.949L333.543 666.731ZM344.57 650.259L350.084 642.023L345.93 639.241L340.416 647.477L344.57 650.259ZM355.598 633.787L361.112 625.55L356.957 622.769L351.443 631.005L355.598 633.787ZM366.626 617.314L372.14 609.078L367.985 606.297L362.471 614.533L366.626 617.314ZM377.654 600.842L383.168 592.606L379.013 589.824L373.499 598.061L377.654 600.842ZM388.682 584.37L394.196 576.134L390.041 573.352L384.527 581.588L388.682 584.37ZM399.709 567.898L405.223 559.662L401.068 556.88L395.555 565.116L399.709 567.898ZM410.737 551.425L416.251 543.189L412.096 540.408L406.582 548.644L410.737 551.425ZM421.765 534.953L427.279 526.717L423.124 523.936L417.61 532.172L421.765 534.953ZM432.793 518.481L438.307 510.245L434.152 507.463L428.638 515.699L432.793 518.481ZM443.821 502.009L449.334 493.773L445.18 490.991L439.666 499.227L443.821 502.009ZM454.848 485.537L460.362 477.3L456.207 474.519L450.693 482.755L454.848 485.537ZM465.876 469.064L471.39 460.828L467.235 458.047L461.721 466.283L465.876 469.064ZM476.904 452.592L482.418 444.356L478.263 441.574L472.749 449.81L476.904 452.592ZM487.932 436.12L493.446 427.884L489.291 425.102L483.777 433.338L487.932 436.12ZM498.959 419.648L504.473 411.411L500.318 408.63L494.805 416.866L498.959 419.648ZM509.987 403.175L515.501 394.939L511.346 392.158L505.832 400.394L509.987 403.175ZM521.015 386.703L526.529 378.467L522.374 375.685L516.86 383.922L521.015 386.703ZM532.043 370.231L537.557 361.995L533.402 359.213L527.888 367.449L532.043 370.231ZM543.071 353.759L548.584 345.523L544.43 342.741L538.916 350.977L543.071 353.759ZM554.098 337.286L559.612 329.05L555.457 326.269L549.944 334.505L554.098 337.286ZM565.126 320.814L570.64 312.578L566.485 309.797L560.971 318.033L565.126 320.814ZM576.154 304.342L581.668 296.106L577.513 293.324L571.999 301.56L576.154 304.342ZM587.182 287.87L592.696 279.634L588.541 276.852L583.027 285.088L587.182 287.87ZM598.21 271.398L603.723 263.161L599.569 260.38L594.055 268.616L598.21 271.398ZM609.237 254.925L614.751 246.689L610.596 243.908L605.082 252.144L609.237 254.925ZM620.265 238.453L625.779 230.217L621.624 227.435L616.11 235.671L620.265 238.453ZM631.293 221.981L636.807 213.745L632.652 210.963L627.138 219.199L631.293 221.981Z" fill="#727272"/>
<path d="M511.363 396.627L485.461 409.371L509.449 425.431L511.363 396.627ZM248.077 794.391L500.923 416.715L496.768 413.933L243.923 791.609L248.077 794.391Z" fill="#2660A4"/>
<line x1="115.925" y1="986.801" x2="246.477" y2="792.605" stroke="#727272" stroke-width="5" stroke-dasharray="10 10"/>
<path d="M227.5 399.999L213.066 424.999H241.934L227.5 399.999ZM230 652.001V422.499H225V652.001H230Z" fill="black"/>
<path d="M645.017 819.25L620.017 804.816V833.684L645.017 819.25ZM336.99 821.75H622.517V816.75H336.99V821.75Z" fill="black"/>
<path d="M373.25 645.25L370.25 644.5V644H377.25V647C377.583 646.333 378.033 645.717 378.6 645.15C379.067 644.683 379.667 644.25 380.4 643.85C381.133 643.45 382 643.25 383 643.25C384.067 643.25 385.117 643.533 386.15 644.1C387.217 644.633 388.15 645.433 388.95 646.5C389.783 647.533 390.45 648.817 390.95 650.35C391.483 651.85 391.75 653.567 391.75 655.5C391.75 657.433 391.483 659.167 390.95 660.7C390.45 662.2 389.767 663.483 388.9 664.55C388.033 665.583 387.05 666.383 385.95 666.95C384.85 667.483 383.7 667.75 382.5 667.75C381.533 667.75 380.717 667.617 380.05 667.35C379.417 667.117 378.883 666.833 378.45 666.5C377.95 666.133 377.55 665.717 377.25 665.25V677.75L380.25 678.5V679H370.25V678.5L373.25 677.75V645.25ZM381.75 666.75C382.45 666.75 383.117 666.567 383.75 666.2C384.417 665.833 385 665.217 385.5 664.35C386.033 663.45 386.45 662.283 386.75 660.85C387.083 659.417 387.25 657.633 387.25 655.5C387.25 653.367 387.083 651.583 386.75 650.15C386.45 648.717 386.05 647.567 385.55 646.7C385.083 645.833 384.55 645.217 383.95 644.85C383.383 644.45 382.817 644.25 382.25 644.25C381.417 644.25 380.7 644.483 380.1 644.95C379.5 645.417 378.983 645.933 378.55 646.5C378.05 647.167 377.617 647.917 377.25 648.75V663.75C377.55 664.317 377.917 664.817 378.35 665.25C378.717 665.617 379.183 665.967 379.75 666.3C380.317 666.6 380.983 666.75 381.75 666.75Z" fill="#D02A2A"/>
<path d="M276.85 767.25V754.95L275.05 754.5V754.2H279.25V756C279.45 755.6 279.72 755.23 280.06 754.89C280.34 754.61 280.7 754.35 281.14 754.11C281.58 753.87 282.1 753.75 282.7 753.75C283.46 753.75 284.08 753.89 284.56 754.17C285.06 754.45 285.46 754.76 285.76 755.1C286.12 755.5 286.4 755.95 286.6 756.45C286.86 755.95 287.17 755.5 287.53 755.1C287.85 754.76 288.24 754.45 288.7 754.17C289.16 753.89 289.71 753.75 290.35 753.75C290.95 753.75 291.5 753.86 292 754.08C292.52 754.3 292.97 754.61 293.35 755.01C293.73 755.39 294.02 755.86 294.22 756.42C294.44 756.96 294.55 757.57 294.55 758.25V767.25L296.35 767.7V768H290.5V767.7L292.15 767.25V758.25C292.15 756.83 291.92 755.83 291.46 755.25C291.02 754.65 290.5 754.35 289.9 754.35C289.4 754.35 288.97 754.49 288.61 754.77C288.25 755.05 287.94 755.36 287.68 755.7C287.38 756.1 287.12 756.55 286.9 757.05V767.25L288.55 767.7V768H282.85V767.7L284.5 767.25V758.25C284.5 756.83 284.27 755.83 283.81 755.25C283.37 754.65 282.85 754.35 282.25 754.35C281.75 754.35 281.32 754.49 280.96 754.77C280.6 755.05 280.29 755.36 280.03 755.7C279.73 756.1 279.47 756.55 279.25 757.05V767.25L280.9 767.7V768H275.05V767.7L276.85 767.25ZM304.136 754.2C303.796 754.2 303.446 754.32 303.086 754.56C302.746 754.78 302.426 755.16 302.126 755.7C301.846 756.22 301.606 756.92 301.406 757.8C301.226 758.68 301.136 759.78 301.136 761.1C301.136 762.42 301.226 763.52 301.406 764.4C301.606 765.28 301.846 765.99 302.126 766.53C302.426 767.05 302.746 767.43 303.086 767.67C303.446 767.89 303.796 768 304.136 768C304.476 768 304.816 767.89 305.156 767.67C305.516 767.43 305.836 767.05 306.116 766.53C306.416 765.99 306.656 765.28 306.836 764.4C307.036 763.52 307.136 762.42 307.136 761.1C307.136 759.78 307.036 758.68 306.836 757.8C306.656 756.92 306.416 756.22 306.116 755.7C305.836 755.16 305.516 754.78 305.156 754.56C304.816 754.32 304.476 754.2 304.136 754.2ZM304.136 753.75C304.876 753.75 305.586 753.92 306.266 754.26C306.966 754.58 307.576 755.06 308.096 755.7C308.636 756.32 309.056 757.09 309.356 758.01C309.676 758.91 309.836 759.94 309.836 761.1C309.836 762.26 309.676 763.3 309.356 764.22C309.056 765.12 308.636 765.89 308.096 766.53C307.576 767.15 306.966 767.63 306.266 767.97C305.586 768.29 304.876 768.45 304.136 768.45C303.376 768.45 302.656 768.29 301.976 767.97C301.296 767.63 300.686 767.15 300.146 766.53C299.626 765.89 299.206 765.12 298.886 764.22C298.586 763.3 298.436 762.26 298.436 761.1C298.436 759.94 298.586 758.91 298.886 758.01C299.206 757.09 299.626 756.32 300.146 755.7C300.686 755.06 301.296 754.58 301.976 754.26C302.656 753.92 303.376 753.75 304.136 753.75ZM318.378 754.35C317.958 754.35 317.548 754.47 317.148 754.71C316.768 754.93 316.418 755.3 316.098 755.82C315.798 756.34 315.548 757.03 315.348 757.89C315.168 758.75 315.078 759.82 315.078 761.1C315.078 762.38 315.168 763.45 315.348 764.31C315.548 765.17 315.788 765.87 316.068 766.41C316.368 766.93 316.688 767.3 317.028 767.52C317.388 767.74 317.738 767.85 318.078 767.85C318.558 767.85 318.978 767.71 319.338 767.43C319.718 767.15 320.038 766.84 320.298 766.5C320.598 766.12 320.858 765.67 321.078 765.15V756.15C320.878 755.81 320.648 755.51 320.388 755.25C320.168 755.03 319.888 754.83 319.548 754.65C319.228 754.45 318.838 754.35 318.378 754.35ZM323.478 767.25L325.278 767.7V768H321.078V766.2C320.858 766.62 320.578 767 320.238 767.34C319.958 767.62 319.598 767.87 319.158 768.09C318.738 768.33 318.228 768.45 317.628 768.45C316.988 768.45 316.348 768.29 315.708 767.97C315.088 767.63 314.528 767.15 314.028 766.53C313.548 765.89 313.148 765.12 312.828 764.22C312.528 763.3 312.378 762.26 312.378 761.1C312.378 759.94 312.528 758.91 312.828 758.01C313.148 757.09 313.568 756.32 314.088 755.7C314.608 755.06 315.198 754.58 315.858 754.26C316.518 753.92 317.208 753.75 317.928 753.75C318.488 753.75 318.968 753.83 319.368 753.99C319.768 754.15 320.098 754.32 320.358 754.5C320.658 754.72 320.898 754.97 321.078 755.25V747.75L319.278 747.3V747H323.478V767.25Z" fill="black"/>
<path d="M335 660L309.101 672.75L333.092 688.804L335 660ZM248.078 794.39L324.565 680.09L320.409 677.309L243.922 791.61L248.078 794.39Z" fill="#271212"/>
<circle cx="337.5" cy="654.5" r="12.5" fill="#D30000"/>
<path d="M14.5 513.75L17.5 514.5V515H7.25V514.5L10.25 513.75V481H5C5 482.4 4.71667 483.7 4.15 484.9C3.58333 486.1 2.86667 487.133 2 488H1.5C1.53333 487.567 1.56667 487.117 1.6 486.65C1.63333 486.25 1.66667 485.833 1.7 485.4C1.73333 484.933 1.75 484.467 1.75 484C1.75 483.367 1.73333 482.817 1.7 482.35C1.66667 481.85 1.63333 481.417 1.6 481.05C1.56667 480.65 1.53333 480.3 1.5 480H23.25C23.1833 480.3 23.1333 480.65 23.1 481.05C23.0667 481.417 23.0333 481.85 23 482.35C23 482.817 23 483.367 23 484C23 484.467 23 484.933 23 485.4C23.0333 485.833 23.0667 486.25 23.1 486.65C23.1333 487.117 23.1833 487.567 23.25 488H22.75C21.8833 487.133 21.1667 486.1 20.6 484.9C20.0333 483.7 19.75 482.4 19.75 481H14.5V513.75ZM95.5645 519.25C95.0311 520.817 94.5145 522.117 94.0145 523.15C93.5145 524.217 92.9811 525.067 92.4145 525.7C91.8811 526.367 91.3145 526.833 90.7145 527.1C90.1478 527.367 89.5145 527.5 88.8145 527.5C88.6145 527.5 88.4311 527.483 88.2645 527.45C88.0978 527.45 87.9311 527.433 87.7645 527.4C87.5978 527.367 87.4478 527.317 87.3145 527.25L86.5645 523.5C86.6978 523.567 86.8478 523.617 87.0145 523.65C87.1811 523.683 87.3478 523.7 87.5145 523.7C87.6811 523.733 87.8645 523.75 88.0645 523.75C90.0645 523.75 91.5145 523.367 92.4145 522.6C93.3478 521.867 94.0645 520.75 94.5645 519.25L95.9645 515L87.3145 493.25L84.3145 492.5V492H94.3145V492.5L91.5645 493.25L97.9145 509.2L103.064 493.75L99.8145 492.5V492H107.314V492.5L104.064 493.75L95.5645 519.25ZM136.435 516.36C127.715 516.36 120.595 509.28 120.595 500.52C120.595 491.76 127.715 484.68 136.435 484.68C145.195 484.68 152.275 491.76 152.275 500.52C152.275 509.28 145.195 516.36 136.435 516.36ZM136.435 513.6C143.675 513.6 149.515 507.76 149.515 500.52C149.515 493.28 143.675 487.44 136.435 487.44C129.195 487.44 123.355 493.28 123.355 500.52C123.355 507.76 129.195 513.6 136.435 513.6ZM136.435 504.08C134.475 504.08 132.875 502.48 132.875 500.52C132.875 498.56 134.475 496.96 136.435 496.96C138.395 496.96 139.995 498.56 139.995 500.52C139.995 502.48 138.395 504.08 136.435 504.08ZM175.909 496.8C175.349 496.8 174.802 496.96 174.269 497.28C173.762 497.573 173.295 498.067 172.869 498.76C172.469 499.453 172.135 500.373 171.869 501.52C171.629 502.667 171.509 504.093 171.509 505.8C171.509 507.507 171.629 508.933 171.869 510.08C172.135 511.227 172.455 512.16 172.829 512.88C173.229 513.573 173.655 514.067 174.109 514.36C174.589 514.653 175.055 514.8 175.509 514.8C176.149 514.8 176.709 514.613 177.189 514.24C177.695 513.867 178.122 513.453 178.469 513C178.869 512.493 179.215 511.893 179.509 511.2V499.2C179.242 498.747 178.935 498.347 178.589 498C178.295 497.707 177.922 497.44 177.469 497.2C177.042 496.933 176.522 496.8 175.909 496.8ZM182.709 514L185.109 514.6V515H179.509V512.6C179.215 513.16 178.842 513.667 178.389 514.12C178.015 514.493 177.535 514.827 176.949 515.12C176.389 515.44 175.709 515.6 174.909 515.6C174.055 515.6 173.202 515.387 172.349 514.96C171.522 514.507 170.775 513.867 170.109 513.04C169.469 512.187 168.935 511.16 168.509 509.96C168.109 508.733 167.909 507.347 167.909 505.8C167.909 504.253 168.109 502.88 168.509 501.68C168.935 500.453 169.495 499.427 170.189 498.6C170.882 497.747 171.669 497.107 172.549 496.68C173.429 496.227 174.349 496 175.309 496C176.055 496 176.695 496.107 177.229 496.32C177.762 496.533 178.202 496.76 178.549 497C178.949 497.293 179.269 497.627 179.509 498V488L177.109 487.4V487H182.709V514ZM190.109 514V497.6L187.709 497V496.6H193.309V514L195.709 514.6V515H187.709V514.6L190.109 514ZM193.509 492C193.509 492.507 193.295 492.973 192.869 493.4C192.469 493.8 192.015 494 191.509 494C191.002 494 190.535 493.8 190.109 493.4C189.709 492.973 189.509 492.507 189.509 492C189.509 491.493 189.709 491.04 190.109 490.64C190.535 490.213 191.002 490 191.509 490C192.015 490 192.469 490.213 192.869 490.64C193.295 491.04 193.509 491.493 193.509 492ZM203.699 514L206.099 514.6V515H198.099V514.6L200.499 514V497.6L198.099 497V496.6H203.699V501.4C204.046 500.413 204.459 499.52 204.939 498.72C205.366 498.027 205.886 497.4 206.499 496.84C207.113 496.28 207.846 496 208.699 496C208.993 496 209.273 496.027 209.539 496.08C209.806 496.107 210.046 496.147 210.259 496.2C210.499 496.28 210.713 496.347 210.899 496.4L209.699 499.4C209.539 499.32 209.366 499.227 209.179 499.12C209.019 499.04 208.819 498.973 208.579 498.92C208.366 498.84 208.139 498.8 207.899 498.8C207.206 498.8 206.593 498.987 206.059 499.36C205.526 499.733 205.086 500.147 204.739 500.6C204.313 501.133 203.966 501.733 203.699 502.4V514Z" fill="black"/>
<path d="M27.85 529.25V516.95L26.05 516.5V516.2H30.25V518C30.45 517.6 30.72 517.23 31.06 516.89C31.34 516.61 31.7 516.35 32.14 516.11C32.58 515.87 33.1 515.75 33.7 515.75C34.46 515.75 35.08 515.89 35.56 516.17C36.06 516.45 36.46 516.76 36.76 517.1C37.12 517.5 37.4 517.95 37.6 518.45C37.86 517.95 38.17 517.5 38.53 517.1C38.85 516.76 39.24 516.45 39.7 516.17C40.16 515.89 40.71 515.75 41.35 515.75C41.95 515.75 42.5 515.86 43 516.08C43.52 516.3 43.97 516.61 44.35 517.01C44.73 517.39 45.02 517.86 45.22 518.42C45.44 518.96 45.55 519.57 45.55 520.25V529.25L47.35 529.7V530H41.5V529.7L43.15 529.25V520.25C43.15 518.83 42.92 517.83 42.46 517.25C42.02 516.65 41.5 516.35 40.9 516.35C40.4 516.35 39.97 516.49 39.61 516.77C39.25 517.05 38.94 517.36 38.68 517.7C38.38 518.1 38.12 518.55 37.9 519.05V529.25L39.55 529.7V530H33.85V529.7L35.5 529.25V520.25C35.5 518.83 35.27 517.83 34.81 517.25C34.37 516.65 33.85 516.35 33.25 516.35C32.75 516.35 32.32 516.49 31.96 516.77C31.6 517.05 31.29 517.36 31.03 517.7C30.73 518.1 30.47 518.55 30.25 519.05V529.25L31.9 529.7V530H26.05V529.7L27.85 529.25ZM57.0859 522.65C55.3459 522.65 54.0559 523.04 53.2159 523.82C52.3959 524.58 51.9859 525.64 51.9859 527C51.9859 527.9 52.2059 528.6 52.6459 529.1C53.0859 529.6 53.5659 529.85 54.0859 529.85C54.5659 529.85 54.9859 529.71 55.3459 529.43C55.7259 529.15 56.0459 528.84 56.3059 528.5C56.6059 528.12 56.8659 527.67 57.0859 527.15V522.65ZM54.8359 516.2C54.2359 516.2 53.7359 516.41 53.3359 516.83C52.9359 517.23 52.7359 517.77 52.7359 518.45C52.7359 518.61 52.7359 518.75 52.7359 518.87C52.7559 518.99 52.7759 519.1 52.7959 519.2C52.8159 519.3 52.8459 519.4 52.8859 519.5L50.4859 520.1C50.4459 520.04 50.4159 519.96 50.3959 519.86C50.3759 519.76 50.3559 519.65 50.3359 519.53C50.3359 519.41 50.3359 519.25 50.3359 519.05C50.3359 518.63 50.4359 518.23 50.6359 517.85C50.8359 517.45 51.1259 517.1 51.5059 516.8C51.9059 516.48 52.3759 516.23 52.9159 516.05C53.4759 515.85 54.1159 515.75 54.8359 515.75C56.2759 515.75 57.4059 516.16 58.2259 516.98C59.0659 517.8 59.4859 518.89 59.4859 520.25V529.25L61.2859 529.7V530H57.0859V528.2C56.8659 528.62 56.5859 529 56.2459 529.34C55.9659 529.62 55.6059 529.87 55.1659 530.09C54.7459 530.33 54.2359 530.45 53.6359 530.45C52.1959 530.45 51.1059 530.11 50.3659 529.43C49.6459 528.75 49.2859 527.84 49.2859 526.7C49.2859 526.14 49.4359 525.58 49.7359 525.02C50.0559 524.46 50.5259 523.96 51.1459 523.52C51.7859 523.08 52.5959 522.73 53.5759 522.47C54.5559 522.19 55.7259 522.05 57.0859 522.05V520.25C57.0859 518.75 56.8559 517.7 56.3959 517.1C55.9559 516.5 55.4359 516.2 54.8359 516.2ZM67.7313 524.27L64.7313 528.95L66.6813 529.7V530H62.1813V529.7L64.1313 528.95L67.4313 523.79L63.5313 516.95L61.7312 516.5V516.2H67.8813V516.5L66.2313 516.95L68.8713 521.57L71.6313 517.25L69.6813 516.5V516.2H74.1813V516.5L72.2313 517.25L69.1413 522.05L73.2813 529.25L75.0813 529.7V530H68.9313V529.7L70.5813 529.25L67.7313 524.27Z" fill="black"/>
<path d="M443.5 878.75L446.5 879.5V880H436.25V879.5L439.25 878.75V846H434C434 847.4 433.717 848.7 433.15 849.9C432.583 851.1 431.867 852.133 431 853H430.5C430.533 852.567 430.567 852.117 430.6 851.65C430.633 851.25 430.667 850.833 430.7 850.4C430.733 849.933 430.75 849.467 430.75 849C430.75 848.367 430.733 847.817 430.7 847.35C430.667 846.85 430.633 846.417 430.6 846.05C430.567 845.65 430.533 845.3 430.5 845H452.25C452.183 845.3 452.133 845.65 452.1 846.05C452.067 846.417 452.033 846.85 452 847.35C452 847.817 452 848.367 452 849C452 849.467 452 849.933 452 850.4C452.033 850.833 452.067 851.25 452.1 851.65C452.133 852.117 452.183 852.567 452.25 853H451.75C450.883 852.133 450.167 851.1 449.6 849.9C449.033 848.7 448.75 847.4 448.75 846H443.5V878.75ZM523.314 870.45L518.314 878.25L521.564 879.5V880H514.064V879.5L517.314 878.25L522.814 869.65L516.314 858.25L513.314 857.5V857H523.564V857.5L520.814 858.25L525.214 865.95L529.814 858.75L526.564 857.5V857H534.064V857.5L530.814 858.75L525.664 866.75L532.564 878.75L535.564 879.5V880H525.314V879.5L528.064 878.75L523.314 870.45ZM564.946 881.36C556.226 881.36 549.106 874.28 549.106 865.52C549.106 856.76 556.226 849.68 564.946 849.68C573.706 849.68 580.786 856.76 580.786 865.52C580.786 874.28 573.706 881.36 564.946 881.36ZM564.946 878.6C572.186 878.6 578.026 872.76 578.026 865.52C578.026 858.28 572.186 852.44 564.946 852.44C557.706 852.44 551.866 858.28 551.866 865.52C551.866 872.76 557.706 878.6 564.946 878.6ZM564.946 869.08C562.986 869.08 561.386 867.48 561.386 865.52C561.386 863.56 562.986 861.96 564.946 861.96C566.906 861.96 568.506 863.56 568.506 865.52C568.506 867.48 566.906 869.08 564.946 869.08ZM604.42 861.8C603.86 861.8 603.314 861.96 602.78 862.28C602.274 862.573 601.807 863.067 601.38 863.76C600.98 864.453 600.647 865.373 600.38 866.52C600.14 867.667 600.02 869.093 600.02 870.8C600.02 872.507 600.14 873.933 600.38 875.08C600.647 876.227 600.967 877.16 601.34 877.88C601.74 878.573 602.167 879.067 602.62 879.36C603.1 879.653 603.567 879.8 604.02 879.8C604.66 879.8 605.22 879.613 605.7 879.24C606.207 878.867 606.634 878.453 606.98 878C607.38 877.493 607.727 876.893 608.02 876.2V864.2C607.754 863.747 607.447 863.347 607.1 863C606.807 862.707 606.434 862.44 605.98 862.2C605.554 861.933 605.034 861.8 604.42 861.8ZM611.22 879L613.62 879.6V880H608.02V877.6C607.727 878.16 607.354 878.667 606.9 879.12C606.527 879.493 606.047 879.827 605.46 880.12C604.9 880.44 604.22 880.6 603.42 880.6C602.567 880.6 601.714 880.387 600.86 879.96C600.034 879.507 599.287 878.867 598.62 878.04C597.98 877.187 597.447 876.16 597.02 874.96C596.62 873.733 596.42 872.347 596.42 870.8C596.42 869.253 596.62 867.88 597.02 866.68C597.447 865.453 598.007 864.427 598.7 863.6C599.394 862.747 600.18 862.107 601.06 861.68C601.94 861.227 602.86 861 603.82 861C604.567 861 605.207 861.107 605.74 861.32C606.274 861.533 606.714 861.76 607.06 862C607.46 862.293 607.78 862.627 608.02 863V853L605.62 852.4V852H611.22V879ZM618.62 879V862.6L616.22 862V861.6H621.82V879L624.22 879.6V880H616.22V879.6L618.62 879ZM622.02 857C622.02 857.507 621.807 857.973 621.38 858.4C620.98 858.8 620.527 859 620.02 859C619.514 859 619.047 858.8 618.62 858.4C618.22 857.973 618.02 857.507 618.02 857C618.02 856.493 618.22 856.04 618.62 855.64C619.047 855.213 619.514 855 620.02 855C620.527 855 620.98 855.213 621.38 855.64C621.807 856.04 622.02 856.493 622.02 857ZM632.211 879L634.611 879.6V880H626.611V879.6L629.011 879V862.6L626.611 862V861.6H632.211V866.4C632.558 865.413 632.971 864.52 633.451 863.72C633.878 863.027 634.398 862.4 635.011 861.84C635.624 861.28 636.358 861 637.211 861C637.504 861 637.784 861.027 638.051 861.08C638.318 861.107 638.558 861.147 638.771 861.2C639.011 861.28 639.224 861.347 639.411 861.4L638.211 864.4C638.051 864.32 637.878 864.227 637.691 864.12C637.531 864.04 637.331 863.973 637.091 863.92C636.878 863.84 636.651 863.8 636.411 863.8C635.718 863.8 635.104 863.987 634.571 864.36C634.038 864.733 633.598 865.147 633.251 865.6C632.824 866.133 632.478 866.733 632.211 867.4V879Z" fill="black"/>
<path d="M460.85 892.25V879.95L459.05 879.5V879.2H463.25V881C463.45 880.6 463.72 880.23 464.06 879.89C464.34 879.61 464.7 879.35 465.14 879.11C465.58 878.87 466.1 878.75 466.7 878.75C467.46 878.75 468.08 878.89 468.56 879.17C469.06 879.45 469.46 879.76 469.76 880.1C470.12 880.5 470.4 880.95 470.6 881.45C470.86 880.95 471.17 880.5 471.53 880.1C471.85 879.76 472.24 879.45 472.7 879.17C473.16 878.89 473.71 878.75 474.35 878.75C474.95 878.75 475.5 878.86 476 879.08C476.52 879.3 476.97 879.61 477.35 880.01C477.73 880.39 478.02 880.86 478.22 881.42C478.44 881.96 478.55 882.57 478.55 883.25V892.25L480.35 892.7V893H474.5V892.7L476.15 892.25V883.25C476.15 881.83 475.92 880.83 475.46 880.25C475.02 879.65 474.5 879.35 473.9 879.35C473.4 879.35 472.97 879.49 472.61 879.77C472.25 880.05 471.94 880.36 471.68 880.7C471.38 881.1 471.12 881.55 470.9 882.05V892.25L472.55 892.7V893H466.85V892.7L468.5 892.25V883.25C468.5 881.83 468.27 880.83 467.81 880.25C467.37 879.65 466.85 879.35 466.25 879.35C465.75 879.35 465.32 879.49 464.96 879.77C464.6 880.05 464.29 880.36 464.03 880.7C463.73 881.1 463.47 881.55 463.25 882.05V892.25L464.9 892.7V893H459.05V892.7L460.85 892.25ZM490.086 885.65C488.346 885.65 487.056 886.04 486.216 886.82C485.396 887.58 484.986 888.64 484.986 890C484.986 890.9 485.206 891.6 485.646 892.1C486.086 892.6 486.566 892.85 487.086 892.85C487.566 892.85 487.986 892.71 488.346 892.43C488.726 892.15 489.046 891.84 489.306 891.5C489.606 891.12 489.866 890.67 490.086 890.15V885.65ZM487.836 879.2C487.236 879.2 486.736 879.41 486.336 879.83C485.936 880.23 485.736 880.77 485.736 881.45C485.736 881.61 485.736 881.75 485.736 881.87C485.756 881.99 485.776 882.1 485.796 882.2C485.816 882.3 485.846 882.4 485.886 882.5L483.486 883.1C483.446 883.04 483.416 882.96 483.396 882.86C483.376 882.76 483.356 882.65 483.336 882.53C483.336 882.41 483.336 882.25 483.336 882.05C483.336 881.63 483.436 881.23 483.636 880.85C483.836 880.45 484.126 880.1 484.506 879.8C484.906 879.48 485.376 879.23 485.916 879.05C486.476 878.85 487.116 878.75 487.836 878.75C489.276 878.75 490.406 879.16 491.226 879.98C492.066 880.8 492.486 881.89 492.486 883.25V892.25L494.286 892.7V893H490.086V891.2C489.866 891.62 489.586 892 489.246 892.34C488.966 892.62 488.606 892.87 488.166 893.09C487.746 893.33 487.236 893.45 486.636 893.45C485.196 893.45 484.106 893.11 483.366 892.43C482.646 891.75 482.286 890.84 482.286 889.7C482.286 889.14 482.436 888.58 482.736 888.02C483.056 887.46 483.526 886.96 484.146 886.52C484.786 886.08 485.596 885.73 486.576 885.47C487.556 885.19 488.726 885.05 490.086 885.05V883.25C490.086 881.75 489.856 880.7 489.396 880.1C488.956 879.5 488.436 879.2 487.836 879.2ZM500.731 887.27L497.731 891.95L499.681 892.7V893H495.181V892.7L497.131 891.95L500.431 886.79L496.531 879.95L494.731 879.5V879.2H500.881V879.5L499.231 879.95L501.871 884.57L504.631 880.25L502.681 879.5V879.2H507.181V879.5L505.231 880.25L502.141 885.05L506.281 892.25L508.081 892.7V893H501.931V892.7L503.581 892.25L500.731 887.27Z" fill="black"/>
<path d="M425.04 559.2V546.08L423.12 545.6V545.28H427.6V547.2C427.813 546.773 428.101 546.379 428.464 546.016C428.763 545.717 429.147 545.44 429.616 545.184C430.085 544.928 430.64 544.8 431.28 544.8C432.091 544.8 432.752 544.949 433.264 545.248C433.797 545.547 434.224 545.877 434.544 546.24C434.928 546.667 435.227 547.147 435.44 547.68C435.717 547.147 436.048 546.667 436.432 546.24C436.773 545.877 437.189 545.547 437.68 545.248C438.171 544.949 438.757 544.8 439.44 544.8C440.08 544.8 440.667 544.917 441.2 545.152C441.755 545.387 442.235 545.717 442.64 546.144C443.045 546.549 443.355 547.051 443.568 547.648C443.803 548.224 443.92 548.875 443.92 549.6V559.2L445.84 559.68V560H439.6V559.68L441.36 559.2V549.6C441.36 548.085 441.115 547.019 440.624 546.4C440.155 545.76 439.6 545.44 438.96 545.44C438.427 545.44 437.968 545.589 437.584 545.888C437.2 546.187 436.869 546.517 436.592 546.88C436.272 547.307 435.995 547.787 435.76 548.32V559.2L437.52 559.68V560H431.44V559.68L433.2 559.2V549.6C433.2 548.085 432.955 547.019 432.464 546.4C431.995 545.76 431.44 545.44 430.8 545.44C430.267 545.44 429.808 545.589 429.424 545.888C429.04 546.187 428.709 546.517 428.432 546.88C428.112 547.307 427.835 547.787 427.6 548.32V559.2L429.36 559.68V560H423.12V559.68L425.04 559.2ZM449.665 559.2V546.08L447.745 545.6V545.28H452.225V559.2L454.145 559.68V560H447.745V559.68L449.665 559.2ZM452.385 541.6C452.385 542.005 452.214 542.379 451.873 542.72C451.553 543.04 451.19 543.2 450.785 543.2C450.38 543.2 450.006 543.04 449.665 542.72C449.345 542.379 449.185 542.005 449.185 541.6C449.185 541.195 449.345 540.832 449.665 540.512C450.006 540.171 450.38 540 450.785 540C451.19 540 451.553 540.171 451.873 540.512C452.214 540.832 452.385 541.195 452.385 541.6ZM457.978 559.2V546.08L456.058 545.6V545.28H460.538V547.2C460.751 546.773 461.039 546.379 461.402 546.016C461.7 545.717 462.084 545.44 462.554 545.184C463.023 544.928 463.578 544.8 464.218 544.8C464.858 544.8 465.444 544.917 465.978 545.152C466.532 545.387 467.012 545.717 467.418 546.144C467.823 546.549 468.132 547.051 468.346 547.648C468.58 548.224 468.698 548.875 468.698 549.6V559.2L470.618 559.68V560H464.378V559.68L466.138 559.2V549.6C466.138 548.085 465.892 547.019 465.402 546.4C464.932 545.76 464.378 545.44 463.738 545.44C463.204 545.44 462.746 545.589 462.362 545.888C461.978 546.187 461.647 546.517 461.37 546.88C461.05 547.307 460.772 547.787 460.538 548.32V559.2L462.298 559.68V560H456.058V559.68L457.978 559.2ZM492.616 559L495.016 559.6V560H486.816V559.6L489.216 559V532.8H485.016C485.016 533.92 484.789 534.96 484.336 535.92C483.882 536.88 483.309 537.707 482.616 538.4H482.216C482.242 538.053 482.269 537.693 482.296 537.32C482.322 537 482.349 536.667 482.376 536.32C482.402 535.947 482.416 535.573 482.416 535.2C482.416 534.693 482.402 534.253 482.376 533.88C482.349 533.48 482.322 533.133 482.296 532.84C482.269 532.52 482.242 532.24 482.216 532H499.616C499.562 532.24 499.522 532.52 499.496 532.84C499.469 533.133 499.442 533.48 499.416 533.88C499.416 534.253 499.416 534.693 499.416 535.2C499.416 535.573 499.416 535.947 499.416 536.32C499.442 536.667 499.469 537 499.496 537.32C499.522 537.693 499.562 538.053 499.616 538.4H499.216C498.522 537.707 497.949 536.88 497.496 535.92C497.042 534.96 496.816 533.92 496.816 532.8H492.616V559ZM563.171 561.088C556.195 561.088 550.499 555.424 550.499 548.416C550.499 541.408 556.195 535.744 563.171 535.744C570.179 535.744 575.843 541.408 575.843 548.416C575.843 555.424 570.179 561.088 563.171 561.088ZM563.171 558.88C568.963 558.88 573.635 554.208 573.635 548.416C573.635 542.624 568.963 537.952 563.171 537.952C557.379 537.952 552.707 542.624 552.707 548.416C552.707 554.208 557.379 558.88 563.171 558.88ZM563.171 551.264C561.603 551.264 560.323 549.984 560.323 548.416C560.323 546.848 561.603 545.568 563.171 545.568C564.739 545.568 566.019 546.848 566.019 548.416C566.019 549.984 564.739 551.264 563.171 551.264ZM594.75 545.44C594.302 545.44 593.865 545.568 593.438 545.824C593.033 546.059 592.66 546.453 592.318 547.008C591.998 547.563 591.732 548.299 591.518 549.216C591.326 550.133 591.23 551.275 591.23 552.64C591.23 554.005 591.326 555.147 591.518 556.064C591.732 556.981 591.988 557.728 592.286 558.304C592.606 558.859 592.948 559.253 593.31 559.488C593.694 559.723 594.068 559.84 594.43 559.84C594.942 559.84 595.39 559.691 595.774 559.392C596.18 559.093 596.521 558.763 596.798 558.4C597.118 557.995 597.396 557.515 597.63 556.96V547.36C597.417 546.997 597.172 546.677 596.894 546.4C596.66 546.165 596.361 545.952 595.998 545.76C595.657 545.547 595.241 545.44 594.75 545.44ZM600.19 559.2L602.11 559.68V560H597.63V558.08C597.396 558.528 597.097 558.933 596.734 559.296C596.436 559.595 596.052 559.861 595.582 560.096C595.134 560.352 594.59 560.48 593.95 560.48C593.268 560.48 592.585 560.309 591.902 559.968C591.241 559.605 590.644 559.093 590.11 558.432C589.598 557.749 589.172 556.928 588.83 555.968C588.51 554.987 588.35 553.877 588.35 552.64C588.35 551.403 588.51 550.304 588.83 549.344C589.172 548.363 589.62 547.541 590.174 546.88C590.729 546.197 591.358 545.685 592.062 545.344C592.766 544.981 593.502 544.8 594.27 544.8C594.868 544.8 595.38 544.885 595.806 545.056C596.233 545.227 596.585 545.408 596.862 545.6C597.182 545.835 597.438 546.101 597.63 546.4V538.4L595.71 537.92V537.6H600.19V559.2ZM606.11 559.2V546.08L604.19 545.6V545.28H608.67V559.2L610.59 559.68V560H604.19V559.68L606.11 559.2ZM608.83 541.6C608.83 542.005 608.66 542.379 608.318 542.72C607.998 543.04 607.636 543.2 607.23 543.2C606.825 543.2 606.452 543.04 606.11 542.72C605.79 542.379 605.63 542.005 605.63 541.6C605.63 541.195 605.79 540.832 606.11 540.512C606.452 540.171 606.825 540 607.23 540C607.636 540 607.998 540.171 608.318 540.512C608.66 540.832 608.83 541.195 608.83 541.6ZM616.983 559.2L618.903 559.68V560H612.503V559.68L614.423 559.2V546.08L612.503 545.6V545.28H616.983V549.12C617.26 548.331 617.591 547.616 617.975 546.976C618.316 546.421 618.732 545.92 619.223 545.472C619.713 545.024 620.3 544.8 620.983 544.8C621.217 544.8 621.441 544.821 621.655 544.864C621.868 544.885 622.06 544.917 622.231 544.96C622.423 545.024 622.593 545.077 622.743 545.12L621.783 547.52C621.655 547.456 621.516 547.381 621.367 547.296C621.239 547.232 621.079 547.179 620.887 547.136C620.716 547.072 620.535 547.04 620.343 547.04C619.788 547.04 619.297 547.189 618.871 547.488C618.444 547.787 618.092 548.117 617.815 548.48C617.473 548.907 617.196 549.387 616.983 549.92V559.2Z" fill="#2660A4"/>
<path d="M501.85 579.25V566.95L500.05 566.5V566.2H504.25V568C504.45 567.6 504.72 567.23 505.06 566.89C505.34 566.61 505.7 566.35 506.14 566.11C506.58 565.87 507.1 565.75 507.7 565.75C508.46 565.75 509.08 565.89 509.56 566.17C510.06 566.45 510.46 566.76 510.76 567.1C511.12 567.5 511.4 567.95 511.6 568.45C511.86 567.95 512.17 567.5 512.53 567.1C512.85 566.76 513.24 566.45 513.7 566.17C514.16 565.89 514.71 565.75 515.35 565.75C515.95 565.75 516.5 565.86 517 566.08C517.52 566.3 517.97 566.61 518.35 567.01C518.73 567.39 519.02 567.86 519.22 568.42C519.44 568.96 519.55 569.57 519.55 570.25V579.25L521.35 579.7V580H515.5V579.7L517.15 579.25V570.25C517.15 568.83 516.92 567.83 516.46 567.25C516.02 566.65 515.5 566.35 514.9 566.35C514.4 566.35 513.97 566.49 513.61 566.77C513.25 567.05 512.94 567.36 512.68 567.7C512.38 568.1 512.12 568.55 511.9 569.05V579.25L513.55 579.7V580H507.85V579.7L509.5 579.25V570.25C509.5 568.83 509.27 567.83 508.81 567.25C508.37 566.65 507.85 566.35 507.25 566.35C506.75 566.35 506.32 566.49 505.96 566.77C505.6 567.05 505.29 567.36 505.03 567.7C504.73 568.1 504.47 568.55 504.25 569.05V579.25L505.9 579.7V580H500.05V579.7L501.85 579.25ZM531.086 572.65C529.346 572.65 528.056 573.04 527.216 573.82C526.396 574.58 525.986 575.64 525.986 577C525.986 577.9 526.206 578.6 526.646 579.1C527.086 579.6 527.566 579.85 528.086 579.85C528.566 579.85 528.986 579.71 529.346 579.43C529.726 579.15 530.046 578.84 530.306 578.5C530.606 578.12 530.866 577.67 531.086 577.15V572.65ZM528.836 566.2C528.236 566.2 527.736 566.41 527.336 566.83C526.936 567.23 526.736 567.77 526.736 568.45C526.736 568.61 526.736 568.75 526.736 568.87C526.756 568.99 526.776 569.1 526.796 569.2C526.816 569.3 526.846 569.4 526.886 569.5L524.486 570.1C524.446 570.04 524.416 569.96 524.396 569.86C524.376 569.76 524.356 569.65 524.336 569.53C524.336 569.41 524.336 569.25 524.336 569.05C524.336 568.63 524.436 568.23 524.636 567.85C524.836 567.45 525.126 567.1 525.506 566.8C525.906 566.48 526.376 566.23 526.916 566.05C527.476 565.85 528.116 565.75 528.836 565.75C530.276 565.75 531.406 566.16 532.226 566.98C533.066 567.8 533.486 568.89 533.486 570.25V579.25L535.286 579.7V580H531.086V578.2C530.866 578.62 530.586 579 530.246 579.34C529.966 579.62 529.606 579.87 529.166 580.09C528.746 580.33 528.236 580.45 527.636 580.45C526.196 580.45 525.106 580.11 524.366 579.43C523.646 578.75 523.286 577.84 523.286 576.7C523.286 576.14 523.436 575.58 523.736 575.02C524.056 574.46 524.526 573.96 525.146 573.52C525.786 573.08 526.596 572.73 527.576 572.47C528.556 572.19 529.726 572.05 531.086 572.05V570.25C531.086 568.75 530.856 567.7 530.396 567.1C529.956 566.5 529.436 566.2 528.836 566.2ZM541.731 574.27L538.731 578.95L540.681 579.7V580H536.181V579.7L538.131 578.95L541.431 573.79L537.531 566.95L535.731 566.5V566.2H541.881V566.5L540.231 566.95L542.871 571.57L545.631 567.25L543.681 566.5V566.2H548.181V566.5L546.231 567.25L543.141 572.05L547.281 579.25L549.081 579.7V580H542.931V579.7L544.581 579.25L541.731 574.27Z" fill="#2660A4"/>
</svg>
