<svg xmlns="http://www.w3.org/2000/svg" xmlns:xlink="http://www.w3.org/1999/xlink" xmlns:lucid="lucid" width="822" height="562"><g transform="translate(-1079 1601)" lucid:page-tab-id="0_0"><path d="M1100-1572a8 8 0 0 1 8-8h224a8 8 0 0 1 8 8v504a8 8 0 0 1-8 8h-224a8 8 0 0 1-8-8z" stroke="#54c45e" stroke-width="2" fill="#54c45e" fill-opacity=".3"/><use xlink:href="#a" transform="matrix(1,0,0,1,1108,-1572) translate(41.15524691358027 21.511111111111106)"/><use xlink:href="#b" transform="matrix(1,0,0,1,1108,-1572) translate(106.73425925925928 21.511111111111106)"/><path d="M1380-1572a8 8 0 0 1 8-8h224a8 8 0 0 1 8 8v504a8 8 0 0 1-8 8h-224a8 8 0 0 1-8-8z" stroke="#fc9432" stroke-width="2" fill="#fc9432" fill-opacity=".3"/><use xlink:href="#c" transform="matrix(1,0,0,1,1388,-1572) translate(17.216666666666697 21.511111111111106)"/><use xlink:href="#d" transform="matrix(1,0,0,1,1388,-1572) translate(126.11666666666667 21.511111111111106)"/><path d="M1660-1572a8 8 0 0 1 8-8h204a8 8 0 0 1 8 8v264a8 8 0 0 1-8 8h-204a8 8 0 0 1-8-8z" stroke="#ba23f6" stroke-width="2" fill="#ba23f6" fill-opacity=".3"/><use xlink:href="#e" transform="matrix(1,0,0,1,1668,-1572) translate(46.01882716049384 21.511111111111106)"/><use xlink:href="#f" transform="matrix(1,0,0,1,1668,-1572) translate(59.50061728395063 53.777777777777764)"/><use xlink:href="#g" transform="matrix(1,0,0,1,1668,-1572) translate(102 86.04444444444442)"/><use xlink:href="#g" transform="matrix(1,0,0,1,1668,-1572) translate(102 118.31111111111109)"/><use xlink:href="#h" transform="matrix(1,0,0,1,1668,-1572) translate(102 150.57777777777773)"/><path d="M1134.28-1400c-4.4 0-8 3.58-8 8v24c0 4.42 3.6 8 8 8h171.44c4.4 0 8-3.58 8-8v-24c0-4.42-3.6-8-8-8z" stroke="#000" stroke-width="2" fill="#fff"/><use xlink:href="#i" transform="matrix(1,0,0,1,1134.284099553738,-1392) translate(60.075 15.6)"/><path d="M1134.28-1320c-4.4 0-8 3.58-8 8v24c0 4.42 3.6 8 8 8h171.44c4.4 0 8-3.58 8-8v-24c0-4.42-3.6-8-8-8z" stroke="#000" stroke-width="2" fill="#fff"/><use xlink:href="#i" transform="matrix(1,0,0,1,1134.2840995537379,-1312) translate(60.075 15.6)"/><path d="M1220-1358v18.5" stroke="#000" stroke-width="2" fill="none"/><path d="M1220.97-1357.97h-1.94v-1.03h1.94z" stroke="#000" stroke-width=".05"/><path d="M1220-1324.24l-4.63-14.26h9.27z" stroke="#000" stroke-width="2"/><path d="M1134.28-1240c-4.4 0-8 3.58-8 8v24c0 4.42 3.6 8 8 8h171.44c4.4 0 8-3.58 8-8v-24c0-4.42-3.6-8-8-8z" stroke="#000" stroke-width="2" fill="#fff"/><use xlink:href="#i" transform="matrix(1,0,0,1,1134.2840995537379,-1232) translate(60.075 15.6)"/><path d="M1220-1278v18.5" stroke="#000" stroke-width="2" fill="none"/><path d="M1220.97-1277.97h-1.94v-1.03h1.94z" stroke="#000" stroke-width=".05"/><path d="M1220-1244.24l-4.63-14.26h9.27z" stroke="#000" stroke-width="2"/><path d="M1220-1410v-28" stroke="#000" stroke-width="2" fill="none"/><path d="M1220-1402.96l-7.64-12.92h15.28z" stroke="#000" stroke-width="2"/><path d="M1220.97-1437.97h-1.94v-1.03h1.94z" stroke="#000" stroke-width=".05"/><path d="M1134.28-1160c-4.4 0-8 3.58-8 8v24c0 4.42 3.6 8 8 8h171.44c4.4 0 8-3.58 8-8v-24c0-4.42-3.6-8-8-8z" stroke="#000" stroke-width="2" fill="#fff"/><use xlink:href="#i" transform="matrix(1,0,0,1,1134.2840995537376,-1152) translate(60.075 15.6)"/><path d="M1220-1198v18.5M1220-1197.97v-1.03" stroke="#000" stroke-width="2" fill="none"/><path d="M1220-1164.24l-4.63-14.26h9.27z" stroke="#000" stroke-width="2"/><path d="M1220-1118v18.5M1220-1117.97v-1.03" stroke="#000" stroke-width="2" fill="none"/><path d="M1220-1084.24l-4.63-14.26h9.27z" stroke="#000" stroke-width="2"/><path d="M1315.72-1141.33h71.06" stroke="#000" stroke-width="2" fill="none"/><path d="M1315.74-1140.36h-1.02v-1.95h1.02z" stroke="#000" stroke-width=".05"/><path d="M1402.05-1141.33l-14.27 4.63v-9.27z" stroke="#000" stroke-width="2"/><path d="M1414.28-1161.33c-4.4 0-8 3.58-8 8v24c0 4.4 3.6 8 8 8h171.44c4.4 0 8-3.6 8-8v-24c0-4.42-3.6-8-8-8z" stroke="#000" stroke-width="2" fill="#fff"/><use xlink:href="#j" transform="matrix(1,0,0,1,1414.2840995118786,-1153.333332765166) translate(34.775 15.6)"/><use xlink:href="#k" transform="matrix(1,0,0,1,1414.2840995118786,-1153.333332765166) translate(85.375 15.6)"/><path d="M1500-1163.33v-97.17" stroke="#000" stroke-width="2" fill="none"/><path d="M1500.97-1162.33h-1.94v-1.03h1.94z" stroke="#000" stroke-width=".05"/><path d="M1500-1275.76l4.63 14.26h-9.27z" stroke="#000" stroke-width="2"/><path d="M1500-1081v-20.83M1500-1081.03v1.03" stroke="#000" stroke-width="2" fill="none"/><path d="M1500-1117.1l4.63 14.27h-9.27z" stroke="#000" stroke-width="2"/><path d="M1414.28-1320c-4.4 0-8 3.58-8 8v24c0 4.42 3.6 8 8 8h171.44c4.4 0 8-3.58 8-8v-24c0-4.42-3.6-8-8-8z" stroke="#000" stroke-width="2" fill="#fff"/><use xlink:href="#j" transform="matrix(1,0,0,1,1414.284099553738,-1312) translate(34.775 15.6)"/><use xlink:href="#k" transform="matrix(1,0,0,1,1414.284099553738,-1312) translate(85.375 15.6)"/><path d="M1414.28-1440c-4.4 0-8 3.58-8 8v24c0 4.42 3.6 8 8 8h171.44c4.4 0 8-3.58 8-8v-24c0-4.42-3.6-8-8-8z" stroke="#000" stroke-width="2" fill="#fff"/><use xlink:href="#j" transform="matrix(1,0,0,1,1414.2840995537379,-1432) translate(34.775 15.6)"/><use xlink:href="#k" transform="matrix(1,0,0,1,1414.2840995537379,-1432) translate(85.375 15.6)"/><path d="M1315.72-1300h71.06" stroke="#000" stroke-width="2" fill="none"/><path d="M1315.74-1299.03h-1.02v-1.94h1.02z" stroke="#000" stroke-width=".05"/><path d="M1402.05-1300l-14.27 4.63v-9.27z" stroke="#000" stroke-width="2"/><path d="M1414.28-1478.67c-4.4 0-8 3.6-8 8v24c0 4.42 3.6 8 8 8h171.44c4.4 0 8-3.58 8-8v-24c0-4.4-3.6-8-8-8z" stroke="#000" stroke-width="2" fill="#fff"/><use xlink:href="#j" transform="matrix(1,0,0,1,1414.284099553738,-1470.666667234834) translate(34.775 15.6)"/><use xlink:href="#k" transform="matrix(1,0,0,1,1414.284099553738,-1470.666667234834) translate(85.375 15.6)"/><path d="M1414.28-1518.67c-4.4 0-8 3.6-8 8v24c0 4.42 3.6 8 8 8h171.44c4.4 0 8-3.58 8-8v-24c0-4.4-3.6-8-8-8z" stroke="#000" stroke-width="2" fill="#fff"/><use xlink:href="#j" transform="matrix(1,0,0,1,1414.284099553738,-1510.666667234834) translate(34.775 15.6)"/><use xlink:href="#k" transform="matrix(1,0,0,1,1414.284099553738,-1510.666667234834) translate(85.375 15.6)"/><path d="M1500-1322v-58.5" stroke="#000" stroke-width="2" fill="none"/><path d="M1500.97-1321h-1.94v-1.03h1.94z" stroke="#000" stroke-width=".05"/><path d="M1500-1395.76l4.63 14.26h-9.27z" stroke="#000" stroke-width="2"/><path d="M1134.28-1480c-4.4 0-8 3.58-8 8v24c0 4.42 3.6 8 8 8h171.44c4.4 0 8-3.58 8-8v-24c0-4.42-3.6-8-8-8z" stroke="#000" stroke-width="2" fill="#fff"/><use xlink:href="#i" transform="matrix(1,0,0,1,1134.2840995537376,-1472) translate(60.075 15.6)"/><path d="M1668-1240c-4.42 0-8 3.58-8 8v24c0 4.42 3.58 8 8 8h204c4.42 0 8-3.58 8-8v-24c0-4.42-3.58-8-8-8z" stroke="#000" stroke-width="2" fill="#fff"/><use xlink:href="#l" transform="matrix(1,0,0,1,1668,-1232) translate(50.815432098765456 17.95555555555555)"/><path d="M1667.73-1438.67c-4.27 0-7.73 3.47-7.73 7.74v23.2c0 4.27 3.46 7.73 7.73 7.73h204.54c4.27 0 7.73-3.46 7.73-7.73v-23.2c0-4.27-3.46-7.74-7.73-7.74z" stroke="#ba23f6" stroke-width="2" fill="#ba23f6" fill-opacity=".3"/><use xlink:href="#m" transform="matrix(1,0,0,1,1668,-1430.6666672348338) translate(68.45925925925928 17.95555555555555)"/><path d="M1595.72-1498.67H1658" stroke="#000" stroke-width="2" fill="none"/><path d="M1595.74-1497.7h-1.02v-1.94h1.02zM1659-1497.7h-1.03v-1.94h1.03z" stroke="#000" stroke-width=".05"/><path d="M1770-1298v38.5" stroke="#000" stroke-width="2" fill="none"/><path d="M1770.97-1297.97h-1.94v-1.03h1.94z" stroke="#000" stroke-width=".05"/><path d="M1770-1244.24l-4.63-14.26h9.27z" stroke="#000" stroke-width="2"/><path d="M1770-1398v3.86m0 7.72v7.73m0 7.73v7.72m0 7.72v7.72m0 7.72v7.72m0 7.72v7.72m0 7.73v7.73m0 7.72v7.72m0 7.72v7.72m0 7.72v3.86-4.88m0-9.74v-9.75m0-9.75v-4.88" stroke="#000" stroke-width="2" fill="none"/><path d="M1770.97-1397.97h-1.94v-1.03h1.94zM1770.97-1297.97h-1.94v-1.03h1.94z" stroke="#000" stroke-width=".05"/><path d="M1770-1458.17v-3.56m0-7.13v-7.12m0-7.12v-3.57l-.15-1.87-.44-1.84-.35-.86m-6.47-6.48l-.87-.36-1.82-.44-1.88-.15h-4.08m-8.17 0h-8.17m-8.16 0h-8.17m-8.17 0h-8.16m-8.17 0h-8.17m-8.16 0h-8.17m-8.17 0H1660" stroke="#000" stroke-width="2" fill="none"/><path d="M1770-1442.9l-4.63-14.27h9.27z" stroke="#000" stroke-width="2"/><path d="M1660.03-1497.7H1659v-1.94h1.03z" stroke="#000" stroke-width=".05"/><path d="M1220-1499.5v-19.5" stroke="#000" stroke-width="2" fill="none"/><path d="M1220-1484.24l-4.63-14.26h9.27z" stroke="#000" stroke-width="2"/><path d="M1220-1518.97v-1.03" stroke="#000" stroke-width="2" fill="none"/><defs><path fill="#282c33" d="M240 0l2-218c-23 76-54 145-80 218h-23L58-218 59 0H30v-248h44l77 211c21-75 51-140 76-211h43V0h-30" id="n"/><path fill="#282c33" d="M141-36C126-15 110 5 73 4 37 3 15-17 15-53c-1-64 63-63 125-63 3-35-9-54-41-54-24 1-41 7-42 31l-33-3c5-37 33-52 76-52 45 0 72 20 72 64v82c-1 20 7 32 28 27v20c-31 9-61-2-59-35zM48-53c0 20 12 33 32 33 41-3 63-29 60-74-43 2-92-5-92 41" id="o"/><path fill="#282c33" d="M24-231v-30h32v30H24zM24 0v-190h32V0H24" id="p"/><path fill="#282c33" d="M117-194c89-4 53 116 60 194h-32v-121c0-31-8-49-39-48C34-167 62-67 57 0H25l-1-190h30c1 10-1 24 2 32 11-22 29-35 61-36" id="q"/><g id="a"><use transform="matrix(0.07469135802469135,0,0,0.07469135802469135,0,0)" xlink:href="#n"/><use transform="matrix(0.07469135802469135,0,0,0.07469135802469135,22.33271604938271,0)" xlink:href="#o"/><use transform="matrix(0.07469135802469135,0,0,0.07469135802469135,37.270987654320976,0)" xlink:href="#p"/><use transform="matrix(0.07469135802469135,0,0,0.07469135802469135,43.17160493827159,0)" xlink:href="#q"/></g><path fill="#282c33" d="M59-47c-2 24 18 29 38 22v24C64 9 27 4 27-40v-127H5v-23h24l9-43h21v43h35v23H59v120" id="r"/><path fill="#282c33" d="M106-169C34-169 62-67 57 0H25v-261h32l-1 103c12-21 28-36 61-36 89 0 53 116 60 194h-32v-121c2-32-8-49-39-48" id="s"/><path fill="#282c33" d="M114-163C36-179 61-72 57 0H25l-1-190h30c1 12-1 29 2 39 6-27 23-49 58-41v29" id="t"/><path fill="#282c33" d="M100-194c63 0 86 42 84 106H49c0 40 14 67 53 68 26 1 43-12 49-29l28 8c-11 28-37 45-77 45C44 4 14-33 15-96c1-61 26-98 85-98zm52 81c6-60-76-77-97-28-3 7-6 17-6 28h103" id="u"/><path fill="#282c33" d="M85-194c31 0 48 13 60 33l-1-100h32l1 261h-30c-2-10 0-23-3-31C134-8 116 4 85 4 32 4 16-35 15-94c0-66 23-100 70-100zm9 24c-40 0-46 34-46 75 0 40 6 74 45 74 42 0 51-32 51-76 0-42-9-74-50-73" id="v"/><g id="b"><use transform="matrix(0.07469135802469135,0,0,0.07469135802469135,0,0)" xlink:href="#r"/><use transform="matrix(0.07469135802469135,0,0,0.07469135802469135,7.469135802469134,0)" xlink:href="#s"/><use transform="matrix(0.07469135802469135,0,0,0.07469135802469135,22.407407407407405,0)" xlink:href="#t"/><use transform="matrix(0.07469135802469135,0,0,0.07469135802469135,31.295679012345673,0)" xlink:href="#u"/><use transform="matrix(0.07469135802469135,0,0,0.07469135802469135,46.23395061728394,0)" xlink:href="#o"/><use transform="matrix(0.07469135802469135,0,0,0.07469135802469135,61.1722222222222,0)" xlink:href="#v"/></g><path fill="#282c33" d="M160-131c35 5 61 23 61 61C221 17 115-2 30 0v-248c76 3 177-17 177 60 0 33-19 50-47 57zm-97-11c50-1 110 9 110-42 0-47-63-36-110-37v79zm0 115c55-2 124 14 124-45 0-56-70-42-124-44v89" id="w"/><path fill="#282c33" d="M24 0v-261h32V0H24" id="x"/><path fill="#282c33" d="M100-194c62-1 85 37 85 99 1 63-27 99-86 99S16-35 15-95c0-66 28-99 85-99zM99-20c44 1 53-31 53-75 0-43-8-75-51-75s-53 32-53 75 10 74 51 75" id="y"/><path fill="#282c33" d="M96-169c-40 0-48 33-48 73s9 75 48 75c24 0 41-14 43-38l32 2c-6 37-31 61-74 61-59 0-76-41-82-99-10-93 101-131 147-64 4 7 5 14 7 22l-32 3c-4-21-16-35-41-35" id="z"/><path fill="#282c33" d="M143 0L79-87 56-68V0H24v-261h32v163l83-92h37l-77 82L181 0h-38" id="A"/><path fill="#282c33" d="M177-190C167-65 218 103 67 71c-23-6-38-20-44-43l32-5c15 47 100 32 89-28v-30C133-14 115 1 83 1 29 1 15-40 15-95c0-56 16-97 71-98 29-1 48 16 59 35 1-10 0-23 2-32h30zM94-22c36 0 50-32 50-73 0-42-14-75-50-75-39 0-46 34-46 75s6 73 46 73" id="B"/><g id="c"><use transform="matrix(0.07469135802469135,0,0,0.07469135802469135,0,0)" xlink:href="#w"/><use transform="matrix(0.07469135802469135,0,0,0.07469135802469135,17.925925925925924,0)" xlink:href="#x"/><use transform="matrix(0.07469135802469135,0,0,0.07469135802469135,23.82654320987654,0)" xlink:href="#y"/><use transform="matrix(0.07469135802469135,0,0,0.07469135802469135,38.764814814814805,0)" xlink:href="#z"/><use transform="matrix(0.07469135802469135,0,0,0.07469135802469135,52.20925925925926,0)" xlink:href="#A"/><use transform="matrix(0.07469135802469135,0,0,0.07469135802469135,65.6537037037037,0)" xlink:href="#p"/><use transform="matrix(0.07469135802469135,0,0,0.07469135802469135,71.55432098765431,0)" xlink:href="#q"/><use transform="matrix(0.07469135802469135,0,0,0.07469135802469135,86.49259259259257,0)" xlink:href="#B"/></g><path fill="#282c33" d="M140-251c81 0 123 46 123 126C263-53 228-8 163 1c7 30 30 48 69 40v23c-55 16-95-15-103-61C56-3 17-48 17-125c0-80 42-126 123-126zm0 227c63 0 89-41 89-101s-29-99-89-99c-61 0-89 39-89 99S79-25 140-24" id="C"/><path fill="#282c33" d="M84 4C-5 8 30-112 23-190h32v120c0 31 7 50 39 49 72-2 45-101 50-169h31l1 190h-30c-1-10 1-25-2-33-11 22-28 36-60 37" id="D"/><g id="d"><use transform="matrix(0.07469135802469135,0,0,0.07469135802469135,0,0)" xlink:href="#C"/><use transform="matrix(0.07469135802469135,0,0,0.07469135802469135,20.913580246913575,0)" xlink:href="#D"/><use transform="matrix(0.07469135802469135,0,0,0.07469135802469135,35.85185185185185,0)" xlink:href="#u"/><use transform="matrix(0.07469135802469135,0,0,0.07469135802469135,50.79012345679011,0)" xlink:href="#D"/><use transform="matrix(0.07469135802469135,0,0,0.07469135802469135,65.72839506172838,0)" xlink:href="#u"/></g><path fill="#282c33" d="M30 0v-248h187v28H63v79h144v27H63v87h162V0H30" id="E"/><g id="e"><use transform="matrix(0.07469135802469135,0,0,0.07469135802469135,0,0)" xlink:href="#E"/><use transform="matrix(0.07469135802469135,0,0,0.07469135802469135,17.925925925925924,0)" xlink:href="#q"/><use transform="matrix(0.07469135802469135,0,0,0.07469135802469135,32.86419753086419,0)" xlink:href="#z"/><use transform="matrix(0.07469135802469135,0,0,0.07469135802469135,46.30864197530863,0)" xlink:href="#y"/><use transform="matrix(0.07469135802469135,0,0,0.07469135802469135,61.2469135802469,0)" xlink:href="#v"/><use transform="matrix(0.07469135802469135,0,0,0.07469135802469135,76.18518518518516,0)" xlink:href="#p"/><use transform="matrix(0.07469135802469135,0,0,0.07469135802469135,82.08580246913579,0)" xlink:href="#q"/><use transform="matrix(0.07469135802469135,0,0,0.07469135802469135,97.02407407407406,0)" xlink:href="#B"/></g><path fill="#282c33" d="M127-220V0H93v-220H8v-28h204v28h-85" id="F"/><g id="f"><use transform="matrix(0.07469135802469135,0,0,0.07469135802469135,0,0)" xlink:href="#F"/><use transform="matrix(0.07469135802469135,0,0,0.07469135802469135,16.357407407407404,0)" xlink:href="#s"/><use transform="matrix(0.07469135802469135,0,0,0.07469135802469135,31.295679012345673,0)" xlink:href="#t"/><use transform="matrix(0.07469135802469135,0,0,0.07469135802469135,40.18395061728394,0)" xlink:href="#u"/><use transform="matrix(0.07469135802469135,0,0,0.07469135802469135,55.122222222222206,0)" xlink:href="#o"/><use transform="matrix(0.07469135802469135,0,0,0.07469135802469135,70.06049382716047,0)" xlink:href="#v"/></g><path fill="#666" d="M63-220v92h138v28H63V0H30v-248h175v28H63" id="G"/><path fill="#666" d="M114-163C36-179 61-72 57 0H25l-1-190h30c1 12-1 29 2 39 6-27 23-49 58-41v29" id="H"/><path fill="#666" d="M141-36C126-15 110 5 73 4 37 3 15-17 15-53c-1-64 63-63 125-63 3-35-9-54-41-54-24 1-41 7-42 31l-33-3c5-37 33-52 76-52 45 0 72 20 72 64v82c-1 20 7 32 28 27v20c-31 9-61-2-59-35zM48-53c0 20 12 33 32 33 41-3 63-29 60-74-43 2-92-5-92 41" id="I"/><path fill="#666" d="M210-169c-67 3-38 105-44 169h-31v-121c0-29-5-50-35-48C34-165 62-65 56 0H25l-1-190h30c1 10-1 24 2 32 10-44 99-50 107 0 11-21 27-35 58-36 85-2 47 119 55 194h-31v-121c0-29-5-49-35-48" id="J"/><path fill="#666" d="M100-194c63 0 86 42 84 106H49c0 40 14 67 53 68 26 1 43-12 49-29l28 8c-11 28-37 45-77 45C44 4 14-33 15-96c1-61 26-98 85-98zm52 81c6-60-76-77-97-28-3 7-6 17-6 28h103" id="K"/><g id="i"><use transform="matrix(0.05,0,0,0.05,0,0)" xlink:href="#G"/><use transform="matrix(0.05,0,0,0.05,10.950000000000001,0)" xlink:href="#H"/><use transform="matrix(0.05,0,0,0.05,16.900000000000002,0)" xlink:href="#I"/><use transform="matrix(0.05,0,0,0.05,26.900000000000002,0)" xlink:href="#J"/><use transform="matrix(0.05,0,0,0.05,41.85,0)" xlink:href="#K"/></g><path fill="#666" d="M137 0h-34L2-248h35l83 218 83-218h36" id="L"/><path fill="#666" d="M24-231v-30h32v30H24zM24 0v-190h32V0H24" id="M"/><path fill="#666" d="M85-194c31 0 48 13 60 33l-1-100h32l1 261h-30c-2-10 0-23-3-31C134-8 116 4 85 4 32 4 16-35 15-94c0-66 23-100 70-100zm9 24c-40 0-46 34-46 75 0 40 6 74 45 74 42 0 51-32 51-76 0-42-9-74-50-73" id="N"/><path fill="#666" d="M100-194c62-1 85 37 85 99 1 63-27 99-86 99S16-35 15-95c0-66 28-99 85-99zM99-20c44 1 53-31 53-75 0-43-8-75-51-75s-53 32-53 75 10 74 51 75" id="O"/><g id="j"><use transform="matrix(0.05,0,0,0.05,0,0)" xlink:href="#L"/><use transform="matrix(0.05,0,0,0.05,11.65,0)" xlink:href="#M"/><use transform="matrix(0.05,0,0,0.05,15.600000000000001,0)" xlink:href="#N"/><use transform="matrix(0.05,0,0,0.05,25.6,0)" xlink:href="#K"/><use transform="matrix(0.05,0,0,0.05,35.6,0)" xlink:href="#O"/></g><g id="k"><use transform="matrix(0.05,0,0,0.05,0,0)" xlink:href="#G"/><use transform="matrix(0.05,0,0,0.05,10.950000000000001,0)" xlink:href="#H"/><use transform="matrix(0.05,0,0,0.05,16.900000000000002,0)" xlink:href="#I"/><use transform="matrix(0.05,0,0,0.05,26.900000000000002,0)" xlink:href="#J"/><use transform="matrix(0.05,0,0,0.05,41.85,0)" xlink:href="#K"/></g><path fill="#666" d="M108 0H70L1-190h34L89-25l56-165h34" id="P"/><path fill="#666" d="M33 0v-38h34V0H33" id="Q"/><path fill="#666" d="M115-194c55 1 70 41 70 98S169 2 115 4C84 4 66-9 55-30l1 105H24l-1-265h31l2 30c10-21 28-34 59-34zm-8 174c40 0 45-34 45-75s-6-73-45-74c-42 0-51 32-51 76 0 43 10 73 51 73" id="R"/><path fill="#666" d="M155-56V0h-30v-56H8v-25l114-167h33v167h35v25h-35zm-30-156c-27 46-58 90-88 131h88v-131" id="S"/><g id="l"><use transform="matrix(0.06234567901234565,0,0,0.06234567901234565,0,0)" xlink:href="#P"/><use transform="matrix(0.06234567901234565,0,0,0.06234567901234565,11.222222222222218,0)" xlink:href="#M"/><use transform="matrix(0.06234567901234565,0,0,0.06234567901234565,16.147530864197524,0)" xlink:href="#N"/><use transform="matrix(0.06234567901234565,0,0,0.06234567901234565,28.616666666666653,0)" xlink:href="#K"/><use transform="matrix(0.06234567901234565,0,0,0.06234567901234565,41.085802469135785,0)" xlink:href="#O"/><use transform="matrix(0.06234567901234565,0,0,0.06234567901234565,53.55493827160492,0)" xlink:href="#Q"/><use transform="matrix(0.06234567901234565,0,0,0.06234567901234565,59.78950617283948,0)" xlink:href="#J"/><use transform="matrix(0.06234567901234565,0,0,0.06234567901234565,78.43086419753084,0)" xlink:href="#R"/><use transform="matrix(0.06234567901234565,0,0,0.06234567901234565,90.89999999999996,0)" xlink:href="#S"/></g><path d="M101-234c-31-9-42 10-38 44h38v23H63V0H32v-167H5v-23h27c-7-52 17-82 69-68v24" id="T"/><path d="M210-169c-67 3-38 105-44 169h-31v-121c0-29-5-50-35-48C34-165 62-65 56 0H25l-1-190h30c1 10-1 24 2 32 10-44 99-50 107 0 11-21 27-35 58-36 85-2 47 119 55 194h-31v-121c0-29-5-49-35-48" id="U"/><path d="M115-194c55 1 70 41 70 98S169 2 115 4C84 4 66-9 55-30l1 105H24l-1-265h31l2 30c10-21 28-34 59-34zm-8 174c40 0 45-34 45-75s-6-73-45-74c-42 0-51 32-51 76 0 43 10 73 51 73" id="V"/><path d="M100-194c63 0 86 42 84 106H49c0 40 14 67 53 68 26 1 43-12 49-29l28 8c-11 28-37 45-77 45C44 4 14-33 15-96c1-61 26-98 85-98zm52 81c6-60-76-77-97-28-3 7-6 17-6 28h103" id="W"/><path d="M177-190C167-65 218 103 67 71c-23-6-38-20-44-43l32-5c15 47 100 32 89-28v-30C133-14 115 1 83 1 29 1 15-40 15-95c0-56 16-97 71-98 29-1 48 16 59 35 1-10 0-23 2-32h30zM94-22c36 0 50-32 50-73 0-42-14-75-50-75-39 0-46 34-46 75s6 73 46 73" id="X"/><g id="m"><use transform="matrix(0.06234567901234565,0,0,0.06234567901234565,0,0)" xlink:href="#T"/><use transform="matrix(0.06234567901234565,0,0,0.06234567901234565,5.798148148148146,0)" xlink:href="#T"/><use transform="matrix(0.06234567901234565,0,0,0.06234567901234565,12.03271604938271,0)" xlink:href="#U"/><use transform="matrix(0.06234567901234565,0,0,0.06234567901234565,30.67407407407406,0)" xlink:href="#V"/><use transform="matrix(0.06234567901234565,0,0,0.06234567901234565,43.14320987654319,0)" xlink:href="#W"/><use transform="matrix(0.06234567901234565,0,0,0.06234567901234565,55.61234567901232,0)" xlink:href="#X"/></g></defs></g></svg>