<svg width="400" height="423" viewBox="0 0 400 423" fill="none" xmlns="http://www.w3.org/2000/svg">
<rect x="2.5" y="24.5006" width="395" height="395" stroke="#A4A4A4" stroke-width="5"/>
<path d="M100 222V22" stroke="#A4A4A4" stroke-width="5"/>
<path d="M149 222V22" stroke="#A4A4A4" stroke-width="5"/>
<rect x="2.5" y="24.5006" width="395" height="395" stroke="#A4A4A4" stroke-width="5"/>
<path d="M5.21406e-06 222.001L400 222.001" stroke="#A4A4A4" stroke-width="5"/>
<path d="M2.60703e-06 122L200 122" stroke="#A4A4A4" stroke-width="5"/>
<path d="M52 222V22" stroke="#A4A4A4" stroke-width="5"/>
<path d="M0 76L200 76" stroke="#A4A4A4" stroke-width="5"/>
<path d="M0 171H200" stroke="#A4A4A4" stroke-width="5"/>
<path d="M199.502 422V22" stroke="#A4A4A4" stroke-width="5"/>
<rect x="102.75" y="173.75" width="43.5" height="45.5" fill="#7D7D7D" stroke="#7D7D7D" stroke-width="0.5"/>
<path d="M115 220L124.667 240.973L137.997 222.115L115 220ZM399.995 418.997L130.853 228.756L128.544 232.023L397.686 422.263L399.995 418.997Z" fill="#6FFFF6"/>
<path d="M2.77875e-05 2.59829e-05L5.38072 22.4585L22.14 6.56943L2.77875e-05 2.59829e-05ZM400.003 419.003L13.8357 11.6865L10.9329 14.4386L397.1 421.755L400.003 419.003Z" fill="#D72828"/>
<circle cx="199.5" cy="278.5" r="7.5" fill="#6FFFF6"/>
<circle cx="200.5" cy="210.5" r="7.5" fill="#D72828"/>
<circle cx="162.5" cy="171.5" r="7.5" fill="#D72828"/>
<circle cx="149.5" cy="156.5" r="7.5" fill="#D72828"/>
<circle cx="116.5" cy="122.5" r="7.5" fill="#D72828"/>
<circle cx="72.5" cy="76.5" r="7.5" fill="#D72828"/>
<circle cx="210.5" cy="222.5" r="7.5" fill="#D72828"/>
</svg>
